<svg xmlns="http://www.w3.org/2000/svg" viewBox="0 0 3508 2480">
  <defs>
    <style>
      .str0{stroke:#38AA3D;stroke-width:25}.str2{stroke:#004236;stroke-width:25}
      .str1{stroke:#2B2A29;stroke-width:2}.fil3{fill:none}.fil1{fill:#FEFEFE}
      .fil7{fill:#2B2A29}.fil2{fill:#3AAA3D}.fil0{fill:#1B9D3D}
      .fil4{fill:#FEFEFE;fill-rule:nonzero}.fil8{fill:#2B2A29;fill-rule:nonzero}
      .fil6{fill:#3D9237;fill-rule:nonzero}.fil5{fill:#358D37;fill-rule:nonzero}
    </style>
  </defs>
  <g id="Layer_1">
    <g id="left-blob">
      <path class="fil0" d="M1465 851a352 352 0 1 1 0 704 352 352 0 0 1 0-704z"/>
      <g id="left-details">
        <path class="fil1" d="M1356 1169c3 0 3-4 5-6 9-15 12-17 21-28 2-2 3-3 5-5 18-19 21-21 38-36l19-16c17-13 63-48 80-58l-52-91c-2-4-6-9-7-13l-62 106c-10 18-20 35-31 53-5 9-28 48-30 54 3-2 4-4 8-7l30-26c3-2 5-4 8-6 14-10 70-48 85-53-25 15-48 35-70 54-2 2-3 2-5 4l-13 12c-11 9-59 57-62 61l35 0z"/>
        <path class="fil1" d="M1579 1120c-7-11-33-52-38-62-4-7 0-10 3-14l58-59c-4 2-8 5-13 8l-38 27c-10 8-26 20-36 29l-11 10c-4 4-8 7-11 11-13 15-16 17-29 35-13 19-22 42-12 64l155 0-30-50z"/>
        <path class="fil2" d="M1498 1117c12-13 28-18 36-11 8 7 5 24-6 37-12 13-28 18-36 11-8-7-5-24 6-37z"/>
        <path class="fil2" d="M1530 1185c3-3 23-29 31-37 0 0 0-1 0-1 2-2 3-3 3-2 2 6-7 21-10 27 2-5 4-11 6-17-7 12-18 19-31 29z"/>
        <path class="fil3" d="M1530 1185c11-9 27-23 32-36 3-9 2 8-5 20 0 0-2 4-2 4"/>
      </g>
      <path class="fil3 str0" d="M1468 746a458 458 0 1 1 0 916 458 458 0 0 1 0-916z"/>
      <path class="fil4" d="M1390 1379l-32-134h-20l-33 134h22l5-26h31l5 26h22zm-31-45h-23l11-56 11 56zm153 45v-134h-21v115h-23v-115h-21v115h-23v-115h-21v134h109zm89-35h-21c0 5-1 10-3 13-2 3-5 5-10 5-5 0-8-2-10-5-4-6-5-20-5-44 0-24 1-38 5-44 2-3 5-5 10-5 5 0 8 2 10 5 2 3 3 8 3 13h21c0-12-4-22-11-28-6-6-13-9-23-9-12 0-20 5-26 11-9 11-10 25-10 57 0 32 1 46 10 57 5 7 14 11 26 11 10 0 17-3 23-8 7-6 11-17 11-29z"/>
    </g>
    <g id="right-blob">
      <circle class="fil1" cx="2073" cy="1212" r="472"/>
      <path class="fil7" d="M2066 856a355 355 0 1 1 0 710 355 355 0 0 1 0-710z"/>
      <g id="right-details">
        <path class="fil1" d="M1956 1177c3 0 4-4 5-6 9-16 13-17 21-28 2-2 3-3 5-5 18-19 21-21 38-37l19-16c17-14 63-49 80-58l-53-91c-2-4-6-10-7-13l-62 107c-10 18-21 36-31 54-5 9-28 48-31 54 4-2 4-4 8-7l30-26c3-2 5-4 8-6 14-10 71-49 86-54-25 16-49 35-71 55-2 2-3 2-5 4l-14 13c-11 9-60 58-62 62l35 0z"/>
        <path class="fil1" d="M2181 1127c-7-11-33-53-38-62-4-7 0-10 3-14l59-60c-4 2-8 6-13 8l-38 27c-10 8-27 20-36 29l-11 10c-4 4-8 7-11 11-13 15-17 17-29 35-13 19-22 42-12 65l157 0-30-50z"/>
        <path class="fil7" d="M2099 1124c12-13 28-18 37-11 8 7 5 24-7 38-12 13-28 18-37 11-8-7-5-24 7-38z"/>
        <path class="fil7" d="M2132 1193c3-3 23-29 32-37 0 0 0-1 0-1 2-2 3-3 3-2 2 6-7 22-10 27 2-5 4-11 6-17-7 12-18 19-31 29z"/>
        <path class="fil3" d="M2132 1193c11-9 28-23 32-37 3-9 2 8-5 20 0 0-2 4-2 4"/>
      </g>
      <path class="fil3 str2" d="M2069 749a462 462 0 1 1 0 924 462 462 0 0 1 0-924z"/>
      <path class="fil4" d="M1990 1389l-33-135h-21l-33 135h22l5-27h31l5 27h22zm-32-46h-23l12-56 12 56zm154 46v-135h-21v116h-23v-116h-21v116h-23v-116h-21v135h110zm90-36h-21c0 5-1 10-3 13-2 3-5 5-10 5-5 0-8-2-10-5-4-6-5-20-5-45 0-25 1-38 5-45 2-3 5-5 10-5 5 0 8 2 10 5 2 3 3 8 3 13h21c0-12-4-22-11-28-6-6-13-9-24-9-13 0-21 5-26 12-9 11-10 25-10 57 0 32 1 47 10 57 6 7 14 12 26 12 10 0 17-3 23-9 7-6 11-17 11-29z"/>
    </g>
  </g>
</svg>