<?xml version="1.0" encoding="UTF-8"?>
<!DOCTYPE svg PUBLIC "-//W3C//DTD SVG 1.1//EN" "http://www.w3.org/Graphics/SVG/1.1/DTD/svg11.dtd">
<!-- Creator: CorelDRAW -->
<svg xmlns="http://www.w3.org/2000/svg" xml:space="preserve" width="3508px" height="2480px" version="1.1" style="shape-rendering:geometricPrecision; text-rendering:geometricPrecision; image-rendering:optimizeQuality; fill-rule:evenodd; clip-rule:evenodd"
viewBox="0 0 3508 2480"
 xmlns:xlink="http://www.w3.org/1999/xlink"
 xmlns:xodm="http://www.corel.com/coreldraw/odm/2003">
 <defs>
  <style type="text/css">
   <![CDATA[
    .str0 {stroke:#38AA3D;stroke-width:25;stroke-miterlimit:22.9256}
    .fil3 {fill:none}
    .fil1 {fill:#FEFEFE}
    .fil2 {fill:#3AAA3D}
    .fil0 {fill:#1B9D3D}
    .fil4 {fill:#FEFEFE;fill-rule:nonzero}
    .fil6 {fill:#3D9237;fill-rule:nonzero}
    .fil5 {fill:#358D37;fill-rule:nonzero}
   ]]>
  </style>
 </defs>
 <g id="Слой_x0020_1">
  <metadata id="CorelCorpID_0Corel-Layer"/>
  <g id="_2050565867728">
   <g>
    <g>
     <g>
      <g>
       <path class="fil0" d="M1672 820c200,0 363,162 363,363 0,200 -162,363 -363,363 -200,0 -363,-162 -363,-363 0,-200 162,-363 363,-363z"/>
       <g>
        <path class="fil1" d="M1559 1148c3,0 4,-4 5,-6 10,-16 13,-17 22,-29 2,-2 3,-3 5,-5 18,-19 21,-21 39,-38l20 -16c17,-14 65,-50 82,-60l-54 -93c-2,-4 -6,-10 -7,-14l-64 110c-10,18 -21,36 -32,55 -5,9 -29,49 -31,55 4,-2 4,-4 8,-8l31 -27c3,-2 5,-4 8,-6 14,-11 73,-50 88,-55 -26,16 -50,36 -73,56 -2,2 -3,2 -5,4l-14 13c-11,9 -61,59 -64,63l36 0z"/>
        <path class="fil1" d="M1790 1097c-7,-12 -34,-54 -39,-64 -4,-8 0,-10 4,-14l60 -61c-4,2 -9,6 -13,8l-39 28c-10,8 -27,21 -37,30l-11 10c-4,4 -8,7 -12,11 -13,15 -17,17 -30,36 -14,20 -23,43 -13,66l160 0 -31 -51z"/>
        <path class="fil2" d="M1706 1094c12,-14 29,-19 37,-11 8,7 5,25 -7,38 -12,14 -29,19 -37,11 -8,-7 -5,-25 7,-38z"/>
        <g>
         <path class="fil2" d="M1739 1164c3,-3 24,-30 32,-38 0,0 0,0 0,-1 0,0 0,0 0,0 2,-2 3,-3 3,-2 2,6 -7,22 -10,28 2,-5 5,-11 6,-17 -7,13 -19,20 -32,29z"/>
        </g>
        <path class="fil3" d="M1739 1164c11,-9 28,-24 33,-37 3,-9 2,8 -5,20 0,0 -2,4 -2,5"/>
       </g>
      </g>
      <path class="fil3 str0" d="M1675 711c261,0 472,211 472,472 0,261 -211,472 -472,472 -261,0 -472,-211 -472,-472 0,-261 211,-472 472,-472z"/>
     </g>
     <path class="fil4" d="M1595 1364l-33 -138 -21 0 -34 138 23 0 5 -27 32 0 6 27 23 0zm-32 -47l-24 0 12 -58 12 58zm158 47l0 -138 -22 0 0 118 -24 0 0 -118 -22 0 0 118 -24 0 0 -118 -22 0 0 138 113 0zm92 -37l-22 0c0,5 -1,10 -3,14 -2,3 -5,5 -10,5 -5,0 -8,-2 -10,-5 -4,-7 -5,-21 -5,-46 0,-25 1,-39 5,-46 2,-3 5,-5 10,-5 5,0 8,2 10,5 2,3 3,8 3,13l22 0c0,-12 -4,-23 -11,-29 -6,-6 -14,-9 -24,-9 -13,0 -21,5 -27,12 -9,11 -10,26 -10,59 0,33 1,48 10,59 6,7 14,12 27,12 10,0 18,-3 24,-9 7,-6 11,-17 11,-29z"/>
    </g>
    <path class="fil3" d="M1670 809c206,0 373,168 373,376 0,208 -167,376 -373,376 -206,0 -373,-168 -373,-376 0,-208 167,-376 373,-376z"/>
    <path class="fil5" d="M1278 1134l1 -13c4,0 8,-1 10,-3 2,-2 4,-5 5,-9 1,-4 0,-8 -1,-10 -1,-2 -3,-4 -6,-4 -2,0 -3,0 -4,1 -1,1 -2,2 -4,4 -1,1 -2,5 -5,10 -3,7 -6,11 -9,14 -4,3 -9,5 -14,4 -3,-1 -6,-2 -9,-4 -3,-2 -4,-6 -5,-9 -1,-4 -1,-8 0,-13 1,-8 4,-14 9,-17 4,-3 10,-5 16,-4l-2 13c-4,0 -6,1 -8,2 -2,2 -3,4 -4,8 -1,4 0,7 1,9 1,2 2,3 4,3 2,0 3,0 4,-1 2,-1 4,-5 7,-11 3,-6 5,-11 7,-13 2,-3 5,-5 8,-6 3,-1 7,-1 11,-1 4,1 7,2 10,5 3,3 5,6 6,10 1,4 1,9 0,15 -1,8 -5,14 -9,18 -5,4 -11,5 -18,5zm35 -60l-63 -21 4 -13 63 21 -4 13zm5 -19l-22 -35 -38 6 6 -14 24 -4 -13 -20 6 -14 21 32 41 -7 -7 15 -27 4 15 23 -7 15zm24 -94l7 -11c4,2 7,3 11,2 3,-1 6,-3 8,-6 3,-3 4,-7 4,-9 0,-3 -1,-5 -3,-7 -1,-1 -3,-1 -4,-1 -1,0 -3,1 -5,2 -1,1 -4,3 -9,7 -6,5 -11,7 -15,8 -5,1 -10,0 -14,-3 -3,-2 -5,-5 -6,-8 -1,-3 -1,-7 0,-11 1,-4 3,-8 6,-12 5,-7 10,-10 16,-11 6,-1 11,0 16,4l-8 11c-3,-2 -6,-2 -8,-2 -2,1 -5,2 -7,5 -2,3 -4,6 -4,9 0,2 1,3 2,4 1,1 3,1 4,1 2,0 6,-3 11,-7 5,-4 9,-7 13,-8 3,-1 7,-2 10,-2 3,0 7,2 10,4 3,2 5,5 7,9 1,4 1,8 0,12 -1,4 -3,8 -7,13 -5,7 -11,10 -16,12 -6,1 -12,0 -18,-4zm58 -37l-49 -46 9 -10 49 46 -9 10zm27 -57l-7 -9 23 -18 17 21c0,4 -2,8 -5,13 -3,5 -6,9 -11,12 -5,4 -11,7 -17,8 -6,1 -12,0 -17,-3 -5,-3 -10,-7 -14,-12 -4,-5 -7,-11 -8,-17 -1,-6 0,-12 2,-18 2,-4 5,-9 10,-12 6,-5 13,-8 18,-8 6,0 11,2 16,6l-9 10c-3,-2 -6,-3 -9,-3 -3,0 -6,1 -9,4 -5,4 -7,8 -7,13 0,5 2,11 6,16 5,6 10,10 15,11 5,1 10,0 14,-4 2,-2 4,-4 6,-7 2,-3 3,-5 3,-8l-5 -7 -12 9zm49 -5l-31 -59 18 -9 31 35 -10 -46 18 -9 31 59 -11 6 -24 -47 13 53 -11 6 -36 -41 24 47 -11 6zm127 -49l-14 4 -10 -13 -26 7 -1 16 -14 4 6 -71 14 -4 44 57zm-31 -19l-16 -21 -2 26 17 -5zm91 -10l0 -11 29 -1 1 27c-3,3 -7,5 -12,8 -5,2 -11,3 -16,4 -7,0 -13,-1 -18,-4 -5,-3 -9,-7 -12,-12 -3,-5 -4,-11 -4,-18 0,-7 1,-13 4,-19 3,-5 7,-10 12,-13 4,-2 9,-4 16,-4 8,0 15,1 19,5 5,3 8,8 9,14l-13 3c-1,-3 -3,-6 -5,-8 -3,-2 -6,-3 -10,-3 -6,0 -10,2 -14,6 -3,4 -5,9 -5,17 0,8 2,14 6,18 4,4 8,6 14,6 3,0 6,-1 8,-2 3,-1 5,-3 7,-4l0 -8 -15 0zm42 25l12 -66 28 5c7,1 12,3 15,5 3,2 5,4 6,8 1,3 2,7 1,11 -1,5 -3,9 -7,11 -3,3 -8,4 -14,4 3,2 5,4 6,7 1,2 3,6 6,12l6 14 -16 -3 -7 -16c-2,-6 -4,-9 -5,-11 -1,-2 -2,-3 -3,-3 -1,-1 -4,-1 -7,-2l-3 0 -5 27 -13 -2zm20 -36l10 2c6,1 10,2 12,1 2,0 3,-1 4,-2 1,-1 2,-3 2,-5 0,-2 0,-4 -1,-6 -1,-2 -2,-3 -4,-3 -1,0 -4,-1 -10,-2l-10 -2 -3 17zm46 49l22 -63 46 16 -4 11 -34 -12 -5 14 31 11 -4 11 -31 -11 -6 17 35 12 -4 11 -48 -16zm58 21l34 -58 42 25 -6 10 -31 -18 -7 13 29 17 -6 10 -29 -17 -9 16 32 19 -6 10 -44 -25zm53 32l41 -52 10 8 -6 52 28 -35 10 8 -41 52 -11 -8 6 -51 -27 34 -10 -8zm121 21l16 21c3,4 5,7 7,10 1,2 2,5 2,7 0,2 0,5 -1,7 -1,3 -3,5 -5,6 -2,2 -5,3 -8,3 -3,0 -6,0 -9,-2 2,4 2,8 1,11 -1,3 -3,6 -6,9 -2,2 -5,3 -8,4 -3,1 -6,1 -9,0 -3,-1 -6,-3 -8,-5 -2,-2 -5,-6 -10,-12l-14 -18 53 -41zm-1 17l-12 9 5 7c3,4 5,7 6,8 2,2 3,3 5,3 2,0 4,0 5,-2 2,-1 3,-3 3,-4 0,-2 0,-3 -1,-5 -1,-1 -3,-4 -7,-9l-5 -6zm-21 16l-14 11 8 10c3,4 5,6 6,7 2,1 3,2 5,2 2,0 4,-1 6,-2 2,-1 3,-3 3,-4 1,-2 0,-3 0,-5 -1,-2 -3,-5 -7,-10l-7 -9zm8 61l60 -30 22 44 -10 5 -16 -32 -13 7 15 30 -10 5 -15 -30 -16 8 17 33 -10 5 -23 -45zm27 56l63 -21 4 13 -52 18 11 32 -11 4 -15 -44zm18 62l55 -10 -3 -19 11 -2 9 52 -11 2 -3 -19 -55 10 -2 -13z"/>
   </g>
   <path class="fil3" d="M1671 820c195,0 353,163 353,363 0,201 -158,363 -353,363 -195,0 -353,-163 -353,-363 0,-201 158,-363 353,-363z"/>
   <path class="fil6" d="M1351 1404l-5 -12c10,-4 19,0 26,11 4,6 6,12 5,17 -1,5 -3,9 -7,11 -3,2 -5,3 -9,2 -3,0 -6,-1 -10,-3 1,4 1,8 0,12 -1,3 -3,6 -7,8 -5,3 -10,4 -15,2 -5,-2 -10,-6 -15,-13 -4,-6 -6,-11 -6,-15 0,-5 2,-9 6,-14l10 8c-3,3 -4,6 -4,8 0,2 1,5 3,7 2,3 5,6 7,6 3,1 5,0 7,-1 2,-1 3,-4 4,-6 0,-3 -1,-6 -3,-9l-2 -2 8 -5 1 1c2,3 5,5 7,6 3,1 5,0 8,-1 2,-1 3,-3 4,-5 0,-2 0,-5 -2,-8 -3,-5 -7,-6 -13,-4zm-12 65l48 -45 33 35 -8 8 -24 -26 -11 10 22 24 -8 8 -22 -24 -13 12 25 26 -8 8 -34 -36zm86 -4l36 29 -41 51 -10 -8 34 -42 -15 -12 -17 22c-5,6 -9,10 -11,13 -2,2 -5,3 -8,3 -3,0 -6,-1 -9,-4 -1,-1 -3,-3 -6,-6l6 -8 2 2c2,2 4,3 5,3 1,0 3,-1 5,-3l7 -9 23 -29zm6 88l33 -56 42 24 -6 10 -30 -18 -7 13 28 16 -6 10 -28 -16 -9 15 31 18 -6 10 -43 -25zm53 31l24 -61 12 5 -10 24 24 10 10 -24 12 5 -24 61 -12 -5 11 -26 -24 -10 -11 26 -12 -5zm77 -39l13 3 -6 25 17 4c4,1 8,3 11,5 3,2 5,5 7,8 1,4 2,8 1,12 -1,4 -3,8 -6,10 -3,3 -6,4 -9,4 -3,0 -7,0 -12,-1l-30 -7 15 -63zm0 56l13 3c4,1 7,1 8,1 2,0 3,-1 5,-2 2,-1 3,-3 3,-5 1,-3 0,-5 -2,-7 -2,-2 -5,-3 -10,-5l-13 -3 -4 17zm60 -42l13 3 -15 63 -13 -3 15 -63zm14 1l12 0 -2 43 28 -42 13 0 -2 65 -12 0 2 -43 -28 42 -13 0 2 -65zm34 -18l6 0c0,4 -2,7 -5,9 -3,2 -6,3 -10,3 -4,0 -7,-1 -10,-4 -2,-2 -4,-6 -4,-10l6 0c0,2 1,4 2,5 1,1 3,2 6,2 2,0 4,0 6,-1 1,-1 2,-3 2,-5zm86 9l50 -14 18 63 -13 4 -15 -52 -24 7 15 52 -13 4 -18 -63zm64 14c-3,-6 -4,-12 -4,-16 0,-4 1,-7 2,-11 1,-3 3,-6 5,-9 3,-3 7,-6 12,-8 9,-4 17,-4 25,-1 8,3 14,9 18,19 4,10 5,18 2,26 -3,8 -8,14 -17,18 -9,4 -17,5 -25,2 -8,-3 -14,-9 -18,-19zm12 -6c3,7 7,11 12,13 5,2 9,2 14,0 5,-2 8,-6 9,-11 1,-5 1,-11 -2,-18 -3,-7 -7,-11 -11,-13 -5,-2 -9,-2 -14,0 -5,2 -8,6 -10,11 -1,5 -1,11 2,17zm98 -19l-16 -22 -2 2c-3,2 -5,5 -6,7 -1,2 -1,7 -1,14l1 17 -13 9 -1 -15c0,-6 0,-10 0,-13 0,-3 1,-6 2,-9 -5,3 -10,4 -14,3 -4,-1 -7,-3 -10,-7 -2,-3 -4,-7 -4,-10 0,-4 1,-7 3,-10 2,-3 6,-6 11,-10l22 -16 38 53 -11 8zm-32 -44l-8 6c-4,3 -7,5 -8,6 -1,1 -2,3 -2,4 0,2 0,4 2,5 1,2 3,3 5,3 2,0 3,0 5,-1 2,-1 5,-3 9,-6l8 -6 -10 -13zm66 -19l12 -6c4,7 5,13 4,18 -1,6 -4,11 -9,16 -6,6 -13,9 -22,8 -8,0 -16,-4 -23,-12 -8,-8 -11,-16 -12,-24 0,-8 3,-16 10,-22 6,-6 12,-8 19,-8 4,0 8,1 13,4l-7 11c-3,-2 -6,-3 -9,-2 -3,0 -6,2 -8,4 -3,3 -5,7 -5,12 0,5 3,10 8,15 6,6 11,9 15,10 5,0 9,-1 12,-4 3,-2 4,-5 4,-9 0,-3 -1,-7 -3,-11z"/>
  </g>
 </g>
</svg>
