<?xml version="1.0" encoding="UTF-8"?>
<!DOCTYPE svg PUBLIC "-//W3C//DTD SVG 1.1//EN" "http://www.w3.org/Graphics/SVG/1.1/DTD/svg11.dtd">
<!-- Creator: CorelDRAW -->
<svg xmlns="http://www.w3.org/2000/svg" xml:space="preserve" width="297mm" height="210mm" version="1.1" style="shape-rendering:geometricPrecision; text-rendering:geometricPrecision; image-rendering:optimizeQuality; fill-rule:evenodd; clip-rule:evenodd"
viewBox="0 0 29700 21000"
 xmlns:xlink="http://www.w3.org/1999/xlink"
 xmlns:xodm="http://www.corel.com/coreldraw/odm/2003">
 <defs>
  <style type="text/css">
   <![CDATA[
    .fil3 {fill:none}
    .fil2 {fill:#FEFEFE}
    .fil1 {fill:#35388A}
    .fil0 {fill:#D62718}
   ]]>
  </style>
 </defs>
 <g id="Слой_x0020_1">
  <metadata id="CorelCorpID_0Corel-Layer"/>
  <g id="_1680815961888">
   <path class="fil0" d="M1615.32 3828.9c33.53,0 41.28,-44.88 57.11,-71.06 111.22,-183.87 147.85,-197.73 253.15,-334.94 20.52,-26.75 34.99,-35.06 57.02,-58.16 211.41,-221.71 248.17,-245.22 452.72,-434.28l226.4 -188.16c200.9,-160.76 748.23,-572.92 947.94,-688.88l-624.43 -1078.85c-24.37,-43.3 -72.18,-113.03 -85.83,-156.59l-733.86 1264.97c-120.64,212.57 -243.98,418.94 -366.13,636.08 -60.24,107.08 -335.89,569.55 -361.54,638.75 41.49,-19.91 51.76,-46.79 93.37,-87.67l355.69 -309.35c32.35,-23.85 59.58,-46.7 92.68,-71.22 166.23,-123.19 839.56,-575.69 1013.65,-631.96 -296.74,184.29 -575.8,415.33 -838.2,643.23 -23.36,20.28 -35.22,24.23 -58.03,48.3l-160.72 147.53c-125.67,108.65 -706.25,680.69 -735.51,730.92l414.52 1.34z"/>
   <path class="fil1" d="M4278.96 3237.01c-82.43,-133.53 -389.42,-619.41 -449.39,-735.68 -45.53,-88.24 -1.55,-119.34 40.72,-160.91l690.35 -704.97c-50.09,27.72 -98.6,64.99 -150.9,97.53l-450.34 320.83c-118.66,93.78 -313.5,240.52 -424.53,346.38l-129.89 120.72c-47.42,42.76 -91.96,79.21 -133.47,126.94 -154.01,177.1 -194.74,201.36 -343.9,417.8 -156.71,227.41 -264.96,497.06 -144.43,761.46l1852.44 1.54 -356.66 -591.64z"/>
   <ellipse class="fil2" transform="matrix(0.849182 -0.960001 0.960001 0.849182 3482.88 3360.56)" rx="299.62" ry="184.38"/>
   <g>
    <path class="fil2" d="M3696.83 4016.13c35.88,-34.3 275.57,-347.28 372.56,-441.77 -0.29,-2.48 -0.61,-4.93 -0.99,-7.35 0.94,2.01 2,3.74 3.17,5.23 21.86,-21.01 36.01,-30.25 38.18,-21.56 17.81,71.41 -79.95,254.19 -115.66,323.58 21.75,-55.96 52.14,-128.75 67.29,-198.08 -78.14,147.12 -216.49,227.21 -364.55,339.95z"/>
   </g>
   <path class="fil3" d="M3696.83 4016.13c126.09,-105.45 325.34,-272.05 376,-430.64 33.01,-103.28 22.52,94.18 -54.62,235.87 -0.92,1.69 -23.21,50.28 -24.12,52.9"/>
  </g>
 </g>
</svg>
