<svg 
  xmlns="http://www.w3.org/2000/svg" 
  viewBox="0 0 1437 1218" 
  fill="currentColor" 
  aria-hidden="true"
  class="my-custom-icon"
>
  <path d="M874 690l43 3c15,-23 45,-44 51,-64 -3,-35 15,-25 23,-39l9 -15c16,-22 -15,-8 8,-12 -10,-6 8,-6 -20,-6 -27,7 -21,10 -63,10l-212 1c-82,0 -84,-7 -113,28 -21,26 -69,63 -58,84 10,19 128,12 163,12 56,0 115,0 171,-1z"/>
  <path d="M455 762c4,16 -16,21 11,49 72,-1 144,-2 216,-2 25,0 86,2 107,-3 30,-8 28,-42 63,-47 8,-1 4,0 12,-8 3,-4 11,-12 14,-16 13,-17 5,-27 -6,-40 -61,12 -341,-3 -363,5 -7,3 -26,24 -31,30 -6,7 -7,9 -14,16 -2,3 -5,5 -7,9 -5,8 -1,0 -3,7z"/>
  <path d="M836 890c-7,9 -5,8 -20,10l-295 2c-35,0 -73,6 -87,-24 -16,-32 8,-56 41,-58 92,-5 219,0 319,-3 21,-2 53,-46 60,-59 -36,5 -33,39 -63,47 -21,5 -82,3 -107,3 -72,0 -144,1 -216,2 -27,-28 -7,-33 -11,-49l-19 17c-22,26 -80,71 -30,136 34,43 139,28 205,28 46,0 193,4 227,-6 32,-9 49,-33 65,-52 14,-17 45,-46 55,-65 -35,-2 -31,30 -50,49 -9,9 -18,4 -18,4 -4,-9 -13,10 -4,-13 3,-8 20,-17 29,-30 9,-12 9,-23 25,-38l26 -20c5,-6 9,-7 15,-15 9,-11 9,-4 7,-23 -38,20 -119,148 -153,155z"/>
  <path d="M539 479c-3,11 -78,93 -90,104 -14,14 -21,27 -32,33l-26 30c-10,12 -22,22 -4,36 19,15 39,-13 60,-38l78 -88c35,-41 51,-67 97,-69 72,-3 148,-1 221,-1 77,0 174,-24 142,70 28,0 10,0 20,6 -23,4 8,-10 -8,12l-9 15c-8,14 -26,4 -23,39l27 -25c9,-10 14,-17 23,-27 17,-19 26,-42 16,-75 -17,-59 -73,-57 -139,-57l-290 2c-42,4 -40,18 -66,31z"/>
  <path d="M314 399l4 4c18,-40 124,-121 182,-147 66,-29 203,-65 282,-41 66,8 137,34 185,64 29,18 45,30 70,50 14,12 52,45 59,62 8,1 6,3 6,-7 -9,-5 -26,-27 -34,-36 -93,-97 -228,-154 -369,-149 -186,7 -313,104 -385,200z"/>
  <path d="M404 170l0 10c22,-8 39,-23 63,-31 79,-39 185,-60 287,-52 110,8 179,37 261,79l0 -10c-73,-46 -198,-83 -307,-81 -125,2 -215,35 -304,85z"/>
  <path d="M989 735c2,19 2,12 -7,23 -6,7 -10,9 -15,15l-26 20c-16,15 -16,25 -25,38 -10,13 -26,22 -29,30 -9,23 0,4 4,13 0,0 9,6 18,-4 19,-20 15,-51 50,-49 18,-7 33,-42 53,-51 13,-28 42,-30 31,-66 -21,-7 -33,-4 -50,23 -4,7 -1,0 -4,8z"/>
  <path d="M186 637c-41,-13 -34,0 -39,-16 8,-7 13,-6 26,-4 21,4 16,0 12,19zm-11 -68c0,-2 -2,-2 -3,-3 22,1 9,-8 13,9l-11 -6zm40 44c-3,-8 -3,-5 -6,-10 -28,-45 -1,-32 6,-49 -12,-9 -55,-5 -70,4 1,17 -7,4 9,15 10,8 34,16 40,29 -23,5 -35,-4 -56,-1 -11,35 -11,37 20,42 36,6 21,16 40,17 8,0 6,-1 11,-3 -7,-20 -12,1 -11,-24 0,-22 4,-14 16,-21z"/>
  <path d="M585 552c28,-19 48,-14 89,-13 49,1 294,10 306,-1 -6,-17 -63,-9 -98,-8 -73,1 -267,-7 -297,23z"/>
  <path d="M577 530c3,-25 153,-15 189,-15l207 -2c-7,-12 13,-10 -49,-9l-162 3c-60,1 -154,-11 -184,23z"/>
  <path d="M442 246c-13,-2 -13,2 -15,-15 17,-5 8,-5 18,2l-3 12zm23 -40c-7,-13 -10,-21 -22,-25 -8,11 6,25 12,40 -11,-5 -21,-7 -34,-1l-10 -10c-7,-5 1,-1 -7,-3l-5 1c-3,11 4,15 11,28 7,13 8,18 19,28 23,-7 30,-10 29,-36 15,17 8,12 20,13 2,-15 -6,-22 -13,-34z"/>
  <path d="M267 386c10,-14 1,-12 19,-9l-3 15 -16 -7zm-7 -13c-5,1 -7,3 -13,-2 5,-11 1,-9 14,-10l-1 12zm7 -26c-25,-1 -30,10 -36,28 7,8 36,28 49,35 18,-11 32,-35 8,-47 -21,-10 -3,1 -20,-16z"/>
  <path d="M674 185c14,-4 9,-2 17,-17 3,-6 8,-13 10,-18l4 35c12,-4 13,11 11,-33 -1,-15 1,-22 -5,-33 -16,2 -10,-2 -18,15l-12 19c-1,-48 -3,-32 -12,-34 -6,13 -4,54 4,66z"/>
  <path d="M946 204c5,-14 15,-24 7,-36 -15,5 -31,53 -31,59 16,4 27,-10 42,-18 -6,14 -13,19 -9,35 18,-2 33,-45 33,-57 -7,-3 11,-7 -13,-2l-29 19z"/>
  <path d="M1287 788c-4,-5 -6,-6 -11,-11l-14 -13c-1,-1 -2,-2 -2,-3l31 4 -1 -15c-37,-5 -50,-11 -64,-5 -3,13 18,21 29,33l-34 1c2,9 -8,6 11,12l37 6c26,-1 11,4 18,-9z"/>
  <path d="M470 169c-9,10 1,23 6,34 16,36 5,22 19,29 4,-5 3,-1 6,-8l5 -35c23,32 2,24 23,28 5,-11 -2,-22 -8,-34 -16,-37 -5,-25 -23,-28l-5 40 -12 -17c-6,-8 -2,-6 -11,-9z"/>
  <path d="M741 170c1,-22 18,-17 18,-3 -3,2 0,1 -10,3 -3,0 -5,0 -8,-1zm19 -32c-18,16 -16,0 -17,0 4,-3 2,-19 17,0zm-31 45c17,2 37,5 43,-9l1 -44c-12,-11 -18,-13 -40,-11 -4,14 -7,47 -4,64z"/>
  <path d="M1222 552c-9,-16 0,-11 0,-12 19,-1 16,7 8,17 -5,-2 -6,-1 -8,-5zm35 -4c-13,-6 -5,9 -12,-13l12 -3c5,14 5,6 0,17zm-52 -13c1,21 8,43 30,36l15 -8c22,-7 28,5 18,-45 -17,1 -50,9 -63,18z"/>
  <path d="M1137 269c6,13 15,21 24,32 9,11 16,15 26,28 13,17 36,45 44,68 0,0 1,-1 5,5l38 57c-9,-10 -18,-38 -24,-50 -16,-32 -72,-123 -105,-143 -2,7 7,10 -7,3z"/>
  <path d="M822 1127c36,-7 186,-1 230,2 -4,-15 2,-7 -8,-15l-175 3c-45,1 -47,-5 -47,10z"/>
  <path d="M1261 823c4,8 7,5 0,18l-13 -2c3,-13 3,-12 13,-16zm-52 9l-1 9c17,6 44,14 61,15l8 -16c1,-30 -18,-39 -35,-23 -3,-3 -23,-29 -25,-10 -2,13 12,12 19,28l-27 -2z"/>
  <path d="M151 788c17,-31 69,0 25,10 -18,4 -20,4 -25,-10zm-10 17c19,14 25,8 51,5 20,-19 19,-22 7,-46 -40,-6 -66,0 -57,41z"/>
  <path d="M1132 401c25,0 33,-18 52,-24l7 17c-15,6 -37,18 -42,31 12,8 18,-1 31,-10 12,-8 18,-12 27,-20 -3,-13 -13,-27 -22,-36 -14,2 -20,9 -32,17 -16,10 -20,7 -22,24z"/>
  <path d="M388 228c-15,-16 -13,-3 -14,-3 5,25 16,23 1,33 -25,-8 -1,-18 -28,-16 2,15 9,19 17,31 9,13 9,21 28,23 -2,-14 -5,-17 -11,-26 5,-6 6,-7 12,-11 7,9 11,16 22,18 3,-14 -17,-40 -27,-50z"/>
  <path d="M612 125c-5,6 -3,-1 -5,9l3 27c4,24 0,22 11,31 8,-6 2,3 6,-6 2,-6 0,-5 1,-8l2 -15c33,-1 2,10 25,24 10,-12 3,-56 -8,-67 -10,11 -5,7 -6,28l-14 1c-8,-15 2,-14 -12,-25z"/>
  <path d="M353 280c-8,-9 -11,-18 -27,-19 -5,32 22,4 4,37 -20,-8 -3,-3 -14,-10 -9,-5 3,-5 -16,-4 2,9 29,49 50,50 -3,-18 -5,-12 -14,-26l10 -11c19,9 7,16 27,14 1,-13 -10,-21 -19,-31z"/>
  <path d="M1218 578c-3,13 -1,21 17,21 15,0 25,-8 39,1 -2,7 5,9 -25,13 -1,0 -14,2 -14,2 -18,7 -6,-3 -11,10 14,9 47,0 63,-7l-3 -35c-20,-3 -24,1 -40,1 -31,0 -4,-8 -26,-7z"/>
  <path d="M252 301c2,5 -3,5 7,2 24,-26 41,-44 68,-67 12,-10 24,-19 38,-29 12,-8 30,-17 39,-28l0 -10c-48,24 -133,97 -152,131z"/>
  <path d="M1096 391c6,20 66,83 74,128 10,11 24,50 22,69 4,-3 9,2 1,-26l-31 -85c-2,-13 -19,-35 -26,-49 -6,-11 -7,-14 -14,-24l-21 -21c0,9 3,8 -6,7z"/>
  <path d="M1253 700c3,5 2,0 4,9 1,7 0,5 -2,12l-27 2c3,23 62,10 66,7 -7,-15 2,-4 -13,-9 -28,-11 -7,4 -15,-8 7,-22 -1,-6 15,-12 13,-4 8,3 13,-9 -12,-6 -23,-5 -38,-5 -34,-2 -26,3 -29,12l25 1z"/>
  <path d="M848 165l3 -17c17,5 16,1 12,16l-15 0zm-3 14c21,1 38,1 35,-25 -2,-19 -19,-21 -39,-21 -3,10 -6,22 -9,33 -10,36 -2,27 1,31 13,-10 5,-4 12,-19z"/>
  <path d="M313 321c-19,4 -24,20 -28,8 -4,-11 10,-9 8,-25 -16,1 -24,13 -27,27 11,12 30,31 46,39 15,-10 21,-15 24,-30 -23,-4 -23,18 -26,9 0,-1 -2,0 -3,-1 -3,-8 -2,-3 2,-13 2,-6 3,-5 5,-14z"/>
  <path d="M1211 494c5,-5 -9,-7 15,-5 -9,12 -2,10 -15,5zm-29 -14c7,24 7,-3 18,15 11,16 -3,10 -3,31 15,-2 19,-11 30,-20 11,-8 23,-13 23,-30 -13,-5 -57,-3 -68,4z"/>
  <path d="M1211 448c-13,-4 -5,2 -11,-10 9,-14 16,-4 17,-4 4,14 3,7 -5,15zm-40 2l15 -7c4,5 9,12 16,19 41,0 38,-33 14,-49 -10,2 -45,19 -54,30l10 6z"/>
  <path d="M173 517c2,-10 3,-10 7,-15 7,2 17,3 13,13 -4,11 -7,6 -20,3zm31 8c5,-55 -43,-49 -46,1 15,4 50,22 62,16 -3,-18 2,-5 -16,-17z"/>
  <path d="M1077 254c-1,-16 -15,-23 -28,-27 -10,8 -32,38 -36,48 9,13 15,18 34,23 -4,-15 -9,-18 -17,-24 3,-3 5,-6 8,-10 9,6 10,9 21,9 1,-13 -4,-10 -13,-22 1,-1 7,-6 8,-7l24 10z"/>
  <path d="M1226 640c0,17 -4,32 10,39l8 -27c12,5 3,-2 10,9 1,1 2,5 2,6 4,7 1,3 5,7l5 -9c0,-1 0,-2 1,-3 5,-15 -7,-5 7,-12 20,8 -3,16 17,24 7,-12 3,-24 1,-38l-65 3z"/>
  <path d="M800 142c12,-8 16,1 27,-8 -9,-11 -20,-10 -39,-10l-8 60c13,9 26,13 38,4 -6,-12 4,-3 -12,-9 -5,-2 -3,1 -12,-3 3,-24 3,-5 24,-13 -6,-20 -15,-1 -20,-21z"/>
  <path d="M239 567c-2,-29 45,-112 66,-141l13 -23 -4 -4c-1,1 -3,2 -3,2 -1,1 -2,1 -3,2 -18,14 11,-11 -5,4l-18 27c-18,28 -39,78 -48,110 -7,26 1,22 3,23z"/>
  <path d="M154 455c2,16 -5,7 4,13 18,-39 60,-115 88,-145 10,-10 7,-6 12,-19 -10,3 -5,3 -7,-2 -20,7 -7,-1 -17,14l-81 140z"/>
  <path d="M531 999c-45,9 -121,-8 -160,4l3 9 153 -2c5,-4 1,-2 4,-10z"/>
  <path d="M1015 176c8,9 20,14 32,22 12,8 19,13 31,23 21,16 40,32 58,49 14,6 5,4 7,-3 -20,-18 -34,-34 -58,-53 -15,-12 -51,-40 -71,-47l0 10z"/>
  <path d="M1142 347c2,-6 9,-17 10,-20 5,-20 0,-11 -3,-15 -11,5 -16,16 -27,41 -13,0 -11,-3 -21,2 4,9 2,12 18,13 9,0 47,-10 57,-21 -10,-11 -14,-4 -35,0z"/>
  <path d="M129 660c9,15 17,14 31,22 -19,6 -26,3 -31,21l10 1 40 -14c15,17 -3,7 18,13 -2,-26 -8,-24 -29,-33 -18,-8 -25,-15 -40,-9z"/>
  <path d="M549 139c1,18 15,30 24,41 -3,29 -10,-5 -6,24 34,-5 26,-68 23,-73 -10,3 -6,-7 -11,13 -1,4 -2,16 -2,21 -7,-10 -12,-23 -28,-25z"/>
  <path d="M196 463c3,-24 5,3 9,-27 -43,7 -22,61 33,55 7,-10 20,-25 3,-36l-9 22c-17,1 -25,-6 -36,-15z"/>
  <path d="M894 200c1,-18 5,-27 14,-36 14,4 11,7 23,9 5,-24 -34,-40 -49,10 -9,28 14,46 35,30 -10,-11 -19,-7 -20,-11 -1,-2 -2,-1 -3,-2z"/>
  <path d="M135 713c-2,11 -2,29 0,40 20,2 45,2 61,-5 4,-20 6,-27 -9,-37 -10,13 0,6 -2,26 -14,6 -22,6 -40,4l0 -24 -11 -3z"/>
  <path d="M1038 221c-7,-15 -22,-23 -40,-25 4,20 3,5 9,21 -9,9 -23,30 -23,44 14,1 12,-1 19,-14 22,-37 12,-15 34,-25z"/>
  <path d="M1119 289c-4,-19 -25,-32 -35,-32 0,13 0,7 6,19 -20,19 -30,26 -32,42 21,0 35,-23 40,-34 14,6 4,5 21,6z"/>
  <path d="M999 1053c11,23 1,18 0,20 -12,-20 0,-20 0,-20zm20 36l-8 -45 -17 0 -9 6c0,19 -8,24 -7,42 13,-5 17,-21 33,0 8,-4 2,0 7,-3z"/>
  <path d="M867 1038c5,23 3,10 -6,15 -5,-6 -7,8 -3,-9 3,-11 -2,-1 9,-6zm-14 -9l-1 3c-23,30 9,30 17,37l-20 7c10,9 10,7 25,4 8,-15 9,-33 1,-50l-22 -1z"/>
  <path d="M789 1046c0,12 1,1 -7,6 -5,-6 -3,0 -3,-9 -1,-18 -3,3 3,-5 4,2 7,-3 7,8zm-18 -17c-11,33 -1,30 8,34l11 5 -17 7c-1,0 -2,1 -3,2 28,22 39,-19 26,-46l-24 -1z"/>
  <path d="M225 387c-12,6 -22,25 -24,39l18 -6c0,-1 2,-1 3,-2 9,8 34,25 45,20 -3,-24 -13,-8 -38,-33l-4 -19z"/>
  <path d="M158 860c5,2 53,-3 61,-21 -15,-7 -32,4 -53,7 -9,-14 0,-16 -17,-20 -2,7 -2,8 0,16 2,9 0,4 3,10 6,13 0,1 6,8z"/>
  <path d="M566 1080l34 3c-6,-22 -1,-53 -33,-36 9,14 1,3 15,8l-17 7 0 18z"/>
  <path d="M679 1055c0,-7 -1,-2 4,-1 14,2 -1,-9 2,1 3,11 -6,3 -6,0zm-11 28c16,-1 16,1 28,-6 1,-5 1,-20 1,-28 -12,-8 -10,-5 -27,-6l-3 39z"/>
  <path d="M1019 1088c4,8 0,5 9,8 16,-8 25,-35 23,-52 -15,2 -5,2 -15,14 -9,-14 0,-7 -12,-14 -8,13 4,22 6,38l-11 6z"/>
  <path d="M462 1080c-3,-23 1,-9 4,-14 4,6 6,-10 4,14 15,-2 12,2 12,-17 0,-8 -1,-13 -4,-20 -11,4 -6,-8 -7,14 -13,-6 -7,-9 -18,-14 -4,7 -6,9 -5,20 1,26 0,15 14,17z"/>
  <path d="M508 1051c4,10 5,8 0,20 -15,-7 -10,-14 0,-20zm8 30l6 -5 0 -25c-25,-24 -40,4 -28,30l23 1z"/>
  <path d="M957 1053c13,21 2,17 0,19 -5,-6 -4,2 -5,-9 -2,-21 -1,-2 5,-10zm12 27l3 -34c-19,-3 -31,-7 -32,13 -2,23 9,25 30,21z"/>
  <path d="M539 1055c0,-13 6,-4 7,0 2,5 -8,10 -7,0zm-9 4l0 20 29 1 0 -34 -28 -2 -1 15z"/>
  <path d="M395 1071c-16,-7 -10,-14 1,-19 4,11 5,8 -1,19zm-18 5l5 4 23 1 4 -5 -1 -30 -30 -2 -1 31z"/>
  <path d="M605 1083c15,-8 9,9 11,-17 18,5 3,0 10,7 7,6 0,4 11,10l0 -39 -17 14c-9,-15 -6,-11 -13,-14l-1 40z"/>
  <path d="M835 1027c-18,4 -19,4 -27,15 17,9 11,-6 14,8 3,23 -9,23 11,31l2 -54z"/>
  <path d="M726 1037l3 9 14 -2 -1 37c21,-1 7,1 12,-6l0 -47 -28 9z"/>
  <path d="M416 1076c13,7 10,9 27,2 -3,-9 1,-1 -7,-6 -9,-6 -4,1 -10,-8 9,-26 7,2 18,-16 -12,-6 -13,-8 -26,1l-2 28z"/>
  <path d="M916 1082c7,-11 5,-10 6,-27 1,0 6,-2 7,-2 8,-5 1,1 7,-6l-23 -3c-3,9 -4,10 -4,20 1,25 3,13 7,18z"/>
  <path d="M466 149l4 10c18,2 22,2 23,-15 -25,-3 8,6 -27,5z"/>
  <path d="M1228 722l27 -2c1,-6 3,-4 2,-12 -1,-9 0,-3 -4,-9l0 17c-17,0 -15,-3 -26,5z"/>
</svg>