<?xml version="1.0" encoding="UTF-8"?>
<!DOCTYPE svg PUBLIC "-//W3C//DTD SVG 1.1//EN" "http://www.w3.org/Graphics/SVG/1.1/DTD/svg11.dtd">
<!-- Creator: CorelDRAW -->
<svg xmlns="http://www.w3.org/2000/svg" xml:space="preserve" width="1890px" height="1417px" version="1.1" style="shape-rendering:geometricPrecision; text-rendering:geometricPrecision; image-rendering:optimizeQuality; fill-rule:evenodd; clip-rule:evenodd"
viewBox="0 0 1890 1418"
 xmlns:xlink="http://www.w3.org/1999/xlink"
 xmlns:xodm="http://www.corel.com/coreldraw/odm/2003">
 <defs>
  <style type="text/css">
   <![CDATA[
    .str1 {stroke:#D5967E;stroke-width:17;stroke-miterlimit:22.9256}
    .str0 {stroke:#ED9E84;stroke-width:17;stroke-miterlimit:22.9256}
    .fil1 {fill:none}
    .fil5 {fill:#FEFEFE}
    .fil7 {fill:#211D21}
    .fil4 {fill:#35388A}
    .fil3 {fill:#D62718}
    .fil2 {fill:#D6957B;fill-rule:nonzero}
    .fil0 {fill:url(#id0)}
    .fil6 {fill:url(#id1)}
   ]]>
  </style>
  <linearGradient id="id0" gradientUnits="userSpaceOnUse" x1="427" y1="710" x2="1463" y2="710">
   <stop offset="0" style="stop-opacity:0.239216; stop-color:#FBCC9B"/>
   <stop offset="1" style="stop-opacity:1; stop-color:#FEFEFE"/>
  </linearGradient>
  <linearGradient id="id1" gradientUnits="userSpaceOnUse" x1="544" y1="709" x2="1341" y2="709">
   <stop offset="0" style="stop-opacity:0.368627; stop-color:#BBC274"/>
   <stop offset="0.780392" style="stop-opacity:0.262745; stop-color:#DCE0B9"/>
   <stop offset="1" style="stop-opacity:0.156863; stop-color:#FEFEFE"/>
  </linearGradient>
 </defs>
 <g id="Слой_x0020_1">
  <metadata id="CorelCorpID_0Corel-Layer"/>
  <g id="_2436435787584">
   <g>
    <circle class="fil0 str0" cx="945" cy="710" r="518"/>
    <ellipse class="fil1" cx="940" cy="709" rx="410" ry="417"/>
    <path class="fil2" d="M533 653l-72 -13 3 -15 60 11 6 -36 12 2 -9 51zm13 -61l-70 -23 17 -51 12 4 -12 37 16 5 12 -35 12 4 -12 35 19 6 13 -39 12 4 -18 53zm56 -121l-8 14 -18 -3 -14 25 12 14 -8 14 -51 -61 8 -14 79 11zm-39 9l-29 -5 19 22 10 -17zm43 -16l-56 -48 9 -11 57 9 -38 -32 9 -10 56 48 -10 11 -56 -9 37 32 -9 10zm69 -75l-43 -60 18 -13 40 33 -19 -49 18 -13 43 60 -11 8 -34 -47 23 56 -12 8 -46 -39 34 47 -11 8zm130 -76l-14 7 -13 -13 -27 12 2 18 -14 7 -5 -79 14 -7 58 55zm-37 -15l-21 -21 3 29 18 -8zm44 13l-17 -72 14 -3 41 41 -11 -48 13 -3 17 72 -14 3 -40 -41 11 47 -13 3zm66 -90l15 -1 3 40c1,6 1,10 2,12 1,3 3,5 5,7 3,2 6,2 10,2 4,0 7,-1 9,-3 2,-2 3,-4 3,-7 0,-3 0,-7 0,-13l-3 -41 15 -1 3 39c1,9 1,15 0,19 -1,4 -2,7 -4,10 -2,3 -5,5 -8,7 -3,2 -8,3 -14,3 -7,1 -12,0 -16,-1 -4,-1 -7,-3 -9,-6 -2,-2 -4,-5 -5,-8 -1,-4 -2,-10 -3,-19l-3 -39zm79 71l6 -74 50 4 -1 12 -35 -3 -1 18 30 2 -1 12 -30 -2 -2 31 -15 -1zm120 21l-16 -4 -2 -18 -28 -7 -10 15 -15 -4 45 -66 15 4 12 79zm-20 -35l-4 -29 -16 24 19 5zm80 34l11 10c-5,6 -11,10 -18,12 -6,1 -13,1 -20,-3 -9,-4 -15,-10 -18,-19 -3,-9 -2,-18 3,-29 5,-11 12,-19 21,-22 9,-4 17,-3 27,1 8,4 14,9 16,16 2,4 2,9 1,16l-15 -3c1,-4 0,-7 -1,-11 -2,-3 -4,-6 -8,-7 -5,-2 -10,-2 -14,0 -5,2 -9,7 -13,15 -4,8 -5,15 -4,20 1,5 4,9 9,11 4,2 7,2 11,1 4,-1 7,-4 11,-8zm26 47l36 -50 -18 -13 7 -10 47 34 -7 10 -17 -13 -36 50 -12 -9zm89 -26l11 10 -28 29c-4,5 -7,8 -8,9 -2,3 -2,5 -2,8 0,3 2,6 5,9 3,3 6,4 9,5 3,0 5,0 7,-2 2,-2 5,-4 9,-9l29 -29 11 10 -27 28c-6,6 -11,11 -14,13 -3,2 -6,3 -10,4 -3,0 -7,0 -10,-2 -4,-1 -7,-4 -12,-8 -5,-5 -8,-9 -10,-13 -1,-4 -2,-7 -2,-11 0,-3 1,-6 3,-9 2,-4 6,-9 12,-15l28 -28zm1 105l61 -42 18 25c4,6 7,11 8,15 1,4 1,7 -1,11 -2,4 -4,7 -8,9 -5,3 -9,5 -14,4 -5,-1 -9,-3 -14,-8 0,4 0,7 -1,10 -1,3 -2,8 -5,14l-7 16 -10 -14 7 -18c3,-6 4,-11 4,-13 0,-2 0,-4 0,-5 0,-2 -2,-4 -4,-7l-2 -2 -25 18 -8 -12zm44 -12l6 9c4,6 7,9 8,10 2,1 3,2 5,2 2,0 4,-1 5,-2 2,-1 3,-3 4,-5 1,-2 0,-4 -1,-6 -1,-1 -3,-4 -6,-9l-7 -9 -15 11zm-3 73l65 -36 7 13 -65 36 -7 -13zm15 25l69 -27 5 13 -35 46 46 -18 5 13 -69 27 -5 -14 35 -45 -45 18 -5 -13zm60 96l12 -3 7 31 -29 7c-4,-2 -7,-6 -11,-11 -4,-5 -6,-11 -7,-17 -2,-7 -2,-14 0,-21 2,-6 6,-11 11,-16 5,-4 11,-7 18,-9 8,-2 15,-2 21,0 7,2 12,5 17,11 3,4 6,9 7,16 2,9 2,16 -1,22 -3,6 -7,10 -13,13l-6 -14c3,-2 6,-4 7,-8 1,-3 2,-7 1,-11 -1,-6 -5,-11 -9,-14 -5,-3 -11,-3 -19,-1 -9,2 -15,5 -18,10 -3,5 -4,10 -3,16 1,3 2,6 4,9 2,3 4,5 6,7l9 -2 -4 -16z"/>
    <g>
     <ellipse class="fil1" cx="941" cy="710" rx="388" ry="399"/>
     <g>
      <path class="fil3" d="M823 1012c3,0 4,-4 5,-7 10,-17 14,-18 23,-31 2,-2 3,-3 5,-5 19,-20 23,-23 42,-40l21 -17c19,-15 69,-53 87,-63l-58 -99c-2,-4 -7,-10 -8,-14l-68 117c-11,20 -22,39 -34,59 -6,10 -31,52 -33,59 4,-2 5,-4 9,-8l33 -29c3,-2 6,-4 9,-7 15,-11 77,-53 93,-58 -27,17 -53,38 -77,59 -2,2 -3,2 -5,4l-15 14c-12,10 -65,63 -68,67l38 0z"/>
      <path class="fil4" d="M1069 957c-8,-12 -36,-57 -41,-68 -4,-8 0,-11 4,-15l64 -65c-5,3 -9,6 -14,9l-42 30c-11,9 -29,22 -39,32l-12 11c-4,4 -8,7 -12,12 -14,16 -18,19 -32,39 -14,21 -24,46 -13,70l171 0 -33 -55z"/>
      <ellipse class="fil5" transform="matrix(0.662552 -0.749016 0.749016 0.662552 995.294 968.694)" rx="35" ry="22"/>
      <g>
       <path class="fil5" d="M1015 1029c3,-3 25,-32 34,-41 0,0 0,0 0,-1 0,0 0,0 0,0 2,-2 3,-3 4,-2 2,7 -7,23 -11,30 2,-5 5,-12 6,-18 -7,14 -20,21 -34,31z"/>
      </g>
      <path class="fil1" d="M1015 1029c12,-10 30,-25 35,-40 3,-10 2,9 -5,22 0,0 -2,5 -2,5"/>
     </g>
     <circle class="fil6 str1" cx="942" cy="709" r="398"/>
     <path class="fil2" d="M538 663l-2 53 -12 0 1 -39 -17 -1 -1 19c0,5 -1,10 -2,13 -1,3 -4,6 -8,9 -4,2 -8,3 -12,3 -5,0 -9,-2 -12,-4 -3,-3 -6,-6 -7,-9 -1,-3 -2,-8 -1,-14l1 -34 72 2zm-60 13l0 14c0,4 0,8 0,9 0,2 1,3 3,5 1,1 3,2 6,2 3,0 6,-1 7,-3 2,-2 2,-6 3,-12l0 -15 -19 -1zm-13 57l71 -5 4 53 -12 1 -3 -38 -16 1 3 36 -12 1 -3 -36 -19 1 3 40 -12 1 -4 -54zm7 66l70 -15 5 23c2,9 3,14 3,17 0,4 -2,8 -5,12 -3,3 -7,6 -13,7 -4,1 -8,1 -11,0 -3,-1 -6,-2 -8,-4 -2,-2 -4,-4 -5,-7 -1,-3 -3,-8 -4,-14l-2 -9 -26 6 -3 -14zm61 2l-20 4 2 8c1,6 2,9 4,11 1,2 3,3 4,4 2,1 4,1 6,0 3,-1 5,-2 6,-4 1,-2 2,-4 2,-6 0,-2 -1,-5 -2,-10l-1 -7zm-46 63l67 -26 19 49 -11 4 -14 -36 -15 6 13 33 -11 4 -13 -33 -18 7 15 37 -11 4 -20 -51zm113 71l-26 16c1,2 3,3 5,3 2,0 6,0 12,-2 8,-2 13,-2 17,0 3,1 7,5 11,11 0,0 1,1 1,2l-9 6 -1 -2c-2,-2 -3,-4 -4,-5 -1,-1 -3,-1 -5,-1 -2,0 -5,1 -10,2 -3,1 -5,1 -7,1 -2,0 -4,-1 -7,-2 1,3 1,6 0,10 -1,3 -3,7 -6,12l-11 19 -9 -14 11 -17c0,0 0,-1 1,-2 0,0 1,-2 2,-3 2,-3 3,-6 3,-7 0,-2 0,-3 -1,-4l-26 17 -8 -12 26 -17c-1,-1 -2,-2 -3,-3 -1,-1 -4,-1 -8,0 -2,0 -3,0 -4,0 -1,0 -1,0 -2,0l-20 3 -9 -14 22 -2c5,-1 10,-1 13,0 4,0 7,2 9,4 0,-3 0,-5 1,-7 1,-2 2,-4 4,-6 3,-4 5,-7 6,-8 1,-2 1,-3 1,-5 0,-2 -1,-4 -3,-6 0,0 -1,-1 -1,-2l9 -6c1,1 1,2 1,2 4,6 6,11 5,14 0,4 -3,9 -7,15 -4,5 -6,8 -7,10 -1,2 0,4 1,6l26 -16 8 12zm24 35l32 39 -56 45 -9 -11 46 -38 -14 -17 -24 19c-7,6 -12,9 -15,11 -3,2 -6,2 -9,2 -3,-1 -6,-3 -9,-6 -1,-1 -3,-4 -5,-7l9 -7 2 3c2,2 4,4 5,4 1,0 3,-1 6,-3l10 -8 32 -26zm35 43l11 8 -30 37 52 -19 11 9 -45 56 -11 -8 29 -37 -52 18 -11 -9 45 -56zm47 39l25 14c5,3 8,5 11,7 2,2 4,4 5,6 1,2 2,5 2,8 0,3 -1,6 -2,8 -2,3 -4,5 -7,7 -3,2 -6,2 -10,2 3,3 5,7 5,11 0,4 0,8 -2,11 -2,3 -4,5 -7,7 -3,2 -6,3 -9,3 -3,0 -7,0 -10,-2 -2,-1 -7,-4 -15,-8l-21 -12 36 -62zm7 18l-8 14 8 5c5,3 8,5 9,5 2,1 4,1 6,1 2,-1 3,-2 5,-4 1,-2 1,-4 1,-6 0,-2 -2,-3 -3,-5 -1,-1 -5,-3 -11,-6l-7 -4zm-14 25l-10 17 12 7c4,3 7,4 9,5 2,1 4,1 6,0 2,-1 4,-2 5,-4 1,-2 2,-4 1,-6 0,-2 -1,-4 -2,-5 -1,-2 -5,-4 -11,-7l-10 -6zm42 21c3,-7 6,-12 10,-16 3,-3 6,-5 10,-7 4,-2 7,-2 11,-3 5,0 10,1 15,3 10,4 16,10 20,19 3,8 3,18 -2,29 -4,11 -11,18 -19,22 -8,4 -17,4 -27,0 -10,-4 -16,-10 -20,-19 -3,-8 -3,-18 1,-28zm14 5c-3,8 -4,14 -2,19 2,5 6,9 11,11 5,2 11,2 16,0 5,-2 9,-8 12,-15 3,-8 4,-14 2,-19 -2,-5 -5,-9 -11,-11 -6,-2 -11,-2 -16,0 -5,2 -9,7 -12,15zm48 57l16 -70 52 12 -3 12 -37 -9 -4 15 35 8 -3 12 -35 -8 -4 19 39 9 -3 12 -53 -13zm95 -53l57 2 -3 72 -15 -1 2 -59 -28 -1 -2 59 -15 -1 3 -72zm69 73l-9 -71 23 -3c9,-1 14,-1 17,-1 4,1 8,2 11,6 3,3 5,8 6,13 1,4 0,8 -1,11 -1,3 -3,6 -5,8 -2,2 -5,3 -7,4 -3,1 -8,2 -15,3l-9 1 3 27 -14 2zm7 -61l2 20 8 -1c6,-1 9,-2 11,-2 2,-1 3,-2 4,-4 1,-2 1,-4 1,-6 0,-3 -1,-5 -3,-6 -2,-2 -4,-2 -6,-2 -2,0 -5,0 -10,1l-7 1zm45 20c-2,-7 -3,-13 -2,-19 1,-4 2,-8 4,-11 2,-4 4,-6 7,-9 4,-3 9,-5 14,-7 10,-3 19,-2 27,3 8,5 13,13 17,24 3,11 3,21 -2,29 -4,8 -12,13 -22,16 -10,3 -19,2 -27,-3 -8,-5 -13,-12 -16,-23zm14 -4c2,8 6,13 10,16 5,3 10,4 15,2 6,-2 10,-5 12,-10 2,-5 3,-12 0,-20 -2,-8 -6,-13 -10,-16 -5,-3 -10,-4 -15,-2 -6,2 -10,5 -12,10 -2,5 -3,11 0,19zm43 -50l12 -6 20 43 7 -55 13 -6 30 65 -12 6 -19 -43 -7 55 -13 6 -30 -65zm75 -15l-14 5c-4,-11 0,-21 12,-29 7,-5 13,-6 19,-6 6,1 10,3 12,8 2,3 3,6 3,9 0,3 -1,7 -4,11 5,-1 9,-1 13,0 4,1 7,4 9,7 3,5 4,11 2,17 -2,6 -7,11 -14,16 -6,4 -12,6 -17,6 -5,0 -10,-2 -16,-7l9 -11c3,3 7,4 9,4 3,0 5,-1 8,-3 4,-2 6,-5 7,-8 1,-3 0,-5 -1,-7 -2,-2 -4,-4 -7,-4 -3,0 -6,1 -10,3l-3 2 -6 -9 1 -1c4,-2 6,-5 7,-8 1,-3 0,-6 -1,-9 -1,-2 -3,-4 -6,-4 -3,0 -5,0 -8,2 -5,3 -7,8 -5,14zm24 -37l21 -19c4,-4 7,-6 10,-8 2,-2 5,-2 8,-3 3,0 5,0 8,1 3,1 5,2 7,5 2,2 4,5 4,9 1,3 0,6 -1,10 4,-2 8,-3 12,-2 4,1 7,3 10,6 2,2 4,5 5,9 1,3 1,7 0,10 -1,3 -2,6 -5,9 -2,2 -6,6 -13,12l-18 16 -48 -53zm19 -1l11 12 7 -6c4,-4 7,-6 8,-7 2,-2 3,-4 3,-6 0,-2 -1,-4 -2,-6 -1,-2 -3,-3 -5,-3 -2,0 -4,0 -6,2 -1,1 -4,4 -9,8l-6 6zm19 21l13 14 10 -9c4,-4 6,-6 7,-7 1,-2 2,-4 2,-6 0,-2 -1,-4 -3,-6 -1,-2 -3,-3 -5,-3 -2,0 -4,0 -6,1 -2,1 -5,3 -10,8l-9 8zm34 -34c-6,-5 -10,-9 -12,-14 -2,-4 -3,-7 -3,-11 0,-4 0,-8 1,-11 1,-5 4,-9 8,-14 7,-8 15,-13 24,-13 9,-1 18,3 27,10 9,7 14,16 15,25 1,9 -2,18 -9,26 -7,8 -15,13 -24,13 -9,1 -18,-3 -27,-10zm9 -12c6,5 12,8 18,7 6,0 10,-3 14,-7 4,-4 5,-9 4,-15 -1,-6 -4,-11 -11,-16 -6,-5 -12,-8 -18,-8 -5,0 -10,3 -14,7 -4,5 -5,10 -5,15 1,5 4,11 11,16zm11 -69l26 -42 51 31 3 -5 24 14 -6 10 -13 -8 -23 38 13 8 -6 10 -24 -14 3 -5c-4,-6 -9,-11 -15,-16 -6,-5 -15,-11 -25,-17l-6 -4zm18 -6c19,11 31,21 37,30l14 -23 -40 -25 -11 18zm72 -66l10 -11c6,5 10,11 12,17 1,6 1,13 -2,20 -4,9 -10,15 -18,18 -8,3 -18,2 -28,-2 -11,-5 -18,-11 -22,-20 -4,-8 -3,-17 1,-26 4,-8 9,-13 16,-16 4,-2 9,-2 15,-1l-3 14c-4,-1 -7,0 -10,1 -3,2 -5,4 -7,8 -2,5 -2,10 0,14 2,5 7,9 15,12 8,4 15,5 20,3 5,-1 8,-5 10,-9 2,-4 2,-7 1,-11 -1,-4 -4,-7 -8,-10zm37 -27l-57 -16 -6 20 -12 -3 15 -55 12 3 -6 20 57 16 -4 14zm-57 -56l3 -28c1,-6 1,-10 2,-13 1,-3 2,-5 4,-7 2,-2 4,-4 7,-5 3,-1 6,-2 9,-1 3,0 6,2 9,4 3,2 4,5 5,8 2,-4 4,-7 8,-9 3,-2 7,-3 11,-2 3,0 6,1 9,3 3,2 5,4 7,7 2,3 2,6 2,10 0,2 -1,8 -2,17l-3 24 -71 -8zm13 -13l16 2 1 -9c1,-6 1,-9 1,-10 0,-2 -1,-5 -2,-6 -1,-2 -3,-2 -5,-3 -2,0 -4,0 -6,1 -2,1 -3,3 -3,5 0,1 -1,5 -2,12l-1 8zm28 3l19 2 2 -13c1,-5 1,-8 1,-10 0,-2 -1,-4 -2,-6 -1,-2 -3,-2 -6,-3 -2,0 -4,0 -6,1 -2,1 -3,2 -4,4 -1,2 -2,6 -2,13l-1 12zm4 -47c-7,0 -13,-1 -19,-3 -4,-1 -7,-4 -10,-6 -3,-3 -5,-6 -7,-9 -2,-4 -3,-10 -3,-15 0,-11 3,-19 9,-26 6,-7 15,-10 27,-10 12,0 21,2 27,9 7,6 10,14 11,25 0,11 -3,19 -9,26 -6,7 -15,10 -27,10zm-1 -15c8,0 14,-2 18,-6 4,-4 6,-9 6,-14 0,-6 -2,-10 -7,-14 -4,-4 -11,-5 -19,-5 -8,0 -14,2 -18,6 -4,4 -6,9 -6,15 0,6 2,11 7,14 4,4 10,5 19,5z"/>
    </g>
   </g>
  </g>
  <path class="fil7" d="M1017 530l-49 0c-8,0 -11,-2 -10,6 12,3 87,-2 96,1l0 26c-9,3 -60,-1 -75,1l0 6 75 0 0 26 -97 0 0 6 39 0c3,5 6,9 8,16l3 22 -51 0 0 5c4,2 53,1 57,1l159 0c5,0 10,1 13,-2 3,-5 -6,-9 -9,-11 -15,-11 -11,-11 -22,0 -5,5 -4,6 -13,6 -13,0 -25,0 -38,0 0,-3 10,-13 14,-18 2,-2 3,-3 5,-6l12 -1c2,-7 -7,-8 -10,-14 11,0 22,0 33,0 8,0 27,2 31,-2 0,-5 -19,-17 -22,-18 -5,3 -10,11 -14,13 -4,3 -21,1 -27,1 -18,0 -37,0 -55,0l0 -26c15,0 76,2 86,-1 0,-6 -4,-7 -8,-10 -3,-2 -7,-6 -11,-8l-13 13 -54 0 0 -26c21,-3 94,3 108,-2 0,-6 -5,-8 -9,-11 -14,-11 -10,-11 -22,0 -5,5 -4,6 -14,6 -13,0 -26,0 -39,0 1,-3 15,-19 16,-20 3,-3 5,-1 9,-3 -1,-3 -12,-8 -16,-9 -3,-1 -3,0 -3,0 -1,1 -13,28 -14,32l-54 0c0,-13 0,-16 -9,-23 -4,-3 -16,-11 -23,-11 0,4 0,2 2,4 4,3 6,5 9,10 2,4 7,15 8,19zm-241 93c4,0 4,-2 6,-4 13,-11 22,-26 32,-40 2,3 3,39 16,67l9 19c-5,9 -33,29 -43,35 -15,9 -24,13 -39,19 -3,1 -11,3 -12,7 7,6 50,-15 56,-18 26,-13 42,-31 45,-33 2,1 2,1 4,3l17 15c8,6 31,22 39,25 4,-4 5,-7 11,-9l5 -3c-1,-1 0,0 -1,-1 -2,-1 0,0 -2,-1 -2,-1 -3,-1 -5,-2l-27 -14c-12,-7 -29,-21 -32,-23 1,-4 10,-17 12,-22 4,-8 7,-15 11,-23 6,-14 10,-30 14,-45 1,-4 1,-5 3,-5 5,0 27,1 30,-1 3,-4 -5,-9 -7,-10 -3,-2 -8,-7 -11,-8 -4,3 -9,10 -12,11 -4,2 -65,1 -71,1 1,-5 9,-17 11,-24 3,-8 7,-18 10,-26l8 -1c2,-7 -3,-7 -8,-9 -4,-2 -9,-5 -13,-5 -2,3 -9,28 -11,34 -13,33 -18,46 -38,76 -2,3 -8,10 -8,14zm226 103l0 -12 121 0c0,7 -1,9 2,12 4,3 9,-3 12,-5l0 -46c4,-4 12,-2 -1,-12 -5,-4 -5,-5 -10,-6l-5 7c-7,1 -89,0 -103,0 -6,0 -11,1 -16,-1 -3,-2 -8,-5 -12,-5 0,3 -1,62 0,69 1,9 11,0 13,-2zm-240 -202l-63 0c-1,9 3,6 10,6 13,0 46,-1 55,0l0 54c-6,1 -45,1 -50,-1 -3,-1 -9,-5 -12,-4 -1,16 0,36 0,52 0,17 0,35 0,53 0,9 6,11 16,11l53 0c34,0 18,-13 17,-14 -3,-4 0,-28 -1,-34l-1 -3c-1,0 -2,0 -3,4 -3,12 -3,32 -13,35 -7,2 -47,2 -53,0 -1,-4 -1,-85 0,-91 7,0 45,-1 48,1 3,3 -3,25 12,12 2,-2 1,0 2,-3 0,-11 -1,-61 1,-67 4,-2 5,0 9,-3 -1,-6 -6,-8 -13,-12 -2,-1 -3,-3 -6,-3l-7 8zm241 184l118 0c2,0 0,0 2,-1 2,-3 1,-29 1,-35 -4,-1 -110,-1 -121,0 0,6 -1,31 0,36zm-156 -54c5,-3 16,-29 19,-37 5,-14 9,-30 11,-46l-56 0c-1,19 16,74 26,83zm171 -14c5,0 35,1 37,0 1,-1 1,-32 0,-37 -5,-1 -45,-1 -52,0 1,2 6,5 7,7 5,5 10,10 10,19 0,7 -2,8 -3,11zm80 -3l13 -33c0,-3 1,-2 -9,-2l-33 0 0 37 27 0 2 -2zm0 0l-2 2 -27 0 0 -37 33 0c9,0 8,-1 9,2 2,-1 2,2 1,-2 -4,-1 -40,-1 -43,0 -1,4 -1,34 0,38 4,1 24,1 28,0l1 -3z"/>
 </g>
</svg>
