<?xml version="1.0" encoding="UTF-8"?>
<!DOCTYPE svg PUBLIC "-//W3C//DTD SVG 1.1//EN" "http://www.w3.org/Graphics/SVG/1.1/DTD/svg11.dtd">
<!-- Creator: CorelDRAW -->
<svg xmlns="http://www.w3.org/2000/svg" xml:space="preserve" width="1065px" height="1062px" version="1.1" style="shape-rendering:geometricPrecision; text-rendering:geometricPrecision; image-rendering:optimizeQuality; fill-rule:evenodd; clip-rule:evenodd"
viewBox="0 0 1065 1062"
 xmlns:xlink="http://www.w3.org/1999/xlink"
 xmlns:xodm="http://www.corel.com/coreldraw/odm/2003">
 <defs>
  <style type="text/css">
   <![CDATA[
    .str0 {stroke:#004236;stroke-width:25;stroke-miterlimit:22.9256}
    .str1 {stroke:#2B2A29;stroke-width:2;stroke-miterlimit:22.9256}
    .fil2 {fill:none}
    .fil0 {fill:#FEFEFE}
    .fil1 {fill:#2B2A29}
    .fil3 {fill:#FEFEFE;fill-rule:nonzero}
    .fil4 {fill:#2B2A29;fill-rule:nonzero}
   ]]>
  </style>
 </defs>
 <g id="Слой_x0020_1">
  <metadata id="CorelCorpID_0Corel-Layer"/>
  <g id="_2664203369344">
   <g>
    <g>
     <g>
      <g>
       <circle class="fil0" cx="536" cy="532" r="529"/>
       <path class="fil1" d="M528 133c220,0 399,178 399,399 0,220 -178,399 -399,399 -220,0 -399,-178 -399,-399 0,-220 178,-399 399,-399z"/>
       <g>
        <path class="fil0" d="M404 493c3,0 4,-4 5,-7 11,-17 14,-19 24,-32 2,-3 3,-3 5,-6 20,-21 24,-23 43,-41l22 -18c19,-15 71,-54 90,-66l-59 -103c-2,-4 -7,-11 -8,-15l-70 120c-11,20 -23,40 -35,60 -6,10 -32,54 -34,61 4,-2 5,-4 9,-8l34 -29c3,-2 6,-4 9,-7 16,-12 80,-55 96,-60 -28,18 -55,40 -80,61 -2,2 -3,2 -6,5l-15 14c-12,10 -67,65 -70,70l39 0z"/>
        <path class="fil0" d="M658 437c-8,-13 -37,-59 -43,-70 -4,-8 0,-11 4,-15l66 -67c-5,3 -9,6 -14,9l-43 31c-11,9 -30,23 -40,33l-12 11c-5,4 -9,8 -13,12 -15,17 -19,19 -33,40 -15,22 -25,47 -14,72l176 0 -34 -56z"/>
        <path class="fil1" d="M565 434c13,-15 32,-21 41,-12 9,8 6,27 -7,42 -13,15 -32,21 -41,12 -9,-8 -6,-27 7,-42z"/>
        <g>
         <path class="fil1" d="M602 511c3,-3 26,-33 35,-42 0,0 0,0 0,-1 0,0 0,0 0,1 2,-2 3,-3 4,-2 2,7 -8,24 -11,31 2,-5 5,-12 6,-19 -7,14 -21,22 -35,32z"/>
        </g>
        <path class="fil2" d="M602 511c12,-10 31,-26 36,-41 3,-10 2,9 -5,22 0,0 -2,5 -2,5"/>
       </g>
      </g>
      <path class="fil2 str0" d="M531 13c286,0 519,232 519,519 0,286 -232,519 -519,519 -286,0 -519,-232 -519,-519 0,-286 232,-519 519,-519z"/>
     </g>
     <path class="fil3" d="M443 731l-37 -151 -23 0 -37 151 25 0 6 -30 35 0 6 30 25 0zm-36 -51l-26 0 13 -63 13 63zm173 51l0 -151 -24 0 0 130 -26 0 0 -130 -24 0 0 130 -26 0 0 -130 -24 0 0 151 124 0zm101 -40l-24 0c0,6 -1,11 -4,15 -2,3 -6,6 -11,6 -6,0 -9,-2 -11,-6 -5,-7 -5,-23 -5,-50 0,-28 1,-43 5,-50 2,-3 6,-6 11,-6 6,0 9,2 11,6 3,4 3,9 4,15l24 0c0,-13 -4,-25 -12,-32 -7,-6 -15,-10 -27,-10 -14,0 -23,6 -29,13 -10,12 -11,28 -11,64 0,36 1,53 11,64 6,7 15,13 29,13 11,0 19,-3 26,-10 8,-7 12,-19 13,-32z"/>
    </g>
    <path class="fil2" d="M526 121c227,0 410,185 410,413 0,228 -184,413 -410,413 -227,0 -410,-185 -410,-413 0,-228 184,-413 410,-413z"/>
    <path class="fil4" d="M94 474l2 -14c5,0 9,-1 12,-3 3,-2 5,-5 6,-10 1,-5 1,-8 -1,-11 -1,-3 -3,-4 -6,-5 -2,0 -3,0 -5,0 -1,1 -3,2 -4,4 -1,2 -3,5 -6,11 -4,7 -7,12 -11,14 -5,3 -10,5 -16,3 -4,-1 -7,-3 -10,-5 -3,-3 -4,-6 -5,-11 -1,-4 -1,-9 1,-15 2,-9 6,-15 11,-19 5,-4 11,-5 18,-3l-3 15c-4,0 -7,0 -9,2 -2,2 -4,4 -5,8 -1,4 -1,8 0,10 1,2 2,3 4,3 2,0 3,0 5,-1 2,-1 5,-5 8,-12 3,-7 6,-11 9,-14 3,-3 6,-5 9,-6 4,-1 8,-1 12,0 4,1 8,3 11,6 3,3 5,7 6,11 1,5 0,10 -1,16 -2,9 -6,15 -11,19 -5,4 -12,5 -20,4zm40 -64l-70 -23 5 -14 70 23 -5 14zm6 -21l-25 -39 -41 6 7 -16 26 -4 -14 -22 7 -16 23 35 45 -7 -7 16 -29 5 16 25 -7 16zm27 -103l8 -12c4,2 8,3 12,2 3,-1 6,-3 9,-6 3,-4 4,-7 4,-10 0,-3 -1,-6 -3,-7 -1,-1 -3,-2 -4,-2 -2,0 -3,1 -6,2 -2,1 -5,3 -10,7 -6,5 -12,8 -16,9 -6,1 -11,0 -16,-4 -3,-2 -5,-5 -6,-9 -1,-4 -1,-8 0,-12 1,-4 3,-8 7,-13 6,-7 11,-11 17,-12 6,-1 12,0 17,4l-9 12c-3,-2 -6,-2 -9,-2 -3,1 -5,3 -8,6 -3,3 -4,7 -4,9 0,2 1,3 2,5 1,1 3,1 5,1 2,0 6,-3 12,-8 6,-5 10,-8 14,-9 4,-2 7,-2 11,-2 4,0 7,2 11,5 3,3 6,6 7,10 1,4 2,8 0,13 -1,4 -4,9 -8,14 -6,7 -12,12 -18,13 -6,1 -13,0 -20,-5zm64 -40l-51 -53 11 -10 51 53 -11 10zm30 -63l-8 -10 25 -20 18 23c-1,4 -2,9 -6,15 -3,5 -7,10 -12,14 -6,5 -12,8 -19,9 -6,1 -13,0 -19,-3 -6,-3 -11,-7 -16,-13 -5,-6 -8,-12 -9,-19 -1,-7 0,-13 2,-19 2,-5 6,-9 11,-14 7,-6 14,-9 20,-9 6,0 12,2 18,6l-10 11c-3,-2 -6,-3 -10,-3 -4,0 -7,1 -10,4 -5,4 -8,9 -8,14 0,6 2,12 7,18 5,7 11,11 17,12 6,1 11,0 16,-4 2,-2 4,-4 6,-7 2,-3 3,-6 4,-8l-6 -7 -13 10zm54 -5l-34 -65 20 -10 35 38 -11 -50 20 -10 34 65 -12 6 -27 -51 14 58 -13 7 -39 -45 26 51 -12 6zm140 -54l-15 4 -11 -14 -28 8 -1 18 -15 4 7 -78 15 -4 48 63zm-34 -21l-17 -23 -2 29 19 -5zm65 -56l29 -1c6,0 10,0 13,0 3,0 5,1 8,3 2,1 4,3 6,6 2,3 2,5 2,9 0,3 -1,7 -3,10 -2,3 -4,5 -7,7 4,1 8,3 10,6 2,3 4,7 4,11 0,3 -1,7 -2,10 -1,3 -4,6 -6,8 -3,2 -6,3 -10,4 -2,0 -8,1 -18,1l-25 1 -2 -73zm15 12l0 17 10 0c6,0 9,0 11,-1 3,0 4,-1 6,-3 1,-1 2,-3 2,-6 0,-2 -1,-4 -2,-5 -1,-1 -3,-2 -6,-2 -1,0 -6,0 -13,0l-8 0zm1 29l1 20 14 0c5,0 9,0 10,-1 2,0 4,-1 5,-3 1,-2 2,-4 2,-6 0,-2 -1,-4 -2,-6 -1,-2 -3,-3 -5,-3 -2,-1 -6,-1 -13,-1l-12 0zm60 33l9 -72 15 2 -8 60 36 5 -2 12 -51 -7zm123 30l-15 -5 -1 -18 -28 -9 -11 14 -15 -5 50 -60 15 5 4 79zm-16 -36l-1 -29 -18 23 19 6zm77 37l11 10c-6,6 -12,10 -18,11 -6,1 -13,0 -20,-4 -9,-4 -14,-11 -17,-20 -2,-9 -1,-18 4,-29 6,-11 13,-18 21,-21 9,-3 18,-2 27,2 8,4 13,10 16,17 2,4 2,9 0,15l-15 -4c1,-4 1,-7 -1,-10 -1,-3 -4,-6 -7,-8 -5,-2 -10,-3 -14,-1 -5,2 -9,7 -13,15 -4,8 -6,15 -5,20 1,5 4,9 9,11 3,2 7,2 11,1 4,-1 7,-4 11,-8zm11 39l46 -58 12 9 -20 25 43 -7 16 12 -39 5 -5 53 -15 -12 6 -39 -17 2 -14 17 -12 -9zm134 22l18 23c4,5 6,8 7,11 1,3 2,5 2,8 0,3 0,5 -1,8 -1,3 -3,5 -5,7 -3,2 -6,3 -9,4 -3,0 -7,0 -10,-2 2,4 2,8 1,12 -1,4 -3,7 -7,10 -3,2 -6,3 -9,4 -3,1 -7,1 -10,0 -3,-1 -6,-3 -9,-6 -2,-2 -5,-6 -11,-14l-15 -20 58 -45zm-1 19l-13 10 6 8c4,5 6,7 7,8 2,2 4,3 6,3 2,0 4,0 6,-2 2,-1 3,-3 3,-5 0,-2 0,-4 -1,-6 -1,-1 -3,-5 -8,-10l-5 -7zm-23 18l-16 12 8 11c3,4 5,7 7,8 2,1 4,2 6,2 2,0 4,-1 6,-2 2,-1 3,-3 3,-5 1,-2 1,-4 0,-6 -1,-2 -3,-6 -7,-11l-7 -9zm10 67l65 -33 24 48 -11 6 -18 -35 -15 7 17 32 -11 6 -17 -32 -18 9 18 36 -11 6 -25 -49zm30 61l69 -23 5 14 -57 19 12 35 -12 4 -16 -49zm20 68l60 -11 -4 -21 12 -2 10 57 -12 2 -4 -21 -60 11 -3 -15z"/>
   </g>
   <path class="fil2 str1" d="M528 133c214,0 388,179 388,399 0,220 -174,399 -388,399 -214,0 -388,-179 -388,-399 0,-220 174,-399 388,-399z"/>
   <path class="fil4" d="M206 785l9 11 -13 11c-4,3 -7,6 -8,7 -1,1 -2,3 -1,6 0,2 2,5 4,8 2,2 4,4 6,6 2,1 4,2 6,3l24 -20 9 11 -56 45 -9 -11 22 -18c-3,-1 -5,-3 -8,-5 -2,-2 -4,-4 -6,-6 -5,-6 -7,-11 -7,-17 0,-6 3,-11 9,-17l19 -15zm-8 99l48 -54 40 35 -8 9 -29 -26 -11 12 27 24 -8 9 -27 -24 -13 14 30 27 -8 9 -41 -36zm51 43l40 -60 19 13c7,5 12,8 14,10 3,3 4,7 5,12 0,5 -1,9 -4,14 -2,4 -5,6 -8,8 -3,2 -6,2 -9,3 -3,0 -6,0 -8,-1 -3,-1 -8,-4 -13,-7l-8 -5 -15 22 -12 -8zm45 -41l-11 17 7 4c5,3 8,5 10,5 2,0 4,0 6,0 2,-1 3,-2 4,-4 1,-2 2,-4 2,-7 0,-2 -1,-4 -3,-6 -1,-1 -4,-3 -8,-6l-6 -4zm11 77l30 -65 13 6 -12 26 26 12 12 -26 13 6 -30 65 -13 -6 13 -28 -26 -12 -13 28 -13 -6zm82 -39l14 3 -7 28 19 4c5,1 9,3 12,5 3,2 6,5 7,9 2,4 2,8 1,13 -1,5 -3,8 -7,11 -3,3 -7,4 -10,5 -3,0 -8,0 -14,-1l-33 -8 16 -70zm0 61l14 3c4,1 7,2 9,2 2,0 4,-1 5,-2 2,-1 3,-3 3,-5 1,-3 0,-6 -2,-8 -2,-2 -6,-4 -11,-5l-14 -3 -4 18zm66 -46l14 3 -16 70 -14 -3 16 -70zm18 3l13 1 -4 48 33 -45 14 1 -6 71 -13 -1 4 -47 -33 45 -14 -1 6 -71zm39 -18l7 1c-1,4 -3,8 -5,10 -3,2 -7,3 -11,3 -4,0 -8,-2 -10,-5 -3,-3 -4,-6 -4,-11l7 1c0,2 1,4 2,5 1,1 3,2 6,2 3,0 5,0 6,-1 1,-1 2,-3 3,-5zm70 18l56 -11 14 70 -14 3 -11 -58 -27 5 11 58 -14 3 -14 -70zm68 25c-3,-7 -4,-13 -4,-18 0,-4 1,-8 2,-12 1,-4 4,-7 6,-10 3,-3 8,-6 13,-9 10,-4 19,-4 27,-1 8,4 15,11 19,22 4,11 5,20 2,29 -3,8 -10,15 -20,19 -10,4 -19,4 -27,1 -8,-4 -15,-11 -19,-21zm14 -6c3,8 7,12 12,15 5,2 10,3 16,0 5,-2 9,-6 11,-11 2,-5 1,-12 -2,-19 -3,-8 -7,-13 -12,-15 -5,-2 -10,-2 -16,0 -6,2 -9,6 -11,11 -2,5 -1,12 2,19zm110 -13l-16 -25 -2 2c-4,2 -6,5 -7,7 -1,2 -1,7 -2,15l-1 19 -15 9 0 -16c0,-7 0,-11 1,-14 1,-3 2,-6 3,-9 -6,3 -12,3 -16,2 -4,-2 -8,-4 -11,-9 -2,-4 -3,-8 -3,-12 0,-4 1,-7 4,-10 2,-3 7,-6 13,-10l26 -16 38 61 -12 8zm-31 -51l-10 6c-5,3 -8,5 -9,6 -1,1 -2,3 -3,5 0,2 0,4 1,6 1,2 3,4 5,4 2,1 4,1 6,0 2,-1 5,-3 10,-6l9 -6 -10 -15zm75 -14l14 -6c3,7 4,14 3,20 -1,6 -5,12 -11,17 -7,6 -15,9 -24,7 -9,-1 -17,-6 -24,-15 -8,-9 -11,-18 -11,-27 1,-9 5,-17 12,-23 7,-6 14,-8 21,-8 4,0 9,2 14,6l-9 12c-3,-2 -6,-3 -10,-3 -3,0 -7,1 -10,4 -4,3 -6,8 -6,13 0,5 2,11 8,17 6,7 11,11 16,12 5,1 9,0 13,-4 3,-2 5,-5 5,-9 1,-4 0,-8 -3,-13z"/>
  </g>
 </g>
</svg>
