<?xml version="1.0" encoding="UTF-8"?>
<!DOCTYPE svg PUBLIC "-//W3C//DTD SVG 1.1//EN" "http://www.w3.org/Graphics/SVG/1.1/DTD/svg11.dtd">
<svg 
  xmlns="http://www.w3.org/2000/svg" 
  xmlns:xlink="http://www.w3.org/1999/xlink"
  width="3508px" 
  height="2480px" 
  viewBox="0 0 3508 2480" 
  version="1.1"
  style="shape-rendering:geometricPrecision; text-rendering:geometricPrecision; image-rendering:optimizeQuality; fill-rule:evenodd; clip-rule:evenodd"
>
  <defs>
    <style type="text/css">
      <![CDATA[
        :root {
          /* Светлая тема (по умолчанию) */
          --bg-main:     #FEFEFE;
          --text-main:   #2B2A29;
          --stroke-dark: #004236;
          --stroke-thin: #2B2A29;
        }

        .dark {
          /* Тёмная тема */
          --bg-main:     #2B2A29;
          --text-main:   #FEFEFE;
          --stroke-dark: #70B8A0;     /* или другой светлый оттенок, если #004236 слишком тёмный */
          --stroke-thin: #D0D0D0;     /* или #FEFEFE / #E0E0E0 */
        }

        .fill-bg     { fill: var(--bg-main);    }
        .fill-text   { fill: var(--text-main);  }
        .stroke-dark { stroke: var(--stroke-dark); }
        .stroke-thin { stroke: var(--stroke-thin); }

        .str0 { stroke: var(--stroke-dark);  stroke-width:25;  stroke-miterlimit:22.9256; }
        .str1 { stroke: var(--stroke-thin);  stroke-width:2;   stroke-miterlimit:22.9256; }

        .fil0 { fill: var(--bg-main);    }
        .fil1 { fill: var(--text-main);  }
        .fil2 { fill: none;              }
        .fil3 { fill: var(--bg-main);    fill-rule:nonzero; }
        .fil4 { fill: var(--text-main);  fill-rule:nonzero; }
      ]]>
    </style>
  </defs>

  <g id="Слой_x0020_1">
    <metadata id="CorelCorpID_0Corel-Layer"/>
    <g id="_2664494690224">
      <g>
        <g>
          <g>
            <g>
              <circle class="fil0" cx="1700" cy="1184" r="472"/>
              <path class="fil1" d="M1694 828c196,0 355,159 355,355 0,196 -159,355 -355,355 -196,0 -355,-159 -355,-355 0,-196 159,-355 355,-355z"/>
              <g>
                <path class="fil0" d="M1583 1150c3,0 4,-4 5,-6 9,-16 13,-17 21,-28 2,-2 3,-3 5,-5 18,-19 21,-21 38,-37l19 -16c17,-14 63,-49 80,-58l-53 -91c-2,-4 -6,-10 -7,-13l-62 107c-10,18 -21,36 -31,54 -5,9 -28,48 -31,54 4,-2 4,-4 8,-7l30 -26c3,-2 5,-4 8,-6 14,-10 71,-49 86,-54 -25,16 -49,35 -71,55 -2,2 -3,2 -5,4l-14 13c-11,9 -60,58 -62,62l35 0z"/>
                <path class="fil0" d="M1809 1100c-7,-11 -33,-53 -38,-62 -4,-7 0,-10 3,-14l59 -60c-4,2 -8,6 -13,8l-38 27c-10,8 -27,20 -36,29l-11 10c-4,4 -8,7 -11,11 -13,15 -17,17 -29,35 -13,19 -22,42 -12,65l157 0 -30 -50z"/>
                <path class="fil1" d="M1726 1097c12,-13 28,-18 37,-11 8,7 5,24 -7,38 -12,13 -28,18 -37,11 -8,-7 -5,-24 7,-38z"/>
                <g>
                  <path class="fil1" d="M1759 1166c3,-3 23,-29 32,-37 0,0 0,0 0,-1 0,0 0,0 0,0 2,-2 3,-3 3,-2 2,6 -7,22 -10,27 2,-5 4,-11 6,-17 -7,12 -18,19 -31,29z"/>
                </g>
                <path class="fil2" d="M1759 1166c11,-9 28,-23 32,-37 3,-9 2,8 -5,20 0,0 -2,4 -2,4"/>
              </g>
            </g>
            <path class="fil2 str0" d="M1696 722c255,0 462,207 462,462 0,255 -207,462 -462,462 -255,0 -462,-207 -462,-462 0,-255 207,-462 462,-462z"/>
          </g>
          <path class="fil3" d="M1618 1361l-33 -135 -21 0 -33 135 22 0 5 -27 31 0 5 27 22 0zm-32 -46l-23 0 12 -56 12 56zm154 46l0 -135 -21 0 0 116 -23 0 0 -116 -21 0 0 116 -23 0 0 -116 -21 0 0 135 110 0zm90 -36l-21 0c0,5 -1,10 -3,13 -2,3 -5,5 -10,5 -5,0 -8,-2 -10,-5 -4,-6 -5,-20 -5,-45 0,-25 1,-38 5,-45 2,-3 5,-5 10,-5 5,0 8,2 10,5 2,3 3,8 3,13l21 0c0,-12 -4,-22 -11,-28 -6,-6 -13,-9 -24,-9 -13,0 -21,5 -26,12 -9,11 -10,25 -10,57 0,32 1,47 10,57 5,7 14,12 26,12 10,0 17,-3 23,-9 7,-6 11,-17 11,-29z"/>
        </g>
        <path class="fil2" d="M1691 818c202,0 366,165 366,369 0,204 -164,369 -366,369 -202,0 -366,-165 -366,-369 0,-204 164,-369 366,-369z"/>
        <path class="fil4" d="M1307 1132l2 -13c4,0 8,-1 10,-2 2,-2 4,-5 5,-9 1,-4 1,-7 -1,-10 -1,-2 -3,-4 -5,-5 -2,0 -3,0 -4,0 -1,1 -3,2 -4,4 -1,1 -3,5 -5,10 -3,6 -6,11 -10,13 -4,3 -9,4 -14,3 -3,-1 -6,-2 -9,-5 -2,-2 -4,-6 -5,-9 -1,-4 -1,-8 1,-13 2,-8 5,-13 9,-17 4,-3 10,-4 16,-3l-3 13c-3,0 -6,0 -8,2 -2,1 -3,4 -4,8 -1,4 -1,7 0,9 1,2 2,3 4,3 2,0 3,0 4,-1 2,-1 4,-5 7,-11 3,-6 5,-10 8,-13 2,-3 5,-4 8,-6 3,-1 7,-1 11,0 4,1 7,3 10,5 3,3 4,6 5,10 1,4 0,9 -1,14 -2,8 -5,14 -10,17 -5,3 -11,5 -18,4zm36 -57l-62 -21 4 -12 62 21 -4 12zm6 -18l-22 -34 -37 6 6 -14 23 -4 -13 -20 6 -14 20 31 40 -6 -6 14 -26 4 14 22 -6 14zm24 -92l7 -11c4,2 7,3 10,2 3,-1 6,-2 8,-6 3,-3 4,-6 4,-9 0,-3 -1,-5 -3,-6 -1,-1 -3,-1 -4,-1 -1,0 -3,1 -5,2 -1,1 -4,3 -9,6 -6,4 -10,7 -14,8 -5,1 -10,0 -14,-3 -3,-2 -5,-5 -6,-8 -1,-3 -1,-7 0,-10 1,-4 3,-8 6,-11 5,-6 10,-10 16,-11 5,-1 11,0 15,4l-8 11c-3,-2 -6,-2 -8,-2 -2,1 -5,2 -7,5 -2,3 -4,6 -4,8 0,2 1,3 2,4 1,1 3,1 4,1 2,0 6,-3 11,-7 5,-4 9,-7 12,-8 3,-1 6,-2 10,-2 3,0 7,2 10,4 3,2 5,5 6,9 1,4 1,7 0,11 -1,4 -3,8 -7,13 -5,6 -10,10 -16,11 -6,1 -12,0 -18,-4zm57 -36l-45 -47 9 -9 45 47 -9 9zm27 -56l-7 -9 22 -18 16 20c0,4 -2,8 -5,13 -3,5 -6,9 -11,12 -5,4 -11,7 -17,8 -6,1 -11,0 -17,-3 -5,-3 -10,-6 -14,-11 -4,-5 -7,-11 -8,-17 -1,-6 0,-12 2,-17 2,-4 5,-8 10,-12 6,-5 12,-8 18,-8 6,0 11,2 16,6l-9 10c-3,-2 -6,-3 -9,-3 -3,0 -6,1 -9,4 -4,4 -7,8 -7,13 0,5 2,10 6,16 5,6 10,10 15,11 5,1 10,0 14,-4 2,-2 4,-4 5,-6 2,-3 3,-5 3,-8l-5 -7 -12 9zm48 -4l-30 -58 18 -9 31 34 -10 -45 18 -9 30 58 -11 6 -24 -46 12 52 -11 6 -35 -40 24 46 -11 6zm125 -48l-14 4 -9 -13 -25 7 -1 16 -13 4 6 -70 13 -4 43 56zm-30 -18l-15 -21 -2 26 17 -5zm58 -50l26 -1c5,0 9,0 12,0 3,0 5,1 7,3 2,1 4,3 5,5 1,2 2,5 2,8 0,3 -1,6 -2,8 -2,3 -4,5 -7,6 4,1 7,3 9,6 2,3 3,6 3,10 0,3 -1,6 -2,9 -1,3 -3,5 -5,7 -2,2 -5,3 -9,3 -2,0 -7,1 -16,1l-22 1 -2 -65zm13 11l0 15 9 0c5,0 8,0 10,0 2,0 4,-1 5,-2 1,-1 2,-3 2,-5 0,-2 -1,-4 -2,-5 -1,-1 -3,-2 -5,-2 -1,0 -5,0 -11,0l-8 0zm1 26l0 18 12 0c5,0 8,0 9,-1 2,0 4,-1 5,-3 1,-1 2,-3 2,-6 0,-2 -1,-4 -2,-5 -1,-1 -2,-2 -4,-3 -2,-1 -6,-1 -12,-1l-11 0zm53 29l8 -64 13 2 -7 53 32 4 -1 11 -45 -6zm110 27l-13 -5 -1 -16 -25 -8 -10 12 -13 -4 45 -54 13 4 4 70zm-14 -32l-1 -26 -16 20 17 6zm69 33l9 9c-5,6 -10,9 -16,10 -6,1 -12,0 -18,-3 -8,-4 -13,-10 -15,-18 -2,-8 -1,-16 4,-25 5,-10 11,-16 19,-19 8,-3 16,-2 24,2 7,4 12,9 14,15 1,4 1,8 0,14l-13 -3c1,-3 1,-6 -1,-9 -1,-3 -3,-5 -7,-7 -4,-2 -9,-2 -13,-1 -4,2 -8,6 -12,13 -4,7 -5,13 -4,18 1,4 4,8 8,10 3,2 6,2 10,1 3,-1 6,-3 10,-7zm9 34l41 -51 10 8 -18 23 39 -6 14 11 -35 5 -5 47 -13 -11 5 -35 -15 2 -12 16 -10 -8zm119 20l16 20c3,4 5,7 7,9 1,2 2,5 2,7 0,2 0,5 -1,7 -1,2 -3,5 -5,6 -2,2 -5,3 -8,3 -3,0 -6,0 -9,-2 2,4 2,7 1,11 -1,3 -3,6 -6,9 -2,2 -5,3 -8,4 -3,1 -6,1 -9,0 -3,-1 -5,-3 -8,-5 -2,-2 -5,-6 -10,-12l-14 -17 52 -40zm0 17l-12 9 5 7c3,4 5,6 6,7 2,2 3,3 5,3 2,0 4,0 5,-2 2,-1 3,-3 3,-4 0,-2 0,-3 -1,-5 -1,-1 -3,-4 -7,-9l-5 -6zm-20 16l-14 11 7 10c3,4 5,6 6,7 1,1 3,2 5,2 2,0 4,-1 6,-2 2,-1 3,-3 3,-4 1,-2 0,-3 0,-5 -1,-2 -3,-5 -6,-10l-7 -8zm9 60l58 -30 22 43 -10 5 -16 -31 -13 7 15 29 -10 5 -15 -29 -16 8 16 32 -10 5 -22 -44zm27 55l62 -21 4 12 -51 17 10 31 -10 4 -15 -43zm18 60l54 -10 -3 -19 11 -2 9 51 -11 2 -3 -19 -54 9 -2 -13z"/>
      </g>
      <path class="fil2 str1" d="M1693 828c191,0 346,159 346,356 0,196 -155,356 -346,356 -191,0 -346,-159 -346,-356 0,-196 155,-356 346,-356z"/>
      <path class="fil4" d="M1406 1410l8 10 -12 10c-4,3 -6,5 -7,7 -1,1 -1,3 -1,5 0,2 1,5 4,7 2,2 4,4 5,5 2,1 4,2 6,3l21 -17 8 10 -50 40 -8 -10 20 -16c-3,-1 -5,-3 -7,-4 -2,-2 -4,-3 -5,-5 -4,-5 -6,-10 -7,-15 0,-5 2,-10 8,-15l17 -14zm-8 88l42 -48 35 31 -7 8 -26 -23 -9 11 24 21 -7 8 -24 -21 -12 13 27 24 -7 8 -36 -32zm45 39l35 -53 17 11c7,4 11,7 12,9 3,3 4,6 4,10 0,4 -1,8 -4,12 -2,3 -5,6 -7,7 -3,1 -5,2 -8,2 -3,0 -5,0 -7,-1 -3,-1 -7,-3 -12,-7l-7 -5 -13 20 -11 -7zm40 -37l-10 15 6 4c4,3 7,4 9,5 2,0 3,0 5,0 2,-1 3,-2 4,-3 1,-2 2,-4 2,-6 0,-2 -1,-4 -3,-5 -1,-1 -4,-3 -7,-5l-5 -3zm10 69l27 -58 12 5 -11 23 23 11 11 -23 12 5 -27 58 -12 -5 12 -25 -23 -11 -12 25 -12 -5zm74 -34l13 3 -6 25 17 4c4,1 8,3 11,4 3,2 5,5 6,8 1,4 2,7 1,11 -1,4 -3,8 -6,10 -3,3 -6,4 -9,4 -3,0 -7,0 -12,-1l-29 -7 15 -62zm0 55l12 3c4,1 7,1 8,1 2,0 3,-1 5,-2 2,-1 2,-3 3,-5 1,-3 0,-5 -1,-7 -2,-2 -5,-3 -10,-5l-13 -3 -4 16zm59 -41l13 3 -15 62 -13 -3 15 -62zm16 3l12 1 -3 42 29 -40 13 1 -5 64 -12 -1 3 -42 -29 40 -13 -1 5 -64zm34 -16l6 0c-1,4 -2,7 -5,9 -3,2 -6,3 -10,3 -4,0 -7,-2 -9,-4 -2,-2 -3,-6 -3,-10l6 0c0,2 1,4 2,5 1,1 3,2 5,2 2,0 4,0 6,-1 1,-1 2,-2 3,-4zm62 16l50 -10 12 63 -13 2 -10 -52 -24 5 10 52 -13 2 -12 -63zm60 22c-2,-6 -4,-11 -4,-16 0,-4 1,-7 2,-10 1,-3 3,-6 5,-8 3,-3 7,-6 12,-8 9,-4 17,-4 24,-1 7,3 13,10 17,19 4,10 4,18 2,26 -3,8 -9,13 -17,17 -9,4 -17,4 -24,1 -7,-3 -13,-10 -17,-19zm12 -5c3,7 6,11 11,13 5,2 9,2 14,0 5,-2 8,-5 10,-10 2,-5 1,-10 -2,-17 -3,-7 -6,-11 -11,-13 -4,-2 -9,-2 -14,0 -5,2 -8,5 -10,10 -2,5 -1,10 2,17zm98 -12l-14 -23 -2 1c-3,2 -6,4 -6,6 -1,2 -1,7 -2,14l-1 17 -13 8 0 -15c0,-6 0,-10 1,-13 1,-3 2,-5 3,-8 -6,2 -10,3 -14,1 -4,-1 -7,-4 -9,-8 -2,-3 -3,-7 -3,-10 0,-4 1,-7 3,-9 2,-3 6,-6 11,-9l23 -14 34 54 -11 7zm-28 -45l-9 5c-4,3 -7,5 -8,6 -1,1 -2,2 -2,4 0,2 0,4 1,5 1,2 3,3 4,4 2,1 3,0 5,0 2,-1 5,-2 9,-5l8 -5 -9 -14zm67 -12l12 -5c3,7 4,13 3,18 -1,5 -5,10 -10,15 -7,5 -14,8 -22,7 -8,-1 -15,-5 -21,-13 -7,-8 -10,-16 -9,-24 1,-8 4,-15 11,-21 6,-5 12,-7 19,-7 4,0 8,2 13,5l-8 10c-3,-2 -6,-3 -9,-3 -3,0 -6,1 -9,3 -4,3 -6,7 -6,11 0,4 2,10 7,16 5,6 10,10 14,11 4,1 8,0 12,-3 3,-2 4,-5 5,-8 1,-3 0,-7 -2,-11z"/>
    </g>
  </g>
</svg>