<?xml version="1.0" encoding="UTF-8"?>
<!DOCTYPE svg PUBLIC "-//W3C//DTD SVG 1.1//EN" "http://www.w3.org/Graphics/SVG/1.1/DTD/svg11.dtd">
<!-- Creator: CorelDRAW -->
<svg xmlns="http://www.w3.org/2000/svg" xml:space="preserve" width="3508px" height="2480px" version="1.1" style="shape-rendering:geometricPrecision; text-rendering:geometricPrecision; image-rendering:optimizeQuality; fill-rule:evenodd; clip-rule:evenodd"
viewBox="0 0 3508 2480"
 xmlns:xlink="http://www.w3.org/1999/xlink"
 xmlns:xodm="http://www.corel.com/coreldraw/odm/2003">
 <defs>
  <style type="text/css">
   <![CDATA[
    .str0 {stroke:#38AA3D;stroke-width:25;stroke-miterlimit:22.9256}
    .str2 {stroke:#004236;stroke-width:25;stroke-miterlimit:22.9256}
    .str1 {stroke:#2B2A29;stroke-width:2;stroke-miterlimit:22.9256}
    .fil3 {fill:none}
    .fil1 {fill:#FEFEFE}
    .fil7 {fill:#2B2A29}
    .fil2 {fill:#3AAA3D}
    .fil0 {fill:#1B9D3D}
    .fil4 {fill:#FEFEFE;fill-rule:nonzero}
    .fil8 {fill:#2B2A29;fill-rule:nonzero}
    .fil6 {fill:#3D9237;fill-rule:nonzero}
    .fil5 {fill:#358D37;fill-rule:nonzero}
   ]]>
  </style>
 </defs>
 <g id="Слой_x0020_1">
  <metadata id="CorelCorpID_0Corel-Layer"/>
  <g id="_2299231549344">
   <g>
    <g>
     <g>
      <path class="fil0" d="M1465 851c194,0 352,157 352,352 0,194 -157,352 -352,352 -194,0 -352,-157 -352,-352 0,-194 157,-352 352,-352z"/>
      <g>
       <path class="fil1" d="M1356 1169c3,0 3,-4 5,-6 9,-15 12,-17 21,-28 2,-2 3,-3 5,-5 18,-19 21,-21 38,-36l19 -16c17,-13 63,-48 80,-58l-52 -91c-2,-4 -6,-9 -7,-13l-62 106c-10,18 -20,35 -31,53 -5,9 -28,48 -30,54 3,-2 4,-4 8,-7l30 -26c3,-2 5,-4 8,-6 14,-10 70,-48 85,-53 -25,15 -48,35 -70,54 -2,2 -3,2 -5,4l-13 12c-11,9 -59,57 -62,61l35 0z"/>
       <path class="fil1" d="M1579 1120c-7,-11 -33,-52 -38,-62 -4,-7 0,-10 3,-14l58 -59c-4,2 -8,5 -13,8l-38 27c-10,8 -26,20 -36,29l-11 10c-4,4 -8,7 -11,11 -13,15 -16,17 -29,35 -13,19 -22,42 -12,64l155 0 -30 -50z"/>
       <path class="fil2" d="M1498 1117c12,-13 28,-18 36,-11 8,7 5,24 -6,37 -12,13 -28,18 -36,11 -8,-7 -5,-24 6,-37z"/>
       <g>
        <path class="fil2" d="M1530 1185c3,-3 23,-29 31,-37 0,0 0,0 0,-1 0,0 0,0 0,0 2,-2 3,-3 3,-2 2,6 -7,21 -10,27 2,-5 4,-11 6,-17 -7,12 -18,19 -31,29z"/>
       </g>
       <path class="fil3" d="M1530 1185c11,-9 27,-23 32,-36 3,-9 2,8 -5,20 0,0 -2,4 -2,4"/>
      </g>
     </g>
     <path class="fil3 str0" d="M1468 746c253,0 458,205 458,458 0,253 -205,458 -458,458 -253,0 -458,-205 -458,-458 0,-253 205,-458 458,-458z"/>
    </g>
    <path class="fil4" d="M1390 1379l-32 -134 -20 0 -33 134 22 0 5 -26 31 0 5 26 22 0zm-31 -45l-23 0 11 -56 11 56zm153 45l0 -134 -21 0 0 115 -23 0 0 -115 -21 0 0 115 -23 0 0 -115 -21 0 0 134 109 0zm89 -35l-21 0c0,5 -1,10 -3,13 -2,3 -5,5 -10,5 -5,0 -8,-2 -10,-5 -4,-6 -5,-20 -5,-44 0,-24 1,-38 5,-44 2,-3 5,-5 10,-5 5,0 8,2 10,5 2,3 3,8 3,13l21 0c0,-12 -4,-22 -11,-28 -6,-6 -13,-9 -23,-9 -12,0 -20,5 -26,11 -9,11 -10,25 -10,57 0,32 1,46 10,57 5,7 14,11 26,11 10,0 17,-3 23,-8 7,-6 11,-17 11,-29z"/>
    <path class="fil3" d="M1463 841c200,0 362,163 362,365 0,201 -162,365 -362,365 -200,0 -362,-163 -362,-365 0,-201 162,-365 362,-365z"/>
    <path class="fil5" d="M1083 1156l1 -13c4,0 8,-1 10,-3 2,-2 4,-5 5,-9 1,-4 0,-7 -1,-10 -1,-2 -3,-4 -6,-4 -2,0 -3,0 -4,1 -1,1 -2,2 -4,4 -1,1 -2,5 -5,10 -3,7 -6,11 -9,13 -4,3 -9,4 -14,4 -3,-1 -6,-2 -9,-4 -3,-2 -4,-5 -5,-9 -1,-4 -1,-8 0,-13 1,-8 4,-14 8,-17 4,-3 9,-5 15,-4l-2 13c-3,0 -6,1 -8,2 -2,2 -3,4 -4,8 -1,4 0,7 1,9 1,2 2,2 4,3 2,0 3,0 4,-1 2,-1 4,-5 6,-11 3,-6 5,-10 7,-13 2,-3 5,-5 8,-6 3,-1 7,-1 11,-1 4,1 7,2 10,5 3,3 5,6 6,10 1,4 1,9 0,14 -1,8 -4,14 -9,17 -4,4 -10,5 -18,5zm34 -58l-61 -21 4 -12 61 21 -4 12zm5 -18l-22 -34 -37 6 6 -14 23 -4 -12 -19 6 -14 20 31 40 -6 -6 14 -26 4 14 22 -6 14zm23 -91l7 -11c4,2 7,3 10,2 3,-1 6,-2 8,-6 3,-3 4,-6 4,-9 0,-3 -1,-5 -3,-6 -1,-1 -3,-1 -4,-1 -1,0 -3,1 -5,2 -1,1 -4,3 -9,6 -6,4 -10,7 -14,8 -5,1 -10,0 -14,-3 -3,-2 -4,-5 -6,-8 -1,-3 -1,-7 0,-10 1,-4 3,-7 6,-11 5,-6 10,-10 15,-11 5,-1 10,0 15,4l-8 11c-3,-2 -6,-2 -8,-2 -2,1 -5,2 -7,5 -2,3 -3,6 -4,8 0,2 1,3 2,4 1,1 3,1 4,1 2,0 6,-3 11,-7 5,-4 9,-7 12,-8 3,-1 6,-2 10,-2 3,0 6,2 10,4 3,2 5,5 6,9 1,4 1,7 0,11 -1,4 -3,8 -7,12 -5,6 -10,10 -16,11 -6,1 -12,0 -18,-4zm57 -36l-47 -45 9 -9 47 45 -9 9zm26 -56l-7 -9 22 -17 16 20c0,4 -2,8 -5,13 -3,5 -6,9 -10,12 -5,4 -11,7 -16,8 -6,1 -11,0 -16,-3 -5,-3 -10,-6 -14,-11 -4,-5 -7,-11 -8,-17 -1,-6 0,-12 2,-17 2,-4 5,-8 10,-12 6,-5 12,-8 18,-8 6,0 11,2 15,6l-9 10c-3,-2 -6,-3 -9,-3 -3,0 -6,1 -9,4 -4,4 -7,8 -7,13 0,5 2,10 6,16 5,6 10,10 15,10 5,1 10,0 14,-4 2,-2 4,-4 5,-6 1,-3 3,-5 3,-7l-5 -6 -12 9zm47 -5l-30 -58 17 -9 31 34 -10 -44 17 -9 30 58 -11 6 -23 -45 12 51 -11 6 -35 -40 23 45 -11 6zm124 -48l-13 4 -9 -13 -25 7 -1 16 -13 4 6 -69 13 -4 43 55zm-30 -18l-15 -21 -2 25 17 -5zm88 -9l0 -11 28 -1 1 26c-3,3 -7,5 -12,7 -5,2 -10,3 -16,3 -7,0 -13,-1 -18,-4 -5,-3 -9,-7 -12,-12 -3,-5 -4,-11 -4,-17 0,-7 1,-13 4,-18 3,-5 7,-9 12,-12 4,-2 9,-3 15,-4 8,0 14,1 19,5 5,3 8,8 9,14l-13 3c-1,-3 -3,-6 -5,-7 -3,-2 -6,-3 -9,-3 -6,0 -10,2 -13,6 -3,4 -5,9 -5,16 0,8 2,13 6,17 3,4 8,6 13,5 3,0 5,-1 8,-2 3,-1 5,-3 7,-4l0 -8 -15 0zm41 24l11 -64 27 5c7,1 12,3 14,4 3,2 5,4 6,7 1,3 2,7 1,11 -1,5 -3,8 -6,11 -3,3 -8,4 -14,4 2,2 4,4 6,7 1,2 3,6 5,12l5 14 -15 -3 -7 -16c-2,-6 -4,-9 -5,-11 -1,-2 -2,-3 -3,-3 -1,-1 -3,-1 -6,-2l-3 0 -5 27 -13 -2zm19 -34l9 2c6,1 10,2 12,1 2,0 3,-1 4,-2 1,-1 2,-3 2,-5 0,-2 0,-4 -1,-6 -1,-2 -2,-3 -4,-3 -1,0 -4,-1 -9,-2l-10 -2 -3 16zm44 47l21 -61 45 15 -4 10 -33 -11 -5 14 30 10 -4 10 -30 -10 -6 17 34 12 -4 10 -46 -16zm56 20l32 -56 41 24 -5 9 -30 -17 -7 12 28 16 -5 9 -28 -16 -9 15 31 18 -5 9 -42 -24zm52 31l40 -51 10 8 -6 50 27 -34 9 7 -40 51 -10 -8 6 -50 -26 33 -9 -7zm118 20l16 20c3,4 5,7 7,9 1,2 2,5 2,7 0,2 0,5 -1,7 -1,2 -3,4 -5,6 -2,2 -5,3 -8,3 -3,0 -6,0 -9,-2 1,4 2,7 1,11 -1,3 -3,6 -6,9 -2,2 -5,3 -8,4 -3,1 -6,1 -9,0 -3,-1 -5,-3 -8,-5 -2,-2 -5,-6 -10,-12l-13 -17 51 -40zm0 17l-12 9 5 7c3,4 5,6 6,7 2,2 3,3 5,3 2,0 4,0 5,-2 2,-1 3,-3 3,-4 0,-2 0,-3 -1,-5 -1,-1 -3,-4 -7,-9l-5 -6zm-20 16l-14 11 7 9c3,4 5,6 6,7 1,1 3,2 5,2 2,0 4,-1 5,-2 2,-1 3,-3 3,-4 1,-2 0,-3 0,-5 -1,-2 -3,-5 -6,-10l-6 -8zm8 59l58 -29 22 42 -10 5 -16 -31 -13 7 15 29 -10 5 -15 -29 -16 8 16 32 -10 5 -22 -44zm26 54l61 -20 4 12 -51 17 10 31 -10 3 -14 -43zm17 60l53 -9 -3 -19 11 -2 9 50 -11 2 -3 -19 -53 9 -2 -13z"/>
   </g>
   <path class="fil3 str1" d="M1465 851c189,0 342,158 342,352 0,194 -153,352 -342,352 -189,0 -342,-158 -342,-352 0,-194 153,-352 342,-352z"/>
   <path class="fil6" d="M1154 1417l-4 -12c10,-3 19,0 25,10 4,6 6,12 5,17 -1,5 -3,9 -6,11 -3,2 -5,2 -8,2 -3,0 -6,-1 -10,-3 1,4 1,8 0,11 -1,3 -3,6 -6,8 -5,3 -10,4 -15,2 -5,-1 -10,-6 -14,-12 -4,-6 -6,-10 -6,-15 0,-4 2,-9 6,-14l10 8c-3,3 -4,6 -4,8 0,2 1,5 3,7 2,3 5,5 7,6 2,1 5,0 7,-1 2,-1 3,-3 4,-6 0,-3 -1,-6 -3,-9l-2 -2 8 -5 1 1c2,3 5,5 7,6 3,1 5,0 8,-1 2,-1 3,-3 3,-5 0,-2 0,-5 -2,-7 -3,-4 -7,-6 -12,-4zm-12 63l46 -43 32 34 -8 7 -23 -25 -10 10 22 23 -8 7 -22 -23 -12 12 24 26 -8 7 -33 -35zm84 -4l35 28 -40 49 -10 -8 33 -41 -15 -12 -17 21c-5,6 -8,10 -11,12 -2,2 -5,3 -7,3 -3,0 -6,-1 -9,-4 -1,-1 -3,-3 -6,-5l6 -8 2 2c2,2 4,3 5,3 1,0 3,-1 4,-3l7 -8 23 -28zm5 85l32 -55 40 24 -5 9 -29 -17 -7 12 27 16 -5 9 -27 -16 -9 15 30 18 -5 9 -41 -24zm51 30l24 -59 12 5 -9 23 23 9 9 -23 12 5 -24 59 -12 -5 10 -26 -23 -9 -10 26 -12 -5zm74 -38l12 3 -6 25 17 4c4,1 8,3 11,4 3,2 5,5 6,8 1,4 2,7 1,11 -1,4 -3,7 -6,10 -3,2 -6,4 -9,4 -3,0 -7,0 -12,-1l-29 -7 15 -62zm0 54l12 3c4,1 7,1 8,1 2,0 3,-1 5,-2 2,-1 2,-3 3,-4 1,-3 0,-5 -1,-7 -2,-2 -5,-3 -10,-5l-13 -3 -4 16zm58 -40l12 3 -15 62 -12 -3 15 -62zm14 1l12 0 -1 42 27 -41 13 0 -2 63 -12 0 1 -41 -27 40 -13 0 2 -63zm33 -17l6 0c0,4 -2,7 -4,9 -2,2 -6,3 -9,3 -4,0 -7,-1 -9,-4 -2,-2 -4,-5 -4,-9l6 0c0,2 1,4 2,5 1,1 3,2 5,2 2,0 4,0 5,-1 1,-1 2,-3 2,-5zm84 9l48 -14 17 61 -12 3 -14 -51 -24 7 14 51 -12 3 -17 -61zm62 14c-3,-6 -4,-11 -4,-16 0,-4 1,-7 2,-10 1,-3 3,-6 5,-9 3,-3 7,-6 11,-8 8,-4 16,-4 24,-1 7,3 13,9 18,19 4,9 5,18 2,25 -3,8 -8,13 -17,17 -9,4 -17,4 -24,1 -7,-3 -13,-9 -17,-18zm12 -6c3,7 7,11 11,13 5,2 9,2 14,0 5,-2 8,-6 9,-10 1,-5 1,-10 -2,-17 -3,-7 -7,-11 -11,-13 -4,-2 -9,-2 -14,0 -5,2 -8,6 -9,10 -1,5 -1,10 2,17zm95 -19l-15 -21 -2 2c-3,2 -5,5 -6,6 -1,2 -1,7 -1,14l1 17 -12 9 -1 -15c0,-6 0,-10 0,-13 0,-3 1,-5 2,-8 -5,3 -10,4 -14,2 -4,-1 -7,-3 -10,-7 -2,-3 -3,-6 -4,-10 0,-4 1,-7 3,-9 2,-3 6,-6 11,-10l22 -16 37 51 -10 8zm-31 -43l-8 6c-4,3 -7,5 -8,6 -1,1 -2,3 -2,4 0,2 0,3 2,5 1,2 3,3 4,3 2,0 3,0 5,-1 2,-1 4,-3 9,-6l8 -6 -9 -13zm64 -18l12 -6c3,6 5,12 4,18 -1,5 -4,11 -9,15 -6,6 -13,9 -21,8 -8,0 -15,-4 -22,-11 -7,-8 -11,-15 -11,-23 0,-8 3,-15 9,-21 6,-5 12,-8 18,-8 4,0 8,1 13,4l-7 11c-3,-2 -6,-3 -9,-2 -3,0 -6,2 -8,4 -3,3 -5,7 -5,12 0,4 3,9 8,15 6,6 11,9 15,9 4,0 8,-1 12,-4 2,-2 4,-5 4,-8 0,-3 -1,-7 -3,-11z"/>
  </g>
  <g id="_2299231551456">
   <g>
    <g>
     <g>
      <g>
       <circle class="fil1" cx="2073" cy="1212" r="472"/>
       <path class="fil7" d="M2066 856c196,0 355,159 355,355 0,196 -159,355 -355,355 -196,0 -355,-159 -355,-355 0,-196 159,-355 355,-355z"/>
       <g>
        <path class="fil1" d="M1956 1177c3,0 4,-4 5,-6 9,-16 13,-17 21,-28 2,-2 3,-3 5,-5 18,-19 21,-21 38,-37l19 -16c17,-14 63,-49 80,-58l-53 -91c-2,-4 -6,-10 -7,-13l-62 107c-10,18 -21,36 -31,54 -5,9 -28,48 -31,54 4,-2 4,-4 8,-7l30 -26c3,-2 5,-4 8,-6 14,-10 71,-49 86,-54 -25,16 -49,35 -71,55 -2,2 -3,2 -5,4l-14 13c-11,9 -60,58 -62,62l35 0z"/>
        <path class="fil1" d="M2181 1127c-7,-11 -33,-53 -38,-62 -4,-7 0,-10 3,-14l59 -60c-4,2 -8,6 -13,8l-38 27c-10,8 -27,20 -36,29l-11 10c-4,4 -8,7 -11,11 -13,15 -17,17 -29,35 -13,19 -22,42 -12,65l157 0 -30 -50z"/>
        <path class="fil7" d="M2099 1124c12,-13 28,-18 37,-11 8,7 5,24 -7,38 -12,13 -28,18 -37,11 -8,-7 -5,-24 7,-38z"/>
        <g>
         <path class="fil7" d="M2132 1193c3,-3 23,-29 32,-37 0,0 0,0 0,-1 0,0 0,0 0,0 2,-2 3,-3 3,-2 2,6 -7,22 -10,27 2,-5 4,-11 6,-17 -7,12 -18,19 -31,29z"/>
        </g>
        <path class="fil3" d="M2132 1193c11,-9 28,-23 32,-37 3,-9 2,8 -5,20 0,0 -2,4 -2,4"/>
       </g>
      </g>
      <path class="fil3 str2" d="M2069 749c255,0 462,207 462,462 0,255 -207,462 -462,462 -255,0 -462,-207 -462,-462 0,-255 207,-462 462,-462z"/>
     </g>
     <path class="fil4" d="M1990 1389l-33 -135 -21 0 -33 135 22 0 5 -27 31 0 5 27 22 0zm-32 -46l-23 0 12 -56 12 56zm154 46l0 -135 -21 0 0 116 -23 0 0 -116 -21 0 0 116 -23 0 0 -116 -21 0 0 135 110 0zm90 -36l-21 0c0,5 -1,10 -3,13 -2,3 -5,5 -10,5 -5,0 -8,-2 -10,-5 -4,-6 -5,-20 -5,-45 0,-25 1,-38 5,-45 2,-3 5,-5 10,-5 5,0 8,2 10,5 2,3 3,8 3,13l21 0c0,-12 -4,-22 -11,-28 -6,-6 -13,-9 -24,-9 -13,0 -21,5 -26,12 -9,11 -10,25 -10,57 0,32 1,47 10,57 6,7 14,12 26,12 10,0 17,-3 23,-9 7,-6 11,-17 11,-29z"/>
    </g>
    <path class="fil3" d="M2064 845c202,0 366,165 366,369 0,204 -164,369 -366,369 -202,0 -366,-165 -366,-369 0,-204 164,-369 366,-369z"/>
    <path class="fil8" d="M1679 1160l2 -13c4,0 8,-1 10,-2 3,-2 4,-5 5,-9 1,-4 1,-7 -1,-10 -1,-2 -3,-4 -5,-5 -2,0 -3,0 -4,0 -1,1 -3,2 -4,4 -1,1 -3,5 -5,10 -3,6 -6,11 -10,13 -4,3 -9,4 -14,3 -3,-1 -6,-2 -9,-5 -2,-2 -4,-6 -5,-9 -1,-4 -1,-8 1,-13 2,-8 5,-13 9,-17 4,-3 10,-4 16,-3l-2 13c-3,0 -6,0 -8,2 -2,1 -3,4 -4,8 -1,4 -1,7 0,9 1,2 2,3 4,3 2,0 3,0 4,-1 2,-1 4,-5 7,-11 3,-6 5,-10 8,-13 2,-3 5,-4 8,-6 3,-1 7,-1 11,0 4,1 7,3 10,5 3,3 4,6 5,10 1,4 0,9 -1,14 -2,8 -5,14 -10,17 -5,3 -11,5 -18,4zm36 -57l-62 -21 4 -12 62 21 -4 12zm6 -18l-22 -34 -37 6 6 -14 23 -4 -13 -20 6 -14 20 31 40 -6 -6 14 -26 4 14 22 -6 14zm24 -92l7 -11c4,2 7,3 10,2 3,-1 6,-2 8,-6 3,-3 4,-6 4,-9 0,-3 -1,-5 -3,-6 -1,-1 -3,-1 -4,-1 -1,0 -3,1 -5,2 -1,1 -4,3 -9,6 -6,4 -10,7 -14,8 -5,1 -10,0 -14,-3 -3,-2 -5,-5 -6,-8 -1,-3 -1,-7 0,-10 1,-4 3,-8 6,-11 5,-6 10,-10 16,-11 5,-1 11,0 15,4l-8 11c-3,-2 -6,-2 -8,-2 -2,1 -5,2 -7,5 -2,3 -4,6 -4,8 0,2 1,3 2,4 1,1 3,1 4,1 2,0 6,-3 11,-7 5,-4 9,-7 12,-8 3,-1 6,-2 10,-2 3,0 7,2 10,4 3,2 5,5 6,9 1,4 1,7 0,11 -1,4 -3,8 -7,13 -5,6 -10,10 -16,11 -6,1 -12,0 -18,-4zm57 -36l-45 -47 9 -9 45 47 -9 9zm27 -56l-7 -9 22 -18 16 20c0,4 -2,8 -5,13 -3,5 -6,9 -11,12 -5,4 -11,7 -17,8 -6,1 -11,0 -17,-3 -5,-3 -10,-6 -14,-11 -4,-5 -7,-11 -8,-17 -1,-6 0,-12 2,-17 2,-4 5,-8 10,-12 6,-5 12,-8 18,-8 6,0 11,2 16,6l-9 10c-3,-2 -6,-3 -9,-3 -3,0 -6,1 -9,4 -4,4 -7,8 -7,13 0,5 2,10 6,16 5,6 10,10 15,11 5,1 10,0 14,-4 2,-2 4,-4 5,-6 1,-3 3,-5 3,-8l-5 -7 -12 9zm48 -4l-30 -58 18 -9 31 34 -10 -45 18 -9 30 58 -11 6 -24 -46 12 52 -11 6 -35 -40 24 46 -11 6zm125 -48l-14 4 -9 -13 -25 7 -1 16 -13 4 6 -70 13 -4 43 56zm-30 -18l-15 -21 -2 26 17 -5zm58 -50l26 -1c5,0 9,0 12,0 3,0 5,1 7,3 2,1 4,3 5,5 1,2 2,5 2,8 0,3 -1,6 -2,8 -2,3 -4,5 -7,6 4,1 7,3 9,6 2,3 3,6 3,10 0,3 -1,6 -2,9 -1,3 -3,5 -5,7 -2,2 -5,3 -9,3 -2,0 -7,1 -16,1l-22 1 -2 -65zm13 11l0 15 9 0c5,0 8,0 10,0 2,0 4,-1 5,-2 1,-1 2,-3 2,-5 0,-2 -1,-4 -2,-5 -1,-1 -3,-2 -5,-2 -1,0 -5,0 -11,0l-8 0zm1 26l0 18 12 0c5,0 8,0 9,-1 2,0 4,-1 5,-3 1,-1 2,-3 2,-6 0,-2 -1,-4 -2,-5 -1,-1 -2,-2 -4,-3 -2,-1 -6,-1 -12,-1l-11 0zm53 29l8 -64 13 2 -7 53 32 4 -1 11 -45 -6zm110 27l-13 -5 -1 -16 -25 -8 -10 12 -13 -4 45 -54 13 4 4 70zm-14 -32l-1 -26 -16 20 17 6zm69 33l9 9c-5,6 -10,9 -16,10 -6,1 -12,0 -18,-3 -8,-4 -13,-10 -15,-18 -2,-8 -1,-16 4,-25 5,-10 11,-16 19,-19 8,-3 16,-2 24,2 7,4 12,9 14,15 1,4 1,8 0,14l-13 -3c1,-3 1,-6 -1,-9 -1,-3 -3,-5 -7,-7 -4,-2 -9,-2 -13,-1 -4,2 -8,6 -12,13 -4,7 -5,13 -4,18 1,4 4,8 8,10 3,2 6,2 10,1 3,-1 6,-3 10,-7zm9 34l41 -51 10 8 -18 23 39 -6 14 11 -35 5 -5 47 -13 -11 5 -35 -15 2 -12 16 -10 -8zm119 20l16 20c3,4 5,7 7,9 1,2 2,5 2,7 0,2 0,5 -1,7 -1,2 -3,5 -5,6 -2,2 -5,3 -8,3 -3,0 -6,0 -9,-2 2,4 2,7 1,11 -1,3 -3,6 -6,9 -2,2 -5,3 -8,4 -3,1 -6,1 -9,0 -3,-1 -5,-3 -8,-5 -2,-2 -5,-6 -10,-12l-14 -17 52 -40zm0 17l-12 9 5 7c3,4 5,6 6,7 2,2 3,3 5,3 2,0 4,0 5,-2 2,-1 3,-3 3,-4 0,-2 0,-3 -1,-5 -1,-1 -3,-4 -7,-9l-5 -6zm-20 16l-14 11 7 10c3,4 5,6 6,7 1,1 3,2 5,2 2,0 4,-1 6,-2 2,-1 3,-3 3,-4 1,-2 0,-3 0,-5 -1,-2 -3,-5 -6,-10l-7 -8zm9 60l58 -30 22 43 -10 5 -16 -31 -13 7 15 29 -10 5 -15 -29 -16 8 16 32 -10 5 -22 -44zm27 55l62 -21 4 12 -51 17 10 31 -10 4 -15 -43zm18 60l54 -9 -3 -19 11 -2 9 51 -11 2 -3 -19 -54 9 -2 -13z"/>
   </g>
   <path class="fil3 str1" d="M2065 856c191,0 346,159 346,356 0,196 -155,356 -346,356 -191,0 -346,-159 -346,-356 0,-196 155,-356 346,-356z"/>
   <path class="fil8" d="M1779 1437l8 10 -12 10c-4,3 -6,5 -7,7 -1,1 -1,3 -1,5 0,2 1,5 4,7 2,2 4,4 5,5 2,1 4,2 6,3l21 -17 8 10 -50 40 -8 -10 20 -16c-3,-1 -5,-3 -7,-4 -2,-2 -4,-3 -5,-5 -4,-5 -6,-10 -7,-15 0,-5 2,-10 8,-15l17 -14zm-8 88l42 -48 35 31 -7 8 -26 -23 -9 11 24 21 -7 8 -24 -21 -12 13 27 24 -7 8 -36 -32zm45 39l35 -53 17 11c7,4 11,7 12,9 3,3 4,6 4,10 0,4 -1,8 -4,12 -2,3 -5,6 -7,7 -3,1 -5,2 -8,2 -3,0 -5,0 -7,-1 -3,-1 -7,-3 -12,-7l-7 -5 -13 20 -11 -7zm40 -37l-10 15 6 4c4,3 7,4 9,5 2,0 3,0 5,0 2,-1 3,-2 4,-3 1,-2 2,-4 2,-6 0,-2 -1,-4 -3,-5 -1,-1 -4,-3 -7,-5l-5 -3zm10 69l27 -58 12 5 -11 23 23 11 11 -23 12 5 -27 58 -12 -5 12 -25 -23 -11 -12 25 -12 -5zm74 -34l13 3 -6 25 17 4c4,1 8,3 11,4 3,2 5,5 6,8 1,4 2,7 1,11 -1,4 -3,8 -6,10 -3,3 -6,4 -9,4 -3,0 -7,0 -12,-1l-29 -7 15 -62zm0 55l12 3c4,1 7,1 8,1 2,0 3,-1 5,-2 2,-1 3,-3 3,-5 1,-3 0,-5 -1,-7 -2,-2 -5,-3 -10,-5l-13 -3 -4 16zm59 -41l13 3 -15 62 -13 -3 15 -62zm16 3l12 1 -3 42 29 -40 13 1 -5 64 -12 -1 3 -42 -29 40 -13 -1 5 -64zm34 -16l6 0c-1,4 -2,7 -5,9 -3,2 -6,3 -10,3 -4,0 -7,-2 -9,-4 -2,-2 -3,-6 -3,-10l6 0c0,2 1,4 2,5 1,1 3,2 5,2 2,0 4,0 6,-1 1,-1 2,-2 3,-4zm62 16l50 -10 12 63 -13 2 -10 -52 -24 5 10 52 -13 2 -12 -63zm60 22c-2,-6 -4,-11 -4,-16 0,-4 1,-7 2,-10 1,-3 3,-6 5,-8 3,-3 7,-6 12,-8 9,-4 17,-4 24,-1 7,3 13,10 17,19 4,10 4,18 2,26 -3,8 -9,13 -17,17 -9,4 -17,4 -24,1 -7,-3 -13,-10 -17,-19zm12 -5c3,7 6,11 11,13 5,2 9,2 14,0 5,-2 8,-5 10,-10 2,-5 1,-10 -2,-17 -3,-7 -6,-11 -11,-13 -4,-2 -9,-2 -14,0 -5,2 -8,5 -10,10 -2,5 -1,10 2,17zm98 -12l-14 -23 -2 1c-3,2 -6,4 -6,6 -1,2 -1,7 -2,14l-1 17 -13 8 0 -15c0,-6 0,-10 1,-13 1,-3 2,-5 3,-8 -6,2 -10,3 -14,1 -4,-1 -7,-4 -9,-8 -2,-3 -3,-7 -3,-10 0,-4 1,-7 3,-9 2,-3 6,-6 11,-9l23 -14 34 54 -11 7zm-28 -45l-9 5c-4,3 -7,5 -8,6 -1,1 -2,2 -2,4 0,2 0,4 1,5 1,2 3,3 4,4 2,1 3,0 5,0 2,-1 5,-2 9,-5l8 -5 -9 -14zm67 -12l12 -5c3,7 4,13 3,18 -1,5 -5,10 -10,15 -7,5 -14,8 -22,7 -8,-1 -15,-5 -21,-13 -7,-8 -10,-16 -9,-24 1,-8 4,-15 11,-21 6,-5 12,-7 19,-7 4,0 8,2 13,5l-8 10c-3,-2 -6,-3 -9,-3 -3,0 -6,1 -9,3 -4,3 -6,7 -6,11 0,4 2,10 7,16 5,6 10,10 14,11 4,1 8,0 12,-3 3,-2 4,-5 5,-8 1,-3 0,-7 -2,-11z"/>
  </g>
 </g>
</svg>
