<svg xmlns="http://www.w3.org/2000/svg" viewBox="0 0 479 479" width="100%" height="100%">
  <defs>
    <style>
      .fil0 { fill: #FEFEFE }
      .fil1 { fill: #D62718 }
      .fil2 { fill: #35388A }
    </style>
  </defs>

  <!-- Белый круг-фон -->
  <circle cx="239.5" cy="239.5" r="216" fill="#FEFEFE"/>

  <!-- Красная фигура -->
  <path fill="#D62718" d="M113 344c3,0 4,-4 5,-7 10,-17 14,-18 23,-31 2,-2 3,-3 5,-5 19,-20 23,-23 42,-40l21 -17c19,-15 69,-53 87,-63l-58 -99c-2,-4 -7,-10 -8,-14l-68 117c-11,20 -22,39 -34,59 -6,10 -31,52 -33,59 4,-2 5,-4 9,-8l33 -29c3,-2 5,-4 9,-7 15,-11 77,-53 93,-58 -27,17 -53,38 -77,59 -2,2 -3,2 -5,4l-15 14c-12,10 -65,63 -68,67l38 0z"/>

  <!-- Синяя фигура -->
  <path fill="#35388A" d="M358 290c-8,-12 -36,-57 -41,-68 -4,-8 0,-11 4,-15l64 -65c-5,3 -9,6 -14,9l-41 30c-11,9 -29,22 -39,32l-12 11c-4,4 -8,7 -12,12 -14,16 -18,19 -32,38 -14,21 -24,46 -13,70l171 0 -33 -55z"/>

  <!-- Белые акценты -->
  <path fill="#FEFEFE" d="M269 287c13,-15 31,-20 40,-12 9,8 6,26 -7,41 -13,15 -31,20 -40,12 -9,-8 -6,-26 7,-41z"/>
  <path fill="#FEFEFE" d="M305 362c3,-3 25,-32 34,-41 2,-2 3,-3 4,-2 2,7 -7,23 -11,30 2,-5 5,-12 6,-18 -7,14 -20,21 -34,31z"/>
</svg>