<?xml version="1.0" encoding="UTF-8"?>
<!DOCTYPE svg PUBLIC "-//W3C//DTD SVG 1.1//EN" "http://www.w3.org/Graphics/SVG/1.1/DTD/svg11.dtd">
<!-- Creator: CorelDRAW -->
<svg xmlns="http://www.w3.org/2000/svg" xml:space="preserve" width="1600px" height="900px" version="1.1" style="shape-rendering:geometricPrecision; text-rendering:geometricPrecision; image-rendering:optimizeQuality; fill-rule:evenodd; clip-rule:evenodd"
viewBox="0 0 16000 9000"
 xmlns:xlink="http://www.w3.org/1999/xlink"
 xmlns:xodm="http://www.corel.com/coreldraw/odm/2003">
 <defs>
  <style type="text/css">
   <![CDATA[
    .str1 {stroke:#FDF06E;stroke-width:21;stroke-miterlimit:22.9256}
    .str0 {stroke:#38AA3D;stroke-width:160;stroke-miterlimit:22.9256}
    .fil0 {fill:none}
    .fil2 {fill:#FEFEFE}
    .fil3 {fill:#3AAA3D}
    .fil1 {fill:#1B9D3D}
    .fil4 {fill:#FEFEFE;fill-rule:nonzero}
    .fil7 {fill:#EA5857;fill-rule:nonzero}
    .fil6 {fill:#3D9237;fill-rule:nonzero}
    .fil5 {fill:#358D37;fill-rule:nonzero}
   ]]>
  </style>
 </defs>
 <g id="Слой_x0020_1">
  <metadata id="CorelCorpID_0Corel-Layer"/>
  <rect class="fil0" x="7" y="35" width="15990" height="9040"/>
  <g id="_1599111232144">
   <path class="fil1" d="M7990 3027c813,0 1472,659 1472,1472 0,813 -659,1472 -1472,1472 -813,0 -1472,-659 -1472,-1472 0,-813 659,-1472 1472,-1472z"/>
   <path class="fil2" d="M7532 4358c12,0 15,-16 20,-25 39,-65 52,-69 89,-118 7,-9 12,-12 20,-20 74,-78 87,-86 159,-153l80 -66c71,-57 263,-201 333,-242l-219 -379c-9,-15 -25,-40 -30,-55l-258 444c-42,75 -86,147 -129,223 -21,38 -118,200 -127,224 15,-7 18,-16 33,-31l125 -109c11,-8 21,-16 33,-25 58,-43 295,-202 356,-222 -104,65 -202,146 -295,226 -8,7 -12,9 -20,17l-57 52c-44,38 -248,239 -258,257l146 1z"/>
   <path class="fil2" d="M8467 4150c-29,-47 -137,-218 -158,-259 -16,-31 -1,-42 14,-57l243 -248c-18,10 -35,23 -53,34l-158 113c-42,33 -110,85 -149,122l-46 42c-17,15 -32,28 -47,45 -54,62 -68,71 -121,147 -55,80 -93,175 -51,268l651 1 -125 -208z"/>
   <path class="fil3" d="M8126 4139c49,-56 117,-76 152,-46 34,30 22,100 -27,156 -49,56 -117,76 -152,46 -34,-30 -22,-100 27,-156z"/>
   <g>
    <path class="fil3" d="M8263 4424c13,-12 97,-122 131,-155 0,-1 0,-2 0,-3 0,1 1,1 1,2 8,-7 13,-11 13,-8 6,25 -28,89 -41,114 8,-20 18,-45 24,-70 -27,52 -76,80 -128,119z"/>
   </g>
   <path class="fil0" d="M8263 4424c44,-37 114,-96 132,-151 12,-36 8,33 -19,83 0,1 -8,18 -8,19"/>
   <path class="fil0 str0" d="M8000 2585c1058,0 1915,858 1915,1915 0,1058 -858,1915 -1915,1915 -1058,0 -1915,-858 -1915,-1915 0,-1058 858,-1915 1915,-1915z"/>
   <path class="fil4" d="M7676 5235l-136 -559 -86 0 -137 559 93 0 22 -111 130 0 23 111 92 0zm-131 -190l-96 0 48 -234 48 234zm640 190l0 -559 -88 0 0 480 -97 0 0 -480 -88 0 0 480 -97 0 0 -480 -88 0 0 559 457 0zm371 -148l-88 0c-1,20 -4,41 -13,55 -8,13 -20,20 -42,20 -21,0 -34,-9 -42,-21 -17,-27 -20,-83 -20,-185 0,-102 2,-159 20,-185 8,-13 20,-21 42,-21 21,0 34,8 42,20 10,13 13,34 13,54l88 0c-2,-50 -17,-92 -45,-118 -25,-24 -56,-36 -98,-36 -52,0 -86,20 -108,48 -37,44 -41,105 -41,238 0,133 4,194 41,238 23,28 57,48 108,48 42,0 72,-12 97,-35 28,-26 45,-69 46,-119z"/>
   <path class="fil0" d="M7981 2984c837,0 1515,684 1515,1527 0,843 -678,1527 -1515,1527 -837,0 -1515,-684 -1515,-1527 0,-843 678,-1527 1515,-1527z"/>
   <path class="fil5" d="M6390 4302l4 -53c18,0 32,-4 42,-12 10,-8 16,-20 19,-36 3,-17 2,-31 -4,-41 -6,-10 -14,-16 -23,-18 -6,-1 -12,0 -17,3 -5,3 -10,9 -15,17 -3,6 -10,19 -19,41 -12,27 -25,46 -37,55 -18,14 -37,19 -58,15 -14,-2 -26,-9 -36,-18 -11,-10 -18,-22 -21,-38 -4,-16 -4,-33 0,-54 6,-33 18,-57 36,-71 18,-14 39,-19 64,-16l-8 54c-14,0 -25,3 -32,9 -7,6 -12,17 -15,32 -3,15 -2,28 3,38 3,6 8,10 15,11 6,1 12,-1 18,-5 7,-6 16,-21 27,-46 11,-25 21,-43 29,-54 9,-11 20,-19 32,-24 13,-5 28,-6 44,-3 15,3 29,9 41,20 12,11 20,25 23,41 4,17 4,36 0,59 -6,34 -18,58 -37,73 -19,15 -43,22 -74,20zm143 -241l-257 -86 17 -52 257 86 -17 52zm22 -76l-91 -143 -153 24 26 -58 95 -15 -52 -81 26 -58 84 130 167 -27 -27 60 -108 17 59 92 -27 60zm97 -382l28 -45c16,9 30,12 43,9 13,-3 24,-10 34,-23 11,-14 16,-26 15,-38 0,-12 -5,-20 -12,-27 -5,-4 -11,-6 -16,-6 -6,0 -13,3 -21,8 -6,4 -18,13 -36,27 -24,18 -43,29 -59,32 -22,4 -41,-1 -58,-14 -11,-9 -19,-20 -24,-33 -5,-14 -5,-28 -1,-43 4,-15 12,-31 25,-48 21,-27 42,-42 65,-46 22,-4 44,1 64,16l-32 44c-12,-7 -23,-9 -33,-7 -10,2 -19,9 -28,21 -10,12 -15,24 -15,35 0,7 3,13 8,17 5,4 11,5 18,4 9,-2 24,-11 45,-28 21,-17 38,-28 51,-34 13,-6 27,-8 40,-7 14,2 27,8 41,18 12,10 21,22 27,37 5,15 6,31 2,47 -4,17 -14,34 -28,52 -21,27 -43,43 -67,47 -24,5 -49,-1 -75,-17zm237 -149l-197 -186 37 -40 197 186 -38 40zm110 -233l-28 -36 92 -73 67 85c-2,16 -9,34 -21,54 -12,20 -26,37 -44,51 -22,18 -45,28 -69,32 -24,4 -47,0 -69,-11 -22,-11 -41,-27 -57,-47 -18,-22 -29,-46 -33,-70 -4,-25 -1,-49 9,-72 8,-18 22,-35 42,-51 26,-21 51,-32 75,-32 24,-1 45,7 65,24l-36 42c-11,-8 -23,-12 -36,-12 -13,0 -26,6 -38,15 -19,15 -29,32 -30,53 -2,21 7,43 26,66 20,25 41,40 62,44 21,4 41,-1 59,-16 9,-7 16,-16 23,-27 6,-11 11,-21 13,-31l-21 -27 -49 39zm197 -20l-124 -241 73 -37 128 142 -43 -186 73 -38 124 241 -45 23 -98 -190 51 214 -47 24 -145 -165 98 190 -45 23zm517 -200l-56 16 -39 -53 -104 30 -5 66 -55 16 26 -289 55 -16 178 231zm-125 -76l-64 -86 -7 107 71 -20zm368 -40l-1 -46 117 -3 3 108c-11,11 -27,22 -49,31 -21,9 -43,14 -65,14 -28,1 -53,-5 -74,-16 -21,-11 -37,-28 -48,-50 -11,-22 -17,-46 -18,-72 -1,-28 5,-54 16,-76 11,-22 28,-40 50,-52 17,-10 38,-15 64,-15 33,-1 60,6 79,19 19,14 32,33 38,58l-54 12c-4,-13 -12,-24 -22,-31 -11,-7 -24,-11 -39,-11 -24,1 -42,9 -56,24 -14,16 -20,38 -19,68 1,32 9,56 23,72 15,16 33,23 56,23 11,0 23,-3 34,-8 11,-5 21,-11 29,-17l-1 -34 -62 2zm170 101l48 -267 113 20c28,5 49,11 60,18 12,7 21,18 26,31 6,14 7,28 4,44 -4,20 -12,36 -26,47 -14,11 -33,16 -57,15 10,9 18,18 24,28 6,10 14,26 23,49l23 58 -64 -12 -28 -65c-10,-23 -17,-38 -21,-44 -4,-6 -9,-11 -14,-14 -5,-3 -14,-6 -27,-8l-11 -2 -20 112 -54 -10zm81 -144l40 7c26,5 42,6 49,5 7,-1 13,-4 17,-9 5,-5 8,-11 9,-19 2,-9 1,-17 -3,-23 -4,-6 -10,-11 -18,-14 -4,-1 -17,-4 -39,-8l-42 -8 -12 68zm185 197l88 -257 189 64 -15 43 -137 -47 -19 57 127 43 -15 43 -127 -43 -24 70 142 48 -15 43 -194 -66zm236 85l136 -235 172 100 -23 40 -125 -73 -30 52 116 68 -23 40 -117 -67 -37 64 130 75 -23 40 -177 -103zm216 128l168 -213 41 33 -26 211 113 -143 40 31 -168 213 -43 -34 25 -208 -111 140 -40 -31zm493 85l66 85c13,17 22,30 27,39 5,9 8,19 9,29 1,10 -1,20 -5,30 -4,10 -11,19 -20,26 -10,8 -21,12 -34,13 -13,1 -24,-1 -36,-7 6,16 7,31 4,45 -4,14 -12,26 -24,36 -10,8 -21,13 -34,16 -13,3 -25,2 -36,-1 -12,-4 -22,-10 -33,-21 -6,-7 -20,-23 -42,-51l-56 -72 214 -167zm-2 71l-49 38 22 28c13,17 21,27 25,31 7,7 14,10 21,11 8,1 15,-1 22,-7 7,-5 11,-11 12,-18 1,-7 0,-14 -5,-22 -3,-5 -12,-17 -28,-37l-19 -25zm-85 66l-57 45 31 40c12,15 20,25 24,28 6,5 13,8 21,9 8,1 15,-2 23,-8 7,-5 11,-11 13,-17 2,-7 2,-14 -1,-21 -3,-7 -11,-21 -27,-40l-27 -35zm34 249l242 -123 90 178 -41 21 -66 -129 -54 27 61 120 -41 21 -61 -120 -66 33 68 134 -41 21 -93 -182zm110 227l255 -86 17 52 -211 71 43 128 -43 15 -60 -180zm73 250l222 -39 -14 -78 45 -8 37 210 -45 8 -14 -78 -222 39 -10 -54z"/>
   <path class="fil0" d="M7987 3027c792,0 1433,660 1433,1473 0,814 -642,1473 -1433,1473 -791,0 -1433,-660 -1433,-1473 0,-814 642,-1473 1433,-1473z"/>
   <path class="fil6" d="M6686 5398l-19 -50c42,-15 78,-1 107,43 17,26 25,49 22,70 -3,21 -11,36 -27,47 -11,7 -22,10 -35,10 -12,0 -26,-4 -40,-12 5,18 5,34 1,47 -4,13 -13,25 -27,34 -19,13 -40,17 -61,10 -21,-6 -42,-23 -61,-51 -16,-23 -24,-44 -25,-62 -1,-18 6,-38 23,-59l40 32c-10,13 -15,25 -14,34 1,10 5,20 12,30 9,14 19,22 30,25 10,2 20,1 27,-5 9,-6 14,-15 14,-26 1,-11 -4,-24 -14,-38l-7 -10 33 -22 3 5c9,14 19,22 30,25 11,3 22,1 32,-6 8,-5 13,-13 14,-22 2,-10 -1,-20 -9,-31 -13,-19 -30,-24 -52,-17zm-48 266l193 -181 134 143 -33 31 -98 -104 -43 40 91 96 -33 31 -91 -96 -52 49 101 107 -33 31 -138 -146zm350 -15l145 116 -166 206 -42 -34 138 -171 -62 -50 -71 88c-20,25 -35,42 -45,51 -10,9 -20,13 -31,14 -11,0 -23,-5 -37,-16 -5,-4 -13,-12 -25,-23l26 -32 9 8c9,7 16,11 20,11 5,0 11,-5 18,-14l28 -36 94 -118zm23 356l133 -229 169 99 -23 39 -123 -72 -30 51 114 67 -23 39 -114 -67 -36 62 127 74 -23 39 -174 -101zm214 124l100 -245 50 20 -39 97 97 39 39 -97 50 20 -100 245 -50 -20 44 -107 -97 -39 -44 107 -50 -20zm310 -158l52 12 -24 103 70 16c18,4 33,11 45,19 12,8 21,20 27,34 6,15 7,31 3,47 -4,17 -12,31 -24,42 -12,10 -24,16 -36,18 -12,2 -29,0 -51,-5l-121 -29 61 -257zm2 226l51 12c16,4 28,6 34,6 7,0 13,-2 20,-7 6,-4 10,-11 12,-19 3,-11 1,-21 -6,-29 -7,-8 -21,-14 -42,-19l-53 -13 -16 68zm243 -169l52 12 -61 257 -52 -12 61 -257zm58 4l50 2 -6 176 113 -172 53 2 -9 264 -50 -2 6 -173 -113 169 -53 -2 9 -264zm139 -72l25 1c-2,16 -8,29 -19,38 -10,9 -24,13 -40,13 -16,-1 -29,-6 -39,-15 -10,-10 -15,-23 -16,-39l25 1c1,9 3,15 8,20 5,5 12,7 22,7 10,0 17,-2 23,-6 5,-4 9,-11 10,-19zm350 38l202 -57 71 255 -52 14 -59 -212 -99 28 59 212 -52 15 -71 -255zm258 57c-11,-25 -17,-47 -17,-67 0,-15 2,-29 7,-43 5,-14 12,-26 21,-36 12,-13 28,-24 48,-33 36,-16 69,-18 100,-6 31,12 56,38 74,77 18,39 21,74 10,106 -11,32 -34,56 -70,72 -36,16 -69,18 -100,6 -31,-12 -55,-38 -73,-76zm49 -25c13,27 28,45 47,54 19,8 38,8 58,-1 20,-9 32,-23 38,-43 6,-20 3,-44 -10,-71 -13,-28 -28,-46 -46,-54 -18,-8 -38,-8 -58,2 -20,9 -33,23 -39,43 -6,19 -3,43 10,71zm396 -80l-66 -89 -9 6c-14,10 -22,19 -24,27 -3,8 -3,27 -2,57l4 69 -51 38 -5 -61c-2,-24 -2,-42 -1,-53 1,-11 4,-23 10,-35 -22,12 -41,15 -58,11 -17,-4 -31,-14 -42,-29 -10,-13 -15,-27 -16,-42 -1,-15 3,-28 11,-39 8,-11 23,-25 44,-41l90 -67 157 213 -43 32zm-131 -177l-34 25c-17,13 -28,21 -33,26 -5,5 -8,11 -8,18 -1,7 2,15 7,22 6,8 12,12 19,14 7,2 14,1 20,-2 7,-3 19,-11 36,-24l32 -24 -40 -54zm270 -76l48 -25c15,27 20,51 16,74 -4,23 -15,44 -36,64 -25,24 -54,36 -87,34 -33,-2 -64,-17 -93,-47 -31,-32 -46,-64 -47,-98 -1,-33 13,-63 39,-89 23,-23 49,-34 77,-34 17,0 34,5 53,16l-29 46c-12,-8 -24,-11 -37,-10 -13,1 -24,7 -34,17 -14,14 -21,30 -20,48 1,19 12,39 34,62 23,24 44,37 63,39 19,2 35,-4 49,-17 10,-10 16,-22 17,-35 1,-14 -3,-29 -14,-46z"/>
   <path class="fil7 str1" d="M7773 5369c-131,0 -251,-105 -392,-105 -120,0 -179,71 -180,134 -1,53 39,102 116,102 56,0 82,-42 74,-42 -9,0 -18,21 -62,21 -66,0 -96,-38 -94,-80 2,-50 49,-105 135,-105 79,0 145,37 211,70l-220 356 54 0 207 -336c39,17 79,30 123,30l28 -47zm-13 281c-4,0 -12,-2 -6,-13 59,-95 119,-193 126,-204l-54 0c0,0 -126,194 -174,194 -3,0 -6,-1 -6,-5 0,-6 3,-10 3,-10 59,-95 103,-167 110,-179l-54 0c-7,10 -66,107 -119,193 -12,19 -7,54 22,54 31,0 86,-55 130,-106 -11,17 -22,35 -32,52 -9,18 -11,54 23,54 63,0 200,-154 200,-154l0 -22c0,0 -137,146 -170,146zm189 0c-16,0 84,-175 84,-175 -22,0 -43,-15 -46,-33 0,-2 0,-3 -1,-4 0,-23 11,-39 20,-49 7,-7 -3,-17 -12,-17l-1 0c-36,3 -64,46 -64,72 0,19 14,24 26,31 -13,16 -25,30 -25,30l0 22c0,0 20,-24 35,-44 3,3 5,7 5,12 0,20 -79,118 -79,149 0,31 18,36 28,36 63,0 177,-154 177,-154l0 -22c0,0 -114,146 -148,146zm248 -18c47,-45 86,-114 86,-156 0,-26 -13,-43 -31,-43 -27,0 -52,11 -75,27 29,-47 59,-97 82,-135 17,-28 30,-48 33,-53l-54 0c-9,14 -96,155 -164,266 -24,39 -25,71 -25,83 0,34 17,58 58,58 18,0 39,-8 59,-22 3,0 7,1 11,1 80,0 181,-133 181,-133l0 -22c0,0 -95,121 -161,129zm-96 9c-18,0 -11,-35 11,-74 7,-11 14,-23 22,-35 29,-43 70,-82 105,-82 7,0 9,5 9,10 0,21 -44,100 -90,147 -2,-1 -5,-1 -7,-1 -12,0 -22,9 -22,21 0,2 0,3 1,4 -10,7 -20,11 -28,11zm394 -81c14,-22 23,-43 23,-61 0,-36 -16,-47 -31,-47 -23,0 -43,26 -35,26 3,0 7,-6 12,-6 2,0 5,2 5,9 0,19 -10,43 -24,68 -12,1 -21,10 -21,22 0,3 1,6 2,9 -25,36 -54,65 -65,65 -7,0 -11,-3 -11,-18 0,-69 100,-193 150,-193 5,0 3,-9 -7,-9 -71,0 -201,124 -201,201 0,42 29,53 48,53 36,0 92,-41 132,-88 26,-4 75,-17 120,-67l0 -22c-29,34 -66,49 -96,57z"/>
  </g>
 </g>
</svg>
