<?xml version="1.0" encoding="UTF-8"?>
<!DOCTYPE svg PUBLIC "-//W3C//DTD SVG 1.1//EN" "http://www.w3.org/Graphics/SVG/1.1/DTD/svg11.dtd">
<svg xmlns="http://www.w3.org/2000/svg" version="1.1" width="427px" height="385px" style="shape-rendering:geometricPrecision; text-rendering:geometricPrecision; image-rendering:optimizeQuality; fill-rule:evenodd; clip-rule:evenodd" xmlns:xlink="http://www.w3.org/1999/xlink">
<g><path style="opacity:0.991" fill="#fdfdfd" d="M -0.5,-0.5 C 141.833,-0.5 284.167,-0.5 426.5,-0.5C 426.5,127.833 426.5,256.167 426.5,384.5C 284.167,384.5 141.833,384.5 -0.5,384.5C -0.5,256.167 -0.5,127.833 -0.5,-0.5 Z"/></g>
<g><path style="opacity:1" fill="#d62819" d="M 212.5,1.5 C 240.726,49.6068 268.726,97.9402 296.5,146.5C 249.046,178.232 203.379,212.399 159.5,249C 129.23,275.601 101.397,304.434 76,335.5C 71.8333,342.333 67.6667,349.167 63.5,356C 46.5,356.667 29.5,356.667 12.5,356C 64.5436,299.606 120.544,247.939 180.5,201C 194.225,190.943 208.225,181.276 222.5,172C 218.382,173.049 214.382,174.716 210.5,177C 168.623,201.431 128.29,228.098 89.5,257C 73.2647,270.634 57.598,284.967 42.5,300C 41.8333,300.667 41.1667,300.667 40.5,300C 97.2617,200.096 154.595,100.596 212.5,1.5 Z"/></g>
<g><path style="opacity:1" fill="#36388a" d="M 403.5,100.5 C 404.239,100.369 404.906,100.536 405.5,101C 378,129.167 350.5,157.333 323,185.5C 319.959,190.369 319.959,195.369 323,200.5C 354.698,252.035 386.198,303.702 417.5,355.5C 393.507,356.666 369.507,356.833 345.5,356C 349.777,347.84 353.277,339.34 356,330.5C 356.814,328.098 356.647,325.765 355.5,323.5C 351.894,325.603 348.727,328.269 346,331.5C 339.167,339.667 332.333,347.833 325.5,356C 283.5,356.667 241.5,356.667 199.5,356C 192.495,338.892 191.661,321.392 197,303.5C 205.146,283.051 216.146,264.384 230,247.5C 263.016,209.149 299.849,174.982 340.5,145C 361.567,130.145 382.567,115.311 403.5,100.5 Z"/></g>
<g><path style="opacity:1" fill="#fcfcfd" d="M 291.5,262.5 C 308.162,260.348 317.162,267.515 318.5,284C 314.542,311.298 299.542,329.631 273.5,339C 251.857,341.689 242.69,332.189 246,310.5C 253.181,286.822 268.347,270.822 291.5,262.5 Z"/></g>
<g><path style="opacity:1" fill="#3e3f8e" d="M 348.5,340.5 C 349.097,340.735 349.43,341.235 349.5,342C 347.735,346.461 346.068,350.961 344.5,355.5C 341.894,356.652 339.227,356.818 336.5,356C 341.887,351.795 345.887,346.628 348.5,340.5 Z"/></g>
</svg>
