<?xml version="1.0" encoding="UTF-8"?>
<!DOCTYPE svg PUBLIC "-//W3C//DTD SVG 1.1//EN" "http://www.w3.org/Graphics/SVG/1.1/DTD/svg11.dtd">
<!-- Creator: CorelDRAW -->
<svg xmlns="http://www.w3.org/2000/svg" xml:space="preserve" width="297mm" height="210mm" version="1.1" style="shape-rendering:geometricPrecision; text-rendering:geometricPrecision; image-rendering:optimizeQuality; fill-rule:evenodd; clip-rule:evenodd"
viewBox="0 0 29700 21000"
 xmlns:xlink="http://www.w3.org/1999/xlink"
 xmlns:xodm="http://www.corel.com/coreldraw/odm/2003">
 <defs>
  <style type="text/css">
   <![CDATA[
    .fil1 {fill:none}
    .fil0 {fill:#2B2A29}
   ]]>
  </style>
 </defs>
 <g id="Слой_x0020_1">
  <metadata id="CorelCorpID_0Corel-Layer"/>
  <path class="fil0" d="M1320 1686c10,0 12,-13 16,-20 55,-91 142,-167 220,-239l65 -54c58,-46 216,-165 273,-199 -39,-67 -185,-389 -205,-356l-212 365c-35,61 -70,121 -106,183 -17,31 -97,164 -104,184 12,-6 15,-13 27,-25l103 -89c9,-7 17,-13 27,-21 48,-36 283,-203 292,-182 6,13 -241,183 -305,242 -36,31 -204,196 -212,211l119 0z"/>
  <path class="fil0" d="M1808 1506c41,-46 96,-63 124,-38 28,25 18,82 -22,128 -41,46 -96,63 -124,38 -28,-25 -18,-82 22,-128zm280 10c-24,-38 -112,-179 -130,-212 -13,-25 0,-34 12,-46 66,-68 94,-85 157,-157 11,-12 14,-28 -1,-18l-130 92c-34,27 -90,69 -122,100 -67,62 -122,115 -175,192 -45,66 -76,143 -42,220l487 0c40,-4 41,-14 25,-38l-80 -133z"/>
  <g id="_2924249919312">
   <line class="fil1" x1="2029" y1="1616" x2="2029" y2= "1616" />
  </g>
 </g>
</svg>
