<?xml version="1.0" encoding="UTF-8"?>
<!DOCTYPE svg PUBLIC "-//W3C//DTD SVG 1.1//EN" "http://www.w3.org/Graphics/SVG/1.1/DTD/svg11.dtd">
<!-- Creator: CorelDRAW -->
<svg xmlns="http://www.w3.org/2000/svg" xml:space="preserve" width="1600px" height="900px" version="1.1" style="shape-rendering:geometricPrecision; text-rendering:geometricPrecision; image-rendering:optimizeQuality; fill-rule:evenodd; clip-rule:evenodd"
viewBox="0 0 16000 9000"
 xmlns:xlink="http://www.w3.org/1999/xlink"
 xmlns:xodm="http://www.corel.com/coreldraw/odm/2003">
 <defs>
  <style type="text/css">
   <![CDATA[
    .fil0 {fill:none}
    .fil1 {fill:url(#id0)}
   ]]>
  </style>
  <linearGradient id="id0" gradientUnits="objectBoundingBox" x1="0%" y1="50%" x2="100%" y2="50%">
   <stop offset="0" style="stop-opacity:1; stop-color:#BFA635"/>
   <stop offset="1" style="stop-opacity:1; stop-color:#FFFBC2"/>
  </linearGradient>
 </defs>
 <g id="Слой_x0020_1">
  <metadata id="CorelCorpID_0Corel-Layer"/>
  <rect class="fil0" x="5" y="-20" width="15990" height="9040"/>
  <g id="_1270858461152">
   <path class="fil1" d="M8540 3571c-134,116 -11,414 -225,614 -100,94 -101,98 -247,173 -212,109 -380,249 -328,512 86,437 760,293 838,183 -52,4 -99,38 -148,32 -54,-7 -82,-52 -61,-102 51,41 2,117 221,48 37,-12 48,-28 80,-39 24,57 73,84 60,158 -24,-10 -36,-19 -69,-17 -58,75 -24,183 75,164 -26,-19 -35,-27 -35,-68l36 -29 39 58c48,-20 20,-7 47,-54 15,-26 -2,-7 19,-24l-10 77c41,-13 72,-31 72,-87 0,-61 -43,-60 -72,-92 -40,-46 -62,-175 -90,-237l-181 67c14,-35 168,-133 214,-95 32,25 28,84 34,129 79,4 187,-105 231,-141 79,-65 156,-167 184,-177 -87,156 -100,108 -81,210 47,262 -109,582 -289,720 -274,209 -587,343 -1043,292 -382,-43 -709,-264 -844,-503 -208,-367 -34,-659 -122,-878 -25,-62 -101,-158 -171,-162 9,24 57,74 77,106 29,46 49,85 44,146 -17,-91 -84,-172 -143,-207 -65,-38 -152,-57 -227,-34 -34,10 -40,16 -55,36 155,25 224,26 321,119 22,21 86,87 98,121 20,55 20,153 -5,203 8,-105 17,-165 -49,-249 -190,-242 -596,-98 -491,230 25,-46 38,-228 208,-252 146,-21 280,64 297,179 -34,-45 -53,-93 -110,-121 -58,-29 -143,-34 -204,-5 -106,50 -118,130 -113,235 1,12 2,44 5,54 8,31 8,23 23,37 7,-120 24,-203 118,-243 108,-46 219,-3 248,69 -316,-237 -419,271 -194,329 -8,-55 -97,-113 -49,-235 29,-75 113,-109 201,-56 69,42 87,106 103,207 14,87 34,186 43,268 -45,-67 -48,-113 -150,-126 24,92 70,123 147,138 2,0 6,1 9,2 48,125 67,177 142,277 60,80 138,147 219,211 525,414 1445,408 1847,-140 292,-398 379,-870 313,-1380 -53,-401 -191,-602 -466,-824 -78,-63 -189,-110 -311,-123 -26,120 16,140 112,192 239,128 431,295 460,591 48,485 -299,627 -611,790 -144,75 -414,131 -550,20 -81,-66 -77,-171 -24,-254 46,-72 114,-107 194,-156 366,-221 555,-456 389,-890z"/>
   <path class="fil1" d="M7373 3691c69,-65 141,-94 259,-120 -26,37 -47,27 -71,50 -23,21 -16,43 -37,73 -36,50 -116,39 -152,-3zm964 -991l-22 0c-10,112 -1,153 -54,241 -31,52 -87,118 -144,145 10,-68 19,-115 -3,-169l-54 -9c-33,78 2,194 -152,310 -142,107 -135,99 -315,144 -127,32 -149,80 -208,103 57,-109 313,-146 360,-189 34,-31 55,-58 81,-89l83 -98c89,-113 150,-266 62,-389l-32 0c17,195 -57,340 -160,430 -3,-74 12,-143 -67,-148 -19,90 -2,210 -142,318 -40,31 -99,56 -143,87 -53,37 -56,89 -98,141l-2 -37c-4,-26 1,-9 -6,-23 -62,11 -105,30 -120,84 -26,90 20,107 62,138 -149,131 -307,35 -352,61 -63,66 -35,161 72,158 33,-79 21,-69 128,-66 45,1 159,-11 192,18 -74,10 -169,3 -245,14 -78,12 -25,30 -83,48 -52,17 -47,-22 -100,-11 -24,55 -29,105 10,152l25 -54c41,39 35,54 91,90l-15 -87c29,14 58,58 123,82l-40 -96c43,22 82,53 145,47l-55 -71c49,14 76,20 131,17l-17 -18c-2,-1 -4,-4 -6,-5 -14,-11 -13,-9 -25,-16 20,-18 -2,-5 26,-16l91 -21 -60 -39c69,8 146,-61 242,-77 91,-15 271,19 188,-114 94,44 33,126 -61,141 -87,13 -147,40 -195,85 -35,33 -82,124 -110,171 -60,101 -66,99 -185,63 -4,126 -8,145 59,211 14,-18 7,2 9,-28 0,-2 -4,-25 -5,-29 53,41 56,77 148,99 -22,-42 -51,-44 -61,-101 52,23 99,50 171,44 -35,-53 -54,-20 -79,-91 58,10 85,19 148,8 -41,-39 -89,-47 -106,-105 77,25 164,49 249,73 102,29 155,30 235,-49 -97,14 -117,65 -362,-35 -38,-15 -86,-32 -105,-54 25,-65 92,-121 182,-92 85,27 97,68 218,72 -43,-42 -70,-51 -96,-74 -11,-10 -8,-8 -17,-18 187,63 287,111 450,-24 -82,14 -269,56 -363,-45 135,24 231,34 358,-16 94,-37 181,-109 214,-188 -51,17 -57,77 -220,123 -91,26 -218,39 -303,-2 201,-16 267,-1 423,-109 96,-66 243,-221 195,-314 -100,227 -323,357 -581,335 59,-31 362,-16 540,-357 34,-66 68,-166 38,-246 -13,28 -16,67 -27,98 -53,148 -202,297 -342,359 -69,30 -134,45 -213,47 196,-56 238,-93 339,-212 93,-110 166,-359 97,-407 -14,33 -21,124 -43,180 -24,61 -55,107 -92,148 -58,66 -156,172 -295,185 77,-56 184,-105 203,-251 -34,16 -68,63 -215,129 -99,45 -153,70 -229,122 34,-104 126,-102 211,-169 35,-27 56,-56 101,-89 111,-80 239,-147 316,-275 56,-93 91,-214 9,-298z"/>
   <path class="fil1" d="M7873 6300l331 0 77 -18c352,-57 620,-204 892,-408 141,-106 336,-368 432,-558 70,-140 121,-293 152,-447l20 -130c6,-32 0,-17 13,-43l0 -330c-72,-154 4,-524 -484,-1070l-139 -131c-158,-125 -538,-358 -723,-350l-20 127c7,5 9,7 22,13l152 49c54,19 106,40 157,63 105,47 187,104 275,165l128 102c87,67 260,267 302,361 -6,-1 -34,-6 -36,-6 -2,0 -5,0 -7,0l-18 3c28,40 49,56 78,93 84,108 99,247 126,383 44,226 57,382 17,614 -26,151 -77,402 -164,515 -35,45 -64,173 -100,240 -86,159 -109,137 -175,137 -78,140 -85,140 -177,232 -223,223 -317,160 -406,204 -146,72 -267,143 -477,124l-20 -56c-334,63 -387,8 -650,-105 -272,-116 -286,-120 -511,-289 -373,-280 -446,-655 -501,-699 -48,-39 -77,-43 -112,-87 -23,-29 -53,-91 -77,-116 5,150 147,442 213,550 144,237 330,430 564,576 475,296 742,248 849,294z"/>
   <path class="fil1" d="M6210 4353l0 141 138 -176c29,-62 37,-174 59,-251 57,-199 190,-472 318,-612 109,-119 381,-375 546,-383 44,-2 82,15 95,53 17,52 -16,85 -42,109 -132,125 -435,77 -602,328 -157,235 -90,520 126,620 67,31 186,66 257,18 -21,-16 -185,-23 -255,-61 -70,-38 -115,-87 -150,-169 -71,-166 0,-350 132,-458 206,-169 623,-157 575,-389 -21,-101 -120,-106 -224,-85l13 -43c114,-30 86,28 336,-44 136,-39 192,-34 329,-53 20,-36 24,-95 27,-136 -193,-18 -500,76 -655,148 -476,222 -804,599 -953,1098 -23,77 -51,305 -69,345z"/>
   <path class="fil1" d="M6991 5278c66,-35 109,-92 248,-82 236,16 403,245 696,350 433,155 780,-102 621,-261 -64,-64 -196,-52 -202,52 45,-19 34,-59 106,-51 97,12 140,172 -91,232 -175,45 -400,-14 -531,-96 -69,-43 -121,-89 -189,-131 -136,-84 -298,-183 -472,-156 -90,14 -192,58 -186,143z"/>
   <path class="fil1" d="M7081 4469c2,2 5,1 6,5 1,4 70,21 69,108 -1,27 5,4 -5,22 -34,28 -29,-35 -62,-54 -30,-18 -114,-11 -117,103 34,-24 5,-21 48,-43 37,16 13,11 38,23 20,10 95,3 72,137 -15,85 -50,0 -91,61 -27,41 6,80 51,80 57,0 50,-34 72,-78 114,-9 169,123 245,180l83 70c8,-48 29,-78 17,-129 -14,-60 -25,-57 -25,-130 -99,13 -204,-15 -248,-84 11,-88 72,-82 97,-139 30,-70 -20,-116 -79,-127 21,43 36,19 23,81 -8,39 -13,61 -56,48 -1,-2 -2,-8 -2,-7 -1,4 26,-215 -136,-126z"/>
   <path class="fil1" d="M7114 5456c122,-115 184,-131 376,-16 116,69 227,148 388,181 -21,-23 -159,-102 -200,-130 -71,-48 -129,-96 -199,-141 -114,-73 -260,-109 -367,3 -42,44 -33,62 1,102z"/>
   <path class="fil1" d="M8731 6020c199,-64 437,-315 453,-571 -33,23 -24,25 -53,72 -18,29 -34,53 -52,78l-118 142c-114,116 -48,-4 -112,138 -26,58 -88,97 -119,140z"/>
   <path class="fil1" d="M8163 6176c161,25 471,-108 553,-255 -36,6 -134,54 -183,71 -63,22 -127,43 -188,60 -12,48 28,43 -182,123z"/>
   <path class="fil1" d="M9403 4560c45,39 57,42 89,99 25,44 29,105 49,149 52,-107 -8,-295 -73,-394 -14,-21 -69,-85 -70,-87l6 233z"/>
   <path class="fil1" d="M9362 4959c51,21 50,29 71,89 19,57 18,81 18,144 101,-131 12,-371 -49,-482 -33,52 -36,180 -40,250z"/>
   <path class="fil1" d="M9564 4406c13,-97 -25,-193 -65,-265 -44,-81 -89,-136 -167,-177 -1,44 17,93 26,137 19,90 1,65 69,102 75,42 103,111 137,203z"/>
   <path class="fil1" d="M8775 4107c13,57 4,18 36,53 19,21 22,23 17,61 -11,3 -37,-5 -61,10 35,55 45,-4 57,60 -28,24 -71,18 -103,30l69 67c147,-55 174,-68 95,-251 -17,-40 -68,-52 -109,-30z"/>
   <path class="fil1" d="M9501 3967c-25,-146 -181,-287 -322,-322 15,53 67,184 120,196 62,14 64,6 116,44 58,41 38,35 73,71 2,2 5,4 6,6 2,1 4,4 7,6z"/>
   <path class="fil1" d="M9279 3541c-56,-151 -389,-235 -380,-165 0,0 102,128 155,119 143,-24 117,8 225,46z"/>
   <path class="fil1" d="M9262 5568c90,-106 147,-341 78,-500 -2,2 -4,3 -4,7l-81 228c-1,23 28,67 29,128 1,64 -15,87 -22,138z"/>
   <path class="fil1" d="M7739 6130c116,36 416,31 492,-64 -61,0 -237,-6 -282,0 -63,9 -8,1 -50,23 -44,23 -118,15 -160,40z"/>
   <path class="fil1" d="M8169 5820c-14,-28 -12,-18 -82,-48 -96,-41 -209,-103 -314,-88 25,20 69,38 161,112 48,39 158,43 235,24z"/>
   <path class="fil1" d="M7530 4632l174 48 36 -89c-40,-35 -114,-77 -168,-78 -18,33 -36,72 -42,119z"/>
   <path class="fil1" d="M8629 3814c113,-3 130,79 153,115 16,25 6,12 22,27 4,-148 -100,-275 -203,-312l28 171z"/>
   <path class="fil1" d="M8455 5746c-58,-49 -268,-80 -356,-74 18,23 117,83 156,104 48,25 157,2 201,-30z"/>
   <path class="fil1" d="M8065 2844c152,65 57,53 134,83 26,-40 51,-104 63,-161l-198 -7 1 85z"/>
   <path class="fil1" d="M8483 4831c81,-17 187,-95 211,-106l-66 14c-6,-79 38,-106 62,-141 11,-16 2,0 14,-23 -122,29 -200,124 -220,255z"/>
   <path class="fil1" d="M7605 4460l158 97c18,-37 41,-58 53,-87 -16,-24 -98,-95 -127,-105 -30,22 -69,57 -85,95z"/>
   <path class="fil1" d="M8633 3260c91,74 176,13 246,-1l78 -14c2,-1 6,-2 8,-3 2,-1 5,-2 7,-3 -105,-43 -272,-78 -339,21z"/>
   <path class="fil1" d="M7521 4798c49,25 109,23 164,17l12 -98 -177 -44 2 124z"/>
   <path class="fil1" d="M8220 4900c223,-3 117,-36 175,-126 28,-42 48,-41 69,-86 -121,25 -205,111 -244,212z"/>
   <path class="fil1" d="M8593 4060c121,88 58,114 105,190 46,-120 21,-249 -68,-336l-37 146z"/>
   <path class="fil1" d="M7719 4950l-23 -97 -164 2c20,124 59,157 187,96z"/>
   <path class="fil1" d="M8481 4479c84,-64 120,-253 81,-321 -9,-15 -4,-8 -15,-18 -22,41 -78,82 -60,141 32,100 13,108 -6,198z"/>
   <path class="fil1" d="M7842 5822c-36,-46 -266,-174 -360,-188l64 60c127,108 97,108 296,128z"/>
   <path class="fil1" d="M7280 5510c16,-32 10,-27 40,-41 91,-9 16,156 -40,41zm-1 -74c-150,44 -48,174 49,155 105,-21 67,-189 -49,-155z"/>
   <path class="fil1" d="M8736 4702c64,-23 133,-80 166,-122l-32 -122c-60,49 -111,134 -134,243z"/>
   <path class="fil1" d="M8248 4588c81,-40 156,-139 158,-284 -141,84 -108,133 -127,204 -9,32 -23,49 -31,80z"/>
   <path class="fil1" d="M7736 4327c22,32 83,99 114,115l91 -60 -109 -97 -97 42z"/>
   <path class="fil1" d="M8390 5650c94,66 205,66 301,0 -46,-34 -204,-34 -267,-16l-34 16z"/>
   <path class="fil1" d="M7972 4810c16,46 58,71 118,80 29,-38 6,-36 55,-74 27,-22 59,-30 83,-52 -68,-14 -203,21 -256,47z"/>
   <path class="fil1" d="M7606 5020c50,104 98,96 177,44 -6,-53 -14,-36 -31,-77l-146 33z"/>
   <path class="fil1" d="M8565 3480c-38,148 49,102 83,104 25,2 60,14 88,20 -14,-26 -17,-33 -32,-49 -24,-28 -82,-74 -110,-79 -44,-7 -12,-4 -29,4z"/>
   <path class="fil1" d="M8064 4688c40,-23 0,7 24,-18 40,-41 80,-135 87,-201 -26,10 -27,11 -49,27 -83,60 -58,60 -62,192z"/>
   <path class="fil1" d="M7320 5870c-8,-21 2,-14 -41,-39 -85,-50 -82,-45 -209,-39 44,41 167,104 250,78z"/>
   <path class="fil1" d="M8013 4199c17,34 31,48 53,81 43,1 85,-11 111,-30 -30,-38 -31,-18 -84,-81l-80 30z"/>
   <path class="fil1" d="M8128 4140c20,36 48,63 82,79 38,-11 53,-23 75,-63 -79,-23 -85,-83 -158,-16z"/>
   <path class="fil1" d="M7730 5152c49,23 62,42 126,32l29 -53 -65 -48c-33,12 -71,43 -90,70z"/>
   <path class="fil1" d="M9018 4941l102 -16 -3 -122c-24,8 -48,32 -67,47 -35,28 -36,33 -33,91z"/>
   <path class="fil1" d="M7142 5744c-11,-19 -1,-7 -14,-21 -8,-9 -14,-13 -22,-19 -13,-10 -33,-24 -48,-32 -38,-19 -94,-22 -137,-25 11,14 17,22 36,37 13,9 31,20 50,30 41,21 83,34 135,30z"/>
   <path class="fil1" d="M6990 5598c-9,-28 -40,-64 -61,-78 -31,-20 -86,-22 -127,-24 29,55 96,96 189,101z"/>
   <path class="fil1" d="M6878 5427c-16,-93 -66,-118 -157,-107 18,47 80,104 157,107z"/>
   <path class="fil1" d="M8838 3728c17,26 23,36 52,49 86,-39 65,-97 0,-140l-52 92z"/>
   <path class="fil1" d="M8976 5163l97 13 29 -92c-76,-1 -142,-11 -126,80z"/>
   <path class="fil1" d="M8925 3813c15,37 18,41 45,66 38,-9 40,-12 63,-38 -4,-33 -25,-73 -43,-99l-37 33c-23,23 -14,6 -28,39z"/>
   <path class="fil1" d="M8646 5575c69,48 96,31 150,-24 -25,-21 -30,-29 -66,-47 -42,14 -65,32 -84,70z"/>
   <path class="fil1" d="M8860 5370c50,88 100,33 133,-30l-92 -32c-30,26 -29,25 -41,62z"/>
   <path class="fil1" d="M8212 4082c40,15 47,32 88,46 48,-18 44,-33 65,-68l-114 -34 -39 56z"/>
   <path class="fil1" d="M8924 5267c22,14 51,33 83,39 19,-21 50,-59 49,-90l-101 -14 -30 65z"/>
   <path class="fil1" d="M8977 3919l22 81c78,-12 113,-18 60,-120 -35,10 -46,26 -83,38z"/>
   <path class="fil1" d="M8771 5460l37 63c48,-10 63,-33 94,-63 -10,-11 3,0 -16,-16l-56 -40 -59 55z"/>
   <path class="fil1" d="M9012 4041l5 83c111,20 90,-28 82,-106l-87 23z"/>
   <path class="fil1" d="M8968 4389l80 24c15,-34 29,-64 37,-105l-84 -4 -32 85z"/>
   <path class="fil1" d="M9012 4257l79 7 19 -102c-98,3 -99,-6 -98,95z"/>
   <path class="fil1" d="M9003 5047l98 4 22 -92c-93,18 -114,-3 -120,89z"/>
   <path class="fil1" d="M8280 3990c18,13 24,15 51,21 54,12 64,5 84,-75l-100 -2c-12,16 -26,36 -34,56z"/>
   <path class="fil1" d="M7871 5220l107 27 20 -77 -78 -22c-22,24 -39,47 -49,73z"/>
   <path class="fil1" d="M6772 5085c-3,-81 -36,-145 -108,-151 23,73 45,127 108,151z"/>
   <path class="fil1" d="M8013 4772c-1,-62 -20,-98 -26,-147 -3,2 -7,1 -8,6 -2,6 -34,20 -38,80 -5,61 20,57 73,61z"/>
   <path class="fil1" d="M8914 4497c60,45 79,-1 111,-47 -27,-20 -43,-22 -75,-30l-25 36c-8,17 -9,22 -11,41z"/>
   <path class="fil1" d="M8178 5197l-3 62c75,-8 121,7 122,-67l-119 4z"/>
   <path class="fil1" d="M7881 4259c12,14 31,36 47,50l83 -15c-10,-29 -5,-26 -42,-65 -40,1 -57,16 -89,30z"/>
   <path class="fil1" d="M8036 5190l-11 59c86,19 101,20 103,-58l-69 -7c-26,2 -14,2 -24,6z"/>
   <path class="fil1" d="M7280 5510c56,115 130,-50 40,-41 -30,14 -24,9 -40,41z"/>
   <path class="fil1" d="M8800 3683l45 -73 -69 -51c12,133 -25,101 25,124z"/>
   <path class="fil1" d="M8334 3896l84 6 14 -95c-31,19 -83,67 -98,89z"/>
  </g>
 </g>
</svg>
