<?xml version="1.0" encoding="UTF-8"?>
<!DOCTYPE svg PUBLIC "-//W3C//DTD SVG 1.1//EN" "http://www.w3.org/Graphics/SVG/1.1/DTD/svg11.dtd">
<!-- Creator: CorelDRAW -->
<svg xmlns="http://www.w3.org/2000/svg" xml:space="preserve" width="1890px" height="1417px" version="1.1" style="shape-rendering:geometricPrecision; text-rendering:geometricPrecision; image-rendering:optimizeQuality; fill-rule:evenodd; clip-rule:evenodd"
viewBox="0 0 1890 1418"
 xmlns:xlink="http://www.w3.org/1999/xlink"
 xmlns:xodm="http://www.corel.com/coreldraw/odm/2003">
 <defs>
  <style type="text/css">
   <![CDATA[
    .str1 {stroke:#D5967E;stroke-width:17;stroke-miterlimit:22.9256}
    .str0 {stroke:#ED9E84;stroke-width:17;stroke-miterlimit:22.9256}
    .fil0 {fill:none}
    .fil1 {fill:#FEFEFE}
    .fil6 {fill:#398AC9}
    .fil5 {fill:#404040}
    .fil8 {fill:#8B8B8B}
    .fil7 {fill:#FEFEFE}
    .fil3 {fill:#D6957B;fill-rule:nonzero}
    .fil2 {fill:url(#id0)}
    .fil4 {fill:url(#id1)}
   ]]>
  </style>
  <linearGradient id="id0" gradientUnits="userSpaceOnUse" x1="363" y1="625" x2="1088" y2="625">
   <stop offset="0" style="stop-opacity:0.239216; stop-color:#FBCC9B"/>
   <stop offset="1" style="stop-opacity:1; stop-color:#FEFEFE"/>
  </linearGradient>
  <linearGradient id="id1" gradientUnits="userSpaceOnUse" x1="445" y1="625" x2="1002" y2="625">
   <stop offset="0" style="stop-opacity:0.368627; stop-color:#BBC274"/>
   <stop offset="0.780392" style="stop-opacity:0.262745; stop-color:#DCE0B9"/>
   <stop offset="1" style="stop-opacity:0.156863; stop-color:#FEFEFE"/>
  </linearGradient>
 </defs>
 <g id="Слой_x0020_1">
  <metadata id="CorelCorpID_0Corel-Layer"/>
  <rect class="fil0" x="25" y="23" width="1856" height="1383"/>
  <rect class="fil1" x="1029" y="598" width="608" height="238"/>
  <g id="_2754492664064">
   <circle class="fil2 str0" cx="725" cy="625" r="362"/>
   <ellipse class="fil0" cx="722" cy="624" rx="287" ry="292"/>
   <path class="fil3" d="M425 557l2 -10c3,0 6,0 8,-1 2,-1 3,-4 4,-7 1,-3 1,-6 0,-8 -1,-2 -2,-3 -4,-4 -1,0 -2,0 -3,0 -1,0 -2,1 -3,3 -1,1 -2,3 -4,7 -3,5 -6,8 -8,10 -4,2 -7,3 -11,2 -3,-1 -5,-2 -7,-4 -2,-2 -3,-5 -3,-8 0,-3 0,-6 1,-10 2,-6 4,-10 8,-13 4,-2 8,-3 12,-2l-2 10c-3,0 -5,0 -6,1 -2,1 -3,3 -3,6 -1,3 -1,5 0,7 0,1 1,2 3,2 1,0 2,0 3,-1 1,-1 3,-4 6,-8 2,-4 5,-8 7,-10 2,-2 4,-3 7,-4 3,-1 5,-1 8,0 3,1 5,2 7,5 2,2 3,5 4,8 0,3 0,7 -1,11 -2,6 -5,11 -8,13 -4,3 -9,3 -14,2zm31 -43l-47 -21 4 -9 47 21 -4 9zm5 -14l-15 -29 -29 2 6 -10 18 -1 -8 -16 6 -10 14 26 32 -2 -6 11 -21 1 10 18 -6 11zm24 -71l6 -8c3,2 6,3 8,2 2,0 5,-2 7,-4 2,-2 3,-5 4,-7 0,-2 -1,-4 -2,-5 -1,-1 -2,-1 -3,-1 -1,0 -2,0 -4,1 -1,1 -4,2 -7,4 -5,3 -9,5 -12,5 -4,0 -8,-1 -11,-4 -2,-2 -3,-4 -4,-7 -1,-3 -1,-5 1,-8 1,-3 3,-6 6,-9 4,-5 9,-7 13,-8 4,0 8,1 12,4l-7 8c-2,-2 -4,-2 -6,-2 -2,0 -4,1 -6,4 -2,2 -3,4 -3,6 0,1 0,2 1,3 1,1 2,1 3,1 2,0 5,-2 9,-4 4,-3 8,-5 10,-6 3,-1 5,-1 8,-1 3,1 5,2 7,4 2,2 4,5 4,7 1,3 1,6 0,9 -1,3 -3,6 -6,9 -4,5 -9,7 -13,8 -5,0 -9,-1 -14,-5zm47 -24l-34 -39 8 -7 34 39 -8 7zm24 -42l-5 -7 19 -12 11 17c-1,3 -2,6 -5,10 -3,4 -6,7 -9,9 -4,3 -9,4 -14,5 -5,0 -9,-1 -13,-3 -4,-2 -7,-6 -10,-10 -3,-5 -5,-9 -5,-14 0,-5 1,-9 3,-13 2,-3 5,-6 9,-9 5,-3 10,-5 15,-5 4,0 8,2 12,6l-8 7c-2,-2 -4,-3 -7,-3 -2,0 -5,1 -7,2 -4,2 -6,6 -7,9 -1,4 1,8 4,13 3,5 7,8 11,9 4,1 8,0 11,-2 2,-1 3,-3 5,-5 1,-2 2,-4 3,-6l-4 -6 -10 6zm37 -1l-19 -48 14 -6 22 29 -5 -36 14 -6 19 48 -9 4 -15 -38 6 42 -9 4 -24 -34 15 38 -9 4zm101 -29l-11 2 -6 -11 -20 4 -2 12 -11 2 10 -54 11 -2 29 47zm-22 -17l-10 -18 -3 20 14 -2zm43 0l10 -1c1,3 2,6 3,8 2,2 4,3 7,3 3,0 6,-1 8,-2 2,-1 3,-3 3,-5 0,-1 0,-2 -1,-3 -1,-1 -2,-2 -4,-2 -1,0 -4,-1 -8,-2 -5,-2 -9,-3 -11,-5 -3,-3 -5,-6 -4,-11 0,-3 1,-5 2,-7 2,-2 4,-4 6,-5 3,-1 6,-2 10,-2 6,0 11,2 14,5 3,3 5,7 5,12l-10 0c0,-3 -1,-5 -3,-6 -1,-1 -4,-2 -6,-2 -3,0 -5,0 -7,2 -1,1 -2,2 -2,3 0,1 0,2 1,3 1,1 4,2 9,4 5,1 9,3 11,4 2,1 4,3 5,5 1,2 2,5 2,8 0,3 -1,6 -3,8 -2,3 -4,4 -7,6 -3,1 -7,2 -11,2 -6,0 -11,-2 -15,-5 -3,-3 -5,-8 -6,-13zm61 22l8 -42 -15 -3 2 -9 40 7 -2 9 -15 -3 -8 42 -10 -2zm69 21l-11 -4 0 -13 -19 -7 -8 10 -10 -4 36 -43 10 4 2 56zm-11 -26l0 -20 -13 16 13 5zm21 33l22 -37 -13 -8 4 -8 35 20 -4 8 -13 -8 -22 37 -9 -5zm27 17l30 -42 8 6 -30 42 -8 -6zm25 -3l8 6c-2,3 -3,6 -2,8 0,2 2,5 4,7 2,2 5,3 7,3 2,0 4,-1 5,-2 1,-1 1,-2 1,-3 0,-1 0,-2 -1,-4 -1,-1 -2,-3 -5,-7 -3,-5 -5,-9 -5,-12 0,-4 1,-8 3,-11 2,-2 4,-3 7,-4 3,-1 5,-1 8,0 3,1 6,3 9,5 5,4 7,8 8,13 1,4 -1,8 -4,12l-8 -7c1,-2 2,-4 2,-6 0,-2 -2,-4 -4,-6 -2,-2 -4,-3 -6,-3 -1,0 -2,0 -3,1 -1,1 -1,2 -1,3 0,2 2,5 5,9 3,4 5,8 6,10 1,3 1,5 1,8 0,3 -2,5 -4,8 -2,2 -4,4 -7,5 -3,1 -6,1 -9,0 -3,-1 -6,-3 -10,-6 -5,-4 -8,-9 -8,-13 -1,-5 1,-9 4,-14zm33 56l34 -26 -9 -12 7 -5 25 32 -7 5 -9 -12 -34 26 -6 -8zm19 25l44 -28 5 9 -44 28 -6 -9zm43 37l2 10c-6,1 -11,1 -15,-1 -4,-2 -7,-5 -10,-10 -3,-6 -3,-12 -1,-18 2,-6 7,-11 14,-15 8,-4 15,-5 21,-3 6,2 11,6 14,12 3,6 3,11 2,16 -1,3 -3,6 -6,9l-7 -8c2,-2 3,-4 4,-6 1,-2 0,-5 -1,-7 -2,-3 -4,-6 -8,-6 -4,-1 -8,0 -14,3 -6,3 -9,6 -11,9 -1,3 -1,7 0,10 1,2 3,4 6,5 2,1 6,1 9,0zm5 19l4 9c-3,2 -5,3 -6,6 -1,2 -1,5 0,8 1,3 2,5 4,7 2,1 4,2 5,1 1,0 2,-1 3,-2 1,-1 1,-2 1,-4 0,-1 0,-4 0,-9 0,-6 0,-10 2,-13 2,-4 5,-6 9,-7 3,-1 5,-1 8,0 3,1 5,2 7,5 2,2 3,5 4,9 2,6 2,11 0,15 -2,4 -5,7 -10,8l-3 -10c2,-1 4,-3 5,-4 1,-2 1,-4 0,-7 -1,-3 -2,-5 -4,-6 -1,-1 -2,-1 -4,-1 -1,0 -2,1 -3,2 -1,2 -1,5 -1,10 0,5 0,9 -1,12 -1,3 -2,5 -4,7 -2,2 -4,3 -7,4 -3,1 -6,1 -9,0 -3,-1 -5,-3 -7,-5 -2,-3 -4,-6 -5,-10 -2,-6 -2,-11 0,-15 2,-4 6,-7 11,-9z"/>
   <g>
    <ellipse class="fil0" cx="723" cy="625" rx="271" ry="279"/>
    <circle class="fil4 str1" cx="723" cy="625" r="278"/>
    <path class="fil3" d="M527 878l5 9c-5,3 -9,5 -14,4 -4,0 -9,-2 -13,-6 -5,-4 -8,-10 -8,-16 0,-6 2,-12 8,-18 6,-6 11,-10 18,-10 6,-1 12,1 17,6 5,4 7,9 8,14 0,3 0,7 -2,10l-9 -5c1,-2 2,-5 1,-7 0,-2 -2,-4 -4,-6 -3,-2 -6,-3 -9,-3 -3,0 -7,3 -11,7 -4,5 -6,9 -6,12 0,4 1,7 4,9 2,2 4,3 7,3 3,0 5,-1 8,-3zm10 30l23 -35 -12 -8 5 -7 33 22 -5 7 -12 -8 -23 35 -8 -6zm63 36l-10 -5 2 -12 -18 -9 -9 8 -9 -5 41 -35 9 5 -6 54zm-7 -26l3 -20 -15 13 12 6zm20 29l14 -39 -14 -5 3 -8 37 13 -3 8 -14 -5 -14 39 -10 -3zm40 -39l9 2 -6 33 26 -29 10 2 -9 49 -9 -2 6 -32 -26 28 -10 -2 9 -49zm73 40l10 3c-2,5 -4,9 -8,12 -4,3 -8,4 -13,4 -7,0 -12,-3 -16,-7 -4,-5 -6,-11 -6,-19 0,-8 3,-15 7,-19 4,-4 10,-7 17,-6 6,0 11,2 15,6 2,2 4,5 5,9l-10 2c-1,-3 -2,-5 -3,-6 -2,-2 -4,-2 -7,-2 -4,0 -7,1 -9,4 -2,3 -4,7 -4,13 0,6 1,11 3,14 2,3 5,4 9,4 3,0 5,-1 7,-2 2,-2 3,-4 4,-8zm31 17l-5 -41 -15 2 -1 -8 39 -5 1 8 -15 2 5 41 -10 1zm21 -53l9 -3 9 32 11 -38 10 -3 13 48 -9 3 -9 -32 -11 37 -10 3 -13 -48zm41 -12l9 -4 9 19c2,-1 3,-2 3,-3 0,-1 0,-4 0,-9 0,-6 0,-10 2,-12 1,-2 4,-4 8,-6 0,0 1,0 1,-1l3 7 -1 1c-2,1 -3,2 -4,3 -1,1 -1,2 -1,3 0,1 0,4 0,7 0,2 0,3 0,5 0,1 -1,3 -2,5 2,0 5,0 7,1 2,1 5,3 8,5l12 10 -11 5 -11 -9c0,0 0,0 -1,-1 0,0 -1,-1 -2,-2 -2,-2 -4,-3 -5,-3 -1,0 -2,0 -4,1l9 20 -9 4 -21 -46zm98 4l-9 6 -10 -7 -17 11 2 12 -9 6 -10 -53 9 -6 43 32zm-26 -7l-16 -12 4 19 12 -7z"/>
   </g>
  </g>
  <image id="Statistics_x0020_cloud.jpg" x="476" y="509" width="475" height="240" xlink:href="featured_Images\featured_ImgID1.png"/>
  <g id="_2754492657344">
   <path class="fil5" d="M709 744c12,-16 31,-49 42,-62l0 95 24 -1 0 -133 -24 0c-6,3 -33,52 -42,62l-40 -62 -26 0 0 134 24 -1 0 -92 7 8c7,10 31,48 36,52z"/>
   <path class="fil6" d="M1398 770c5,-1 119,-55 129,-61 -6,-4 -125,-61 -129,-62l0 123z"/>
   <path class="fil5" d="M1301 734c-8,42 -66,28 -57,-15 3,-15 18,-28 36,-23 15,4 24,20 20,38zm-57 30c9,5 10,11 25,14 57,11 78,-75 29,-100 -29,-15 -47,6 -55,11l0 -53 -24 0 0 140 24 -1 0 -12z"/>
   <path class="fil5" d="M1175 734c2,41 -56,33 -45,7 2,-5 6,-7 11,-9 11,-3 23,0 34,2zm-60 -52l6 19c22,-6 54,-14 54,17 -17,-2 -29,-7 -47,-1 -14,5 -23,16 -22,33 2,25 31,33 51,26 9,-3 11,-7 17,-11l0 11 23 0c-1,-52 12,-100 -42,-103 -19,-1 -26,4 -41,8z"/>
   <path class="fil5" d="M882 777c0,-18 0,-36 0,-53 0,-17 5,-29 23,-29 17,0 21,14 21,30 0,17 0,35 0,52l23 0c0,-46 11,-104 -37,-104 -7,0 -13,2 -18,5 -6,3 -7,7 -12,10l0 -13 -23 0 0 101 24 0z"/>
   <path class="fil6" d="M1570 694l0 -71 -145 0c0,0 1,0 1,1l16 9c6,3 12,6 18,9 13,6 24,12 37,18 12,6 66,33 73,35z"/>
   <path class="fil6" d="M1570 724c-4,0 -139,66 -146,71l26 0 120 -1 0 -70z"/>
   <path class="fil5" d="M1026 696l12 0c6,41 -18,99 51,78l0 -20c-17,4 -27,7 -27,-14 0,-13 -1,-32 0,-44l27 0 0 -20 -27 0 0 -28 -24 0 0 27 -12 0 0 20z"/>
   <path class="fil7" d="M1301 734c3,-18 -6,-34 -20,-38 -18,-5 -33,8 -36,23 -10,43 49,57 57,15z"/>
   <polygon class="fil5" points="805,777 829,777 829,676 805,676 "/>
   <polygon class="fil5" points="979,777 1002,777 1002,676 979,676 "/>
   <path class="fil7" d="M1175 734c-10,-2 -23,-6 -34,-2 -6,2 -9,4 -11,9 -11,27 47,34 45,-7z"/>
   <path class="fil8" d="M1597 623c-9,3 -13,11 -10,22 2,8 12,13 23,10 19,-6 12,-40 -13,-32z"/>
   <polygon class="fil5" points="805,661 830,661 830,638 805,638 "/>
   <polygon class="fil5" points="978,661 1003,661 1003,638 978,638 "/>
  </g>
 </g>
</svg>
