<?xml version="1.0" encoding="UTF-8"?>
<!DOCTYPE svg PUBLIC "-//W3C//DTD SVG 1.1//EN" "http://www.w3.org/Graphics/SVG/1.1/DTD/svg11.dtd">
<!-- Creator: CorelDRAW -->
<svg xmlns="http://www.w3.org/2000/svg" xml:space="preserve" width="1890px" height="1417px" version="1.1" style="shape-rendering:geometricPrecision; text-rendering:geometricPrecision; image-rendering:optimizeQuality; fill-rule:evenodd; clip-rule:evenodd"
viewBox="0 0 1890 1418"
 xmlns:xlink="http://www.w3.org/1999/xlink"
 xmlns:xodm="http://www.corel.com/coreldraw/odm/2003">
 <defs>
  <style type="text/css">
   <![CDATA[
    .str1 {stroke:#D5967E;stroke-width:17;stroke-miterlimit:22.9256}
    .str0 {stroke:#ED9E84;stroke-width:17;stroke-miterlimit:22.9256}
    .fil1 {fill:none}
    .fil5 {fill:#FEFEFE}
    .fil7 {fill:#211D21}
    .fil4 {fill:#35388A}
    .fil3 {fill:#D62718}
    .fil2 {fill:#D6957B;fill-rule:nonzero}
    .fil0 {fill:url(#id0)}
    .fil6 {fill:url(#id1)}
   ]]>
  </style>
  <linearGradient id="id0" gradientUnits="userSpaceOnUse" x1="603" y1="680" x2="1185" y2="680">
   <stop offset="0" style="stop-opacity:0.239216; stop-color:#FBCC9B"/>
   <stop offset="1" style="stop-opacity:1; stop-color:#FEFEFE"/>
  </linearGradient>
  <linearGradient id="id1" gradientUnits="userSpaceOnUse" x1="669" y1="679" x2="1116" y2="679">
   <stop offset="0" style="stop-opacity:0.368627; stop-color:#BBC274"/>
   <stop offset="0.780392" style="stop-opacity:0.262745; stop-color:#DCE0B9"/>
   <stop offset="1" style="stop-opacity:0.156863; stop-color:#FEFEFE"/>
  </linearGradient>
 </defs>
 <g id="Слой_x0020_1">
  <metadata id="CorelCorpID_0Corel-Layer"/>
  <g id="_3023073415360">
   <g>
    <g>
     <circle class="fil0 str0" cx="894" cy="680" r="291"/>
     <ellipse class="fil1" cx="891" cy="679" rx="230" ry="234"/>
     <path class="fil2" d="M662 648l-41 -7 1 -8 34 6 4 -20 7 1 -5 28zm7 -34l-39 -13 10 -29 7 2 -7 21 9 3 6 -19 7 2 -6 19 11 4 7 -22 7 2 -10 30zm31 -68l-4 8 -10 -2 -8 14 7 8 -4 8 -28 -34 4 -8 44 6zm-22 5l-16 -3 11 12 6 -10zm24 -9l-32 -27 5 -6 32 5 -21 -18 5 -6 32 27 -5 6 -32 -5 21 18 -5 6zm39 -42l-24 -34 10 -7 23 19 -11 -27 10 -7 24 34 -6 4 -19 -27 13 31 -6 5 -26 -22 19 27 -6 5zm73 -43l-8 4 -7 -7 -15 7 1 10 -8 4 -3 -44 8 -4 32 31zm-21 -9l-12 -12 1 16 10 -5zm25 7l-10 -41 8 -2 23 23 -6 -27 7 -2 10 41 -8 2 -22 -23 6 27 -7 2zm37 -50l8 -1 2 22c0,4 1,6 1,7 0,2 1,3 3,4 1,1 3,1 6,1 2,0 4,-1 5,-2 1,-1 2,-2 2,-4 0,-1 0,-4 0,-7l-2 -23 8 -1 2 22c0,5 0,9 0,11 0,2 -1,4 -2,5 -1,2 -3,3 -5,4 -2,1 -5,2 -8,2 -4,0 -7,0 -9,-1 -2,-1 -4,-2 -5,-3 -1,-1 -2,-3 -3,-4 -1,-2 -1,-6 -2,-10l-2 -22zm44 40l3 -41 28 2 -1 7 -20 -2 -1 10 17 1 -1 7 -17 -1 -1 18 -8 -1zm68 12l-9 -2 -1 -10 -16 -4 -5 8 -9 -2 25 -37 9 2 6 44zm-11 -20l-2 -16 -9 14 11 3zm45 19l6 6c-3,4 -6,6 -10,7 -4,1 -7,0 -11,-2 -5,-2 -8,-6 -10,-11 -2,-5 -1,-10 2,-16 3,-6 7,-10 12,-12 5,-2 10,-2 15,1 5,2 8,5 9,9 1,2 1,5 1,9l-8 -2c0,-2 0,-4 -1,-6 -1,-2 -2,-3 -4,-4 -3,-1 -5,-1 -8,0 -3,1 -5,4 -7,9 -2,5 -3,9 -2,11 1,3 3,5 5,6 2,1 4,1 6,0 2,-1 4,-2 6,-5zm15 26l20 -28 -10 -7 4 -6 26 19 -4 6 -10 -7 -20 28 -7 -5zm50 -15l6 6 -16 16c-2,3 -4,4 -5,5 -1,1 -1,3 -1,5 0,2 1,3 3,5 2,2 3,2 5,3 2,0 3,0 4,-1 1,-1 3,-2 5,-5l16 -17 6 6 -15 16c-3,4 -6,6 -8,7 -2,1 -4,2 -5,2 -2,0 -4,0 -6,-1 -2,-1 -4,-2 -7,-5 -3,-3 -5,-5 -5,-7 -1,-2 -1,-4 -1,-6 0,-2 1,-4 2,-5 1,-2 4,-5 7,-8l15 -16zm0 59l34 -24 10 14c3,4 4,6 5,8 1,2 0,4 -1,6 -1,2 -2,4 -4,5 -3,2 -5,3 -8,2 -3,0 -5,-2 -8,-4 0,2 0,4 0,6 0,2 -1,4 -3,8l-4 9 -6 -8 4 -10c1,-4 2,-6 2,-7 0,-1 0,-2 0,-3 0,-1 -1,-2 -2,-4l-1 -1 -14 10 -5 -7zm24 -7l4 5c2,3 4,5 5,6 1,1 2,1 3,1 1,0 2,0 3,-1 1,-1 2,-2 2,-3 0,-1 0,-2 0,-3 0,-1 -1,-2 -3,-5l-4 -5 -9 6zm-2 41l36 -20 4 7 -36 20 -4 -7zm8 14l39 -15 3 7 -20 26 26 -10 3 7 -39 15 -3 -8 20 -25 -26 10 -3 -7zm33 54l7 -2 4 17 -16 4c-2,-1 -4,-3 -6,-6 -2,-3 -3,-6 -4,-9 -1,-4 -1,-8 0,-12 1,-4 3,-6 6,-9 3,-2 6,-4 10,-5 4,-1 8,-1 12,0 4,1 7,3 9,6 2,2 3,5 4,9 1,5 1,9 -1,12 -1,3 -4,6 -8,7l-3 -8c2,-1 3,-2 4,-4 1,-2 1,-4 0,-6 -1,-4 -3,-6 -5,-8 -3,-2 -6,-2 -11,-1 -5,1 -8,3 -10,6 -2,3 -3,6 -2,9 0,2 1,3 2,5 1,2 2,3 3,4l5 -1 -2 -9z"/>
     <g>
      <ellipse class="fil1" cx="892" cy="680" rx="218" ry="224"/>
      <g>
       <path class="fil3" d="M825 849c2,0 2,-2 3,-4 6,-10 8,-10 13,-17 1,-1 2,-2 3,-3 11,-11 13,-13 23,-22l12 -10c10,-8 39,-30 49,-36l-32 -56c-1,-2 -4,-6 -4,-8l-38 65c-6,11 -13,22 -19,33 -3,6 -17,29 -19,33 2,-1 3,-2 5,-5l18 -16c2,-1 3,-2 5,-4 9,-6 43,-30 52,-33 -15,10 -30,21 -43,33 -1,1 -2,1 -3,3l-8 8c-7,6 -37,35 -38,38l21 0z"/>
       <path class="fil4" d="M963 819c-4,-7 -20,-32 -23,-38 -2,-5 0,-6 2,-8l36 -36c-3,1 -5,3 -8,5l-23 17c-6,5 -16,12 -22,18l-7 6c-2,2 -5,4 -7,7 -8,9 -10,10 -18,22 -8,12 -14,26 -7,39l96 0 -18 -31z"/>
       <ellipse class="fil5" transform="matrix(0.371938 -0.420477 0.420477 0.371938 921.963 825.058)" rx="35" ry="22"/>
       <g>
        <path class="fil5" d="M933 859c2,-2 14,-18 19,-23 0,0 0,0 0,0 0,0 0,0 0,0 1,-1 2,-2 2,-1 1,4 -4,13 -6,17 1,-3 3,-7 3,-10 -4,8 -11,12 -19,18z"/>
       </g>
       <path class="fil1" d="M933 859c7,-5 17,-14 19,-22 2,-5 1,5 -3,12 0,0 -1,3 -1,3"/>
      </g>
      <circle class="fil6 str1" cx="892" cy="679" r="224"/>
      <path class="fil2" d="M665 663l-1 30 -7 0 1 -22 -9 0 0 11c0,3 -1,5 -1,7 -1,2 -2,4 -4,5 -2,1 -4,2 -7,2 -3,0 -5,-1 -7,-2 -2,-1 -3,-3 -4,-5 -1,-2 -1,-4 -1,-8l1 -19 40 1zm-34 7l0 8c0,3 0,4 0,5 0,1 1,2 2,3 1,1 2,1 3,1 2,0 3,-1 4,-2 1,-1 1,-4 1,-7l0 -8 -10 0zm-6 32l40 -5 3 30 -7 1 -2 -21 -9 1 2 20 -7 1 -2 -20 -11 1 3 22 -7 1 -3 -30zm5 37l39 -11 3 13c1,5 2,8 2,9 0,2 -1,5 -2,7 -2,2 -4,3 -7,4 -2,1 -4,1 -6,0 -2,0 -3,-1 -5,-2 -1,-1 -2,-2 -3,-4 -1,-2 -2,-4 -3,-8l-1 -5 -15 4 -2 -8zm34 -1l-11 3 1 4c1,3 2,5 2,6 1,1 2,2 3,2 1,0 2,0 3,0 1,0 2,-1 3,-2 1,-1 1,-2 1,-4 0,-1 -1,-3 -1,-6l-1 -4zm-24 37l37 -16 12 27 -6 3 -9 -20 -8 4 8 18 -6 3 -8 -18 -10 4 9 20 -6 3 -12 -28zm62 34l-14 9c1,1 2,2 3,2 1,0 3,0 7,-1 4,-1 8,-1 9,0 2,1 4,3 6,6 0,0 0,0 1,1l-5 3 -1 -1c-1,-1 -2,-2 -2,-3 -1,0 -2,-1 -3,-1 -1,0 -3,0 -6,1 -1,0 -3,1 -4,1 -1,0 -2,0 -4,-1 1,2 0,4 0,5 -1,2 -2,4 -3,7l-6 11 -5 -8 6 -10c0,0 0,0 0,-1 0,0 1,-1 1,-2 1,-2 2,-3 2,-4 0,-1 0,-2 -1,-2l-15 9 -4 -7 15 -9c-1,-1 -1,-1 -2,-2 -1,0 -2,0 -4,0 -1,0 -2,0 -2,0 0,0 -1,0 -1,0l-11 2 -5 -8 12 -1c3,0 6,0 8,0 2,0 4,1 5,2 0,-2 0,-3 1,-4 0,-1 1,-2 2,-3 2,-2 3,-4 3,-5 0,-1 1,-2 1,-3 0,-1 -1,-2 -2,-4 0,0 0,0 -1,-1l5 -3c0,1 1,1 1,1 2,3 3,6 3,8 0,2 -1,5 -4,8 -2,3 -3,5 -4,6 0,1 0,2 0,3l14 -9 4 7zm11 18l19 21 -29 28 -6 -6 24 -23 -8 -9 -13 12c-4,3 -6,6 -8,7 -2,1 -3,2 -5,1 -2,0 -3,-1 -5,-3 -1,-1 -2,-2 -3,-4l5 -4 1 1c1,1 2,2 3,2 1,0 2,0 3,-2l5 -5 17 -16zm21 23l6 5 -17 21 29 -11 6 5 -25 31 -6 -5 16 -21 -29 10 -6 -5 25 -31zm26 22l14 8c3,2 5,3 6,4 1,1 2,2 3,4 1,1 1,3 1,4 0,2 0,3 -1,5 -1,2 -2,3 -4,4 -2,1 -3,1 -5,1 2,2 3,4 3,6 0,2 0,4 -1,6 -1,2 -2,3 -4,4 -2,1 -3,2 -5,2 -2,0 -4,0 -6,-1 -1,-1 -4,-2 -9,-5l-12 -7 20 -35zm4 10l-5 8 5 3c3,2 4,3 5,3 1,1 2,1 4,0 1,0 2,-1 3,-2 1,-1 1,-2 1,-3 0,-1 -1,-2 -2,-3 -1,0 -3,-2 -6,-4l-4 -2zm-8 14l-5 9 7 4c3,1 4,2 5,3 1,0 2,0 3,0 1,0 2,-1 3,-2 1,-1 1,-2 1,-3 0,-1 -1,-2 -1,-3 -1,-1 -3,-2 -6,-4l-6 -3zm24 12c2,-4 3,-7 6,-9 2,-2 3,-3 6,-4 2,-1 4,-1 6,-1 3,0 6,1 9,2 6,2 9,6 11,10 2,5 2,10 -1,16 -2,6 -6,10 -11,12 -5,2 -10,2 -15,0 -6,-2 -9,-6 -11,-10 -2,-5 -2,-10 1,-16zm8 3c-2,4 -2,8 -1,11 1,3 3,5 6,6 3,1 6,1 9,0 3,-1 5,-4 7,-9 2,-4 2,-8 1,-11 -1,-3 -3,-5 -6,-6 -3,-1 -6,-1 -9,0 -3,1 -5,4 -7,8zm27 32l9 -39 29 7 -2 7 -21 -5 -2 9 20 5 -2 7 -20 -5 -3 11 22 5 -2 7 -30 -7zm54 -30l32 1 -1 40 -8 0 1 -33 -16 -1 -1 33 -8 0 1 -40zm39 41l-5 -40 13 -2c5,-1 8,-1 10,-1 2,0 4,1 6,3 2,2 3,4 3,8 0,2 0,5 -1,6 -1,2 -2,3 -3,4 -1,1 -3,2 -4,2 -2,1 -5,1 -8,2l-5 1 2 15 -8 1zm4 -34l1 11 4 -1c3,0 5,-1 6,-1 1,-1 2,-1 2,-2 1,-1 1,-2 1,-3 0,-1 -1,-3 -2,-3 -1,-1 -2,-1 -3,-1 -1,0 -3,0 -6,0l-4 0zm25 11c-1,-4 -1,-7 -1,-10 0,-2 1,-4 2,-6 1,-2 2,-4 4,-5 2,-2 5,-3 8,-4 6,-2 11,-1 15,1 4,3 8,7 9,13 2,6 1,12 -1,16 -2,5 -6,8 -12,9 -6,2 -11,1 -15,-1 -4,-3 -7,-7 -9,-13zm8 -3c1,4 3,7 6,9 3,2 6,2 9,1 3,-1 5,-3 7,-6 1,-3 1,-6 0,-11 -1,-4 -3,-7 -6,-9 -3,-2 -5,-2 -9,-1 -3,1 -6,3 -7,6 -1,3 -1,6 0,11zm24 -28l7 -3 11 24 4 -31 7 -3 17 37 -7 3 -11 -24 -4 31 -7 3 -17 -37zm42 -9l-8 3c-2,-6 0,-12 7,-16 4,-3 8,-4 11,-3 3,0 5,2 7,4 1,2 1,3 1,5 0,2 -1,4 -2,6 3,-1 5,-1 7,0 2,1 4,2 5,4 2,3 2,6 1,9 -1,3 -4,6 -8,9 -4,2 -7,3 -10,4 -3,0 -6,-1 -9,-4l5 -6c2,2 4,2 5,2 1,0 3,-1 5,-2 2,-1 3,-3 4,-4 0,-2 0,-3 -1,-4 -1,-1 -2,-2 -4,-2 -2,0 -4,1 -6,2l-2 1 -3 -5 1 -1c2,-1 3,-3 4,-4 1,-2 0,-3 -1,-5 -1,-1 -2,-2 -3,-2 -1,0 -3,0 -5,1 -3,2 -4,4 -3,8zm14 -21l12 -11c2,-2 4,-4 6,-5 1,-1 3,-1 4,-2 1,0 3,0 5,0 2,0 3,1 4,3 1,1 2,3 2,5 0,2 0,4 -1,5 2,-1 5,-1 7,-1 2,0 4,1 6,3 1,1 2,3 3,5 1,2 1,4 0,5 0,2 -1,3 -3,5 -1,1 -3,3 -7,7l-10 9 -27 -30zm11 -1l6 7 4 -4c2,-2 4,-3 4,-4 1,-1 1,-2 1,-3 0,-1 0,-2 -1,-3 -1,-1 -2,-1 -3,-2 -1,0 -2,0 -3,1 -1,0 -2,2 -5,5l-3 3zm11 12l7 8 6 -5c2,-2 3,-3 4,-4 1,-1 1,-2 1,-3 0,-1 0,-2 -1,-3 -1,-1 -2,-1 -3,-2 -1,0 -2,0 -3,0 -1,0 -3,2 -6,4l-5 4zm19 -19c-3,-3 -5,-5 -7,-8 -1,-2 -2,-4 -2,-6 0,-2 0,-4 1,-6 1,-3 2,-5 4,-8 4,-5 8,-7 13,-7 5,0 10,2 15,6 5,4 8,9 8,14 1,5 -1,10 -5,14 -4,5 -8,7 -13,7 -5,0 -10,-1 -15,-6zm5 -7c4,3 7,4 10,4 3,0 6,-1 8,-4 2,-3 3,-5 2,-8 0,-3 -3,-6 -6,-9 -4,-3 -7,-4 -10,-4 -3,0 -6,1 -8,4 -2,3 -3,5 -3,8 0,3 2,6 6,9zm6 -39l14 -24 29 17 2 -3 13 8 -4 6 -7 -5 -13 22 7 5 -4 6 -13 -8 2 -3c-2,-3 -5,-6 -8,-9 -4,-3 -8,-6 -14,-10l-4 -2zm10 -3c10,6 17,12 21,17l8 -13 -23 -14 -6 10zm40 -37l5 -6c4,3 6,6 7,10 1,3 0,7 -1,11 -2,5 -6,8 -10,10 -5,2 -10,1 -16,-1 -6,-3 -10,-6 -12,-11 -2,-5 -2,-10 0,-15 2,-5 5,-8 9,-9 2,-1 5,-1 8,-1l-2 8c-2,0 -4,0 -6,1 -2,1 -3,2 -4,4 -1,3 -1,5 0,8 1,3 4,5 8,7 5,2 8,3 11,2 3,-1 5,-3 6,-5 1,-2 1,-4 0,-6 -1,-2 -2,-4 -5,-6zm21 -15l-32 -9 -3 11 -7 -2 9 -31 7 2 -3 11 32 9 -2 8zm-32 -32l2 -16c0,-3 1,-6 1,-7 0,-2 1,-3 2,-4 1,-1 2,-2 4,-3 1,-1 3,-1 5,-1 2,0 4,1 5,2 1,1 2,3 3,4 1,-2 2,-4 4,-5 2,-1 4,-2 6,-1 2,0 4,1 5,2 2,1 3,2 4,4 1,2 1,3 1,6 0,1 0,5 -1,10l-2 14 -40 -5zm8 -7l9 1 1 -5c0,-3 1,-5 1,-6 0,-1 0,-3 -1,-3 -1,-1 -2,-1 -3,-2 -1,0 -2,0 -3,1 -1,1 -1,2 -2,3 0,1 0,3 -1,7l-1 5zm16 2l11 1 1 -7c0,-3 0,-5 0,-6 0,-1 -1,-2 -1,-3 -1,-1 -2,-1 -3,-2 -1,0 -2,0 -3,1 -1,0 -2,1 -2,2 -1,1 -1,3 -1,7l-1 7zm2 -27c-4,0 -8,0 -10,-1 -2,-1 -4,-2 -6,-4 -2,-2 -3,-3 -4,-5 -1,-2 -2,-5 -2,-9 0,-6 1,-11 5,-14 4,-4 9,-6 15,-6 7,0 12,1 15,5 4,3 6,8 6,14 0,6 -1,11 -5,14 -4,4 -9,6 -15,6zm-1 -8c5,0 8,-1 10,-4 2,-2 3,-5 3,-8 0,-3 -1,-6 -4,-8 -2,-2 -6,-3 -11,-3 -5,0 -8,1 -10,3 -2,2 -3,5 -3,8 0,3 1,6 4,8 2,2 6,3 11,3z"/>
     </g>
    </g>
   </g>
   <path class="fil7" d="M934 579l-27 0c-4,0 -6,-1 -5,3 6,1 49,-1 54,1l0 14c-5,2 -34,0 -42,0l0 3 42 0 0 14 -55 0 0 3 22 0c2,3 4,5 5,9l2 12 -29 0 0 3c2,1 30,0 32,0l89 0c3,0 6,1 7,-1 1,-3 -4,-5 -5,-6 -8,-6 -6,-6 -12,0 -3,3 -2,3 -7,3 -7,0 -14,0 -21,0 0,-2 6,-7 8,-10 1,-1 2,-2 3,-3l7 0c1,-4 -4,-4 -6,-8 6,0 13,0 19,0 4,0 15,1 17,-1 0,-3 -11,-10 -12,-10 -3,1 -6,6 -8,8 -2,1 -12,1 -15,1 -10,0 -21,0 -31,0l0 -15c8,0 43,1 48,-1 0,-3 -3,-4 -5,-6 -2,-1 -4,-3 -6,-4l-7 7 -30 0 0 -15c12,-2 53,2 60,-1 0,-4 -3,-4 -5,-6 -8,-6 -5,-6 -12,0 -3,3 -2,3 -8,3 -7,0 -15,0 -22,0 1,-2 8,-11 9,-11 2,-2 3,0 5,-2 -1,-2 -7,-4 -9,-5 -2,0 -2,0 -2,0 -1,1 -7,16 -8,18l-30 0c0,-7 0,-9 -5,-13 -2,-2 -9,-6 -13,-6 0,2 0,1 1,2 2,2 3,3 5,6 1,2 4,8 4,11zm-135 52c2,0 2,-1 4,-2 7,-6 12,-15 18,-22 1,2 2,22 9,38l5 11c-3,5 -18,16 -24,19 -9,5 -13,7 -22,11 -2,1 -6,2 -7,4 4,3 28,-8 32,-10 14,-7 24,-17 25,-18 1,1 1,0 2,2l10 9c4,4 18,13 22,14 2,-2 3,-4 6,-5l3 -1c0,0 0,0 -1,-1 -1,-1 0,0 -1,-1 -1,0 -2,-1 -3,-1l-15 -8c-7,-4 -16,-12 -18,-13 0,-2 5,-10 7,-12 2,-4 4,-8 6,-13 3,-8 6,-17 8,-25 0,-2 1,-3 2,-3 3,0 15,1 17,-1 2,-2 -3,-5 -4,-6 -2,-1 -4,-4 -6,-4 -2,1 -5,5 -7,6 -2,1 -36,1 -40,0 1,-3 5,-10 6,-14 2,-5 4,-10 6,-15l4 0c1,-4 -1,-4 -4,-5 -2,-1 -5,-3 -7,-3 -1,2 -5,16 -6,19 -7,19 -10,26 -21,43 -1,2 -5,6 -5,8zm127 58l0 -7 68 0c0,4 -1,5 1,7 2,2 5,-2 6,-3l0 -26c2,-2 7,-1 -1,-7 -3,-2 -3,-3 -5,-3l-3 4c-4,1 -50,0 -58,0 -3,0 -6,0 -9,-1 -2,-1 -5,-3 -7,-3 0,2 -1,35 0,39 1,5 6,0 7,-1zm-135 -113l-35 0c-1,5 1,4 6,4 7,0 26,0 31,0l0 30c-3,0 -25,1 -28,-1 -2,-1 -5,-3 -7,-2 -1,9 0,20 0,29 0,10 0,20 0,30 0,5 4,6 9,6l30 0c19,0 10,-7 9,-8 -2,-2 0,-15 -1,-19l-1 -2c-1,0 -1,0 -2,2 -2,7 -2,18 -7,20 -4,1 -26,1 -30,0 -1,-2 -1,-48 0,-51 4,0 25,-1 27,0 2,2 -2,14 6,7 1,-1 1,0 1,-2 0,-6 -1,-34 0,-37 2,-1 3,0 5,-2 0,-3 -4,-4 -7,-7 -1,-1 -2,-1 -3,-2l-4 5zm135 103l66 0c1,0 0,0 1,0 1,-2 0,-16 0,-20 -2,-1 -62,-1 -68,0 0,3 0,18 0,20zm-87 -30c3,-1 9,-16 11,-21 3,-8 5,-17 6,-26l-32 0c0,11 9,42 15,47zm96 -8c3,0 20,1 21,0 1,-1 0,-18 0,-21 -3,-1 -25,0 -29,0 1,1 3,3 4,4 3,3 6,5 6,11 0,4 -1,4 -1,6zm45 -1l7 -18c0,-2 0,-1 -5,-1l-18 0 0 21 15 0 1 -1zm0 0l-1 1 -15 0 0 -21 18 0c5,0 5,-1 5,1 1,-1 1,1 1,-1 -2,-1 -23,-1 -24,0 -1,3 -1,19 0,21 2,1 13,1 16,0l1 -2z"/>
  </g>
  <rect class="fil1" x="25" y="23" width="1856" height="1383"/>
 </g>
</svg>
