<?xml version="1.0" standalone="no"?>
<svg xmlns="http://www.w3.org/2000/svg" viewBox="0 0 512 512">
<g transform="matrix(1,0,0,-1,0,700.000000)">
<path d="M543.923193,32.500000 C480.000000,32.500000 480.000000,32.500000 431.500000,33.007943 C411.496852,33.217437 382.118654,34.098783 381.500000,34.507943 C380.983079,34.849820 380.710001,35.500000 381.083333,35.500000 C381.286339,35.500000 382.166667,36.657328 382.166667,36.924211 C382.166667,37.528151 384.134488,38.680281 385.583333,38.924619 C389.000000,39.500816 389.000000,39.500816 498.845518,39.250408 C498.845518,39.250408 608.691036,39.000000 608.691036,39.000000 C608.268711,35.750000 607.846386,32.500000 607.846386,32.500000 C607.846386,32.500000 543.923193,32.500000 543.923193,32.500000" stroke="#000000" stroke-width="0.000000" fill="currentColor" fill-rule="evenodd" />
<path d="M592.683874,51.500000 C590.998429,51.500000 589.078444,52.396027 588.844159,53.291935 C588.579945,54.302292 586.874791,54.908664 584.934731,54.682173 C582.610697,54.410856 581.292037,55.289815 580.871952,57.390238 C580.445862,59.520690 578.626374,60.500000 575.094238,60.500000 C571.789808,60.500000 569.515649,59.379806 568.760950,57.380379 C568.033556,55.453293 566.420671,54.431413 564.541712,54.707186 C562.439579,55.015713 561.500000,56.674380 561.500000,60.076807 C561.500000,62.565225 562.658487,66.005940 563.842499,67.034042 C565.054307,68.086282 566.533230,72.910960 566.906445,77.029532 C566.906445,77.029532 567.627893,84.990979 567.627893,84.990979 C567.627893,84.990979 575.313946,85.324607 575.313946,85.324607 C578.865821,85.478782 583.672351,84.970221 584.250000,84.379117 C584.777345,83.839488 585.500000,78.363425 585.500000,74.906989 C585.500000,70.467687 586.187240,66.450259 587.000000,66.138374 C587.716192,65.863545 588.500000,63.143333 588.500000,60.932609 C588.500000,60.932609 588.500000,56.302448 588.500000,56.302448 C592.250000,58.518177 596.000000,60.733905 596.000000,60.733905 C596.000000,60.733905 592.125050,71.866953 592.125050,71.866953 C589.884727,78.303586 588.828653,83.546935 589.621583,84.296532 C592.136126,86.673659 595.301085,84.895958 596.666169,80.339713 C597.906805,76.198841 597.906805,76.198841 599.020092,75.158875 C599.619744,74.598716 600.726715,76.238098 601.419416,78.712180 C602.705452,83.305452 602.705452,83.305452 603.852726,84.464595 C605.534911,86.164182 608.887433,85.538707 609.719639,83.370013 C609.888552,82.929832 606.938378,72.389366 605.512640,68.339129 C603.485593,62.580694 599.392623,53.837771 598.397610,53.140837 C597.726387,52.670693 593.649788,51.500000 592.683874,51.500000M574.060365,74.750000 C573.500000,71.000000 573.500000,71.000000 573.500000,69.250000 C573.500000,68.437500 574.571429,67.500000 575.500000,67.500000 C576.818182,67.500000 577.500000,69.375000 577.500000,73.000000 C577.500000,76.089793 576.869124,78.500000 576.060365,78.500000 C575.412926,78.500000 574.312375,76.436468 574.060365,74.750000" stroke="#000000" stroke-width="0.000000" fill="currentColor" fill-rule="evenodd" />
<path d="M199.159562,61.372597 C196.917258,60.979684 192.582818,61.044034 191.493523,61.486409 C188.060476,62.880609 186.500000,66.690300 186.500000,73.677420 C186.500000,82.073292 188.154466,84.580893 194.535976,85.857195 C195.934645,86.136929 200.184529,85.177653 202.278711,84.109519 C205.386788,82.524249 207.028134,79.471054 207.245252,74.870873 C207.654524,66.199440 205.420320,62.469653 199.159562,61.372597M193.738760,73.218109 C193.980037,69.526739 194.903271,68.013903 196.894203,68.047519 C198.995639,68.083001 199.618829,69.581538 199.354289,73.963098 C199.354289,73.963098 199.000000,79.831159 199.000000,79.831159 C199.000000,79.831159 196.198846,79.133688 196.198846,79.133688 C194.277917,78.655389 193.504869,76.796499 193.738760,73.218109" stroke="#000000" stroke-width="0.000000" fill="currentColor" fill-rule="evenodd" />
<path d="M223.249809,61.206707 C220.058487,60.533111 216.529124,61.141121 214.249809,62.757155 C211.827857,64.474318 210.500000,68.102626 210.500000,73.003338 C210.500000,82.303180 212.982558,85.500000 220.204545,85.500000 C221.317242,85.500000 226.343945,84.693871 226.750000,84.450310 C227.369902,84.078478 228.500000,81.730507 228.500000,80.814386 C228.500000,78.957509 227.275792,78.395948 224.159067,78.823143 C217.929617,79.676984 217.500000,79.272265 217.500000,72.550000 C217.500000,72.550000 217.500000,68.000000 217.500000,68.000000 C217.500000,68.000000 223.000000,67.921072 223.000000,67.921072 C226.975510,67.864021 228.500000,67.076120 228.500000,65.078508 C228.500000,63.292483 226.642791,61.922868 223.249809,61.206707" stroke="#000000" stroke-width="0.000000" fill="currentColor" fill-rule="evenodd" />
<path d="M236.359568,60.820405 C235.560568,60.670009 233.173276,61.210836 232.750000,61.638131 C232.185745,62.207744 231.500000,68.919850 231.500000,73.873193 C231.500000,82.006933 232.211597,84.948315 234.250000,85.240295 C238.288462,85.818763 239.500000,84.563310 239.500000,79.800000 C239.500000,77.605822 240.412663,76.500000 242.223574,76.500000 C244.025618,76.500000 245.082389,77.918135 245.346852,80.691286 C245.603365,83.381081 246.866676,85.034258 248.873278,85.305989 C248.873278,85.305989 252.000000,85.729406 252.000000,85.729406 C252.000000,85.729406 252.304854,74.364703 252.304854,74.364703 C252.451031,68.915350 251.956554,62.349373 251.354854,61.750000 C248.428052,58.834519 246.004971,60.428269 245.653487,65.500000 C245.413042,68.969488 244.458018,70.500000 242.533539,70.500000 C240.676288,70.500000 239.588167,68.974569 239.239620,65.882273 C238.938549,63.211175 237.724446,61.077316 236.359568,60.820405" stroke="#000000" stroke-width="0.000000" fill="currentColor" fill-rule="evenodd" />
<path d="M268.518897,60.815832 C259.819505,59.785518 256.500000,63.151591 256.500000,73.003338 C256.500000,83.000668 258.625448,85.500000 267.127238,85.500000 C274.935946,85.500000 277.500000,82.435260 277.500000,73.101733 C277.500000,64.832727 275.136552,61.599596 268.518897,60.815832M263.939305,73.315441 C264.500000,69.000000 264.500000,69.000000 264.500000,68.250000 C264.500000,68.144854 266.725881,67.500000 267.088821,67.500000 C269.004316,67.500000 269.567818,69.125560 269.255389,73.750000 C269.255389,73.750000 268.833135,80.000000 268.833135,80.000000 C268.833135,80.000000 266.105872,78.815441 266.105872,78.815441 C264.349463,78.052563 263.578206,76.094667 263.939305,73.315441" stroke="#000000" stroke-width="0.000000" fill="currentColor" fill-rule="evenodd" />
<path d="M289.000000,60.500000 C288.251511,60.500000 283.577464,61.353270 283.250000,61.549690 C282.238123,62.156637 281.500000,67.309713 281.500000,73.767001 C281.500000,73.767001 281.500000,84.934622 281.500000,84.934622 C281.500000,84.934622 288.250000,85.241184 288.250000,85.241184 C293.501312,85.479680 299.149955,83.567817 300.354235,81.144335 C301.590382,78.656722 301.116816,75.999247 299.229516,74.832831 C298.615994,74.453654 298.890857,73.161431 299.819052,72.061224 C302.902966,68.405802 301.480510,63.623151 296.796333,61.898090 C293.000000,60.500000 293.000000,60.500000 289.000000,60.500000M291.000000,70.500000 C289.590576,70.500000 288.500000,69.576685 288.500000,68.383423 C288.500000,67.094580 289.477680,66.453741 291.000000,66.744751 C294.528348,67.419237 294.528348,70.500000 291.000000,70.500000M290.531385,79.500000 C289.677128,79.500000 288.500000,78.630794 288.500000,78.000000 C288.500000,77.287688 289.868996,76.500000 291.106989,76.500000 C292.536849,76.500000 293.454076,77.177292 293.138374,78.000000 C292.967697,78.444775 291.133724,79.500000 290.531385,79.500000" stroke="#000000" stroke-width="0.000000" fill="currentColor" fill-rule="evenodd" />
<path d="M317.430473,60.892638 C311.969257,60.685202 307.393981,61.515109 305.930473,62.978618 C303.058872,65.850219 302.717719,69.938125 305.069468,73.295716 C305.752943,74.271515 309.456163,75.949546 311.629441,76.268223 C314.601209,76.703985 316.117300,77.498613 315.377358,78.232616 C314.829105,78.776468 311.939741,79.114233 310.206533,78.837082 C307.507112,78.405427 306.126307,79.004020 305.792419,80.750643 C305.198159,83.859313 307.962844,85.500000 313.795455,85.500000 C320.988235,85.500000 323.500000,82.433574 323.500000,73.652443 C323.500000,69.999108 324.210200,66.441448 325.000000,66.138374 C325.473539,65.956660 326.500000,64.082736 326.500000,63.399950 C326.500000,61.888706 323.767693,61.133347 317.430473,60.892638M311.798281,68.750000 C312.538146,65.839961 316.500000,66.040686 316.500000,68.988210 C316.500000,69.706257 315.148915,70.500000 313.926676,70.500000 C312.461464,70.500000 311.544945,69.746423 311.798281,68.750000" stroke="#000000" stroke-width="0.000000" fill="currentColor" fill-rule="evenodd" />
<path d="M332.349690,60.500000 C331.958403,60.500000 329.784352,61.858782 329.549690,62.250000 C329.185688,62.856849 328.500000,70.238338 328.500000,73.550000 C328.500000,77.624448 329.188027,83.788027 329.700000,84.300000 C332.622250,87.222250 335.981317,85.553710 336.343488,81.000000 C336.589451,77.907415 337.608171,76.500000 339.600694,76.500000 C341.652627,76.500000 342.500000,77.719688 342.500000,80.673193 C342.500000,83.526317 343.528043,84.985740 345.750000,85.286932 C345.750000,85.286932 349.000000,85.727479 349.000000,85.727479 C349.299352,73.363739 349.598704,61.000000 349.598704,61.000000 C349.598704,61.000000 346.049352,61.075026 346.049352,61.075026 C343.403328,61.130958 342.500000,62.339857 342.500000,65.825026 C342.500000,69.220838 341.679143,70.500000 339.500000,70.500000 C337.394737,70.500000 336.500000,69.366667 336.500000,66.700000 C336.500000,62.331818 335.273772,60.500000 332.349690,60.500000" stroke="#000000" stroke-width="0.000000" fill="currentColor" fill-rule="evenodd" />
<path d="M375.950000,60.500000 C374.219457,60.500000 370.111218,61.288782 369.700000,61.700000 C367.403252,63.996748 367.403252,82.003252 369.700000,84.300000 C373.220775,87.820775 385.053642,85.709089 387.382824,81.144335 C388.512923,78.929557 387.745005,74.500000 386.230948,74.500000 C385.621791,74.500000 385.898633,73.363454 386.779007,72.250000 C387.551905,71.272476 388.292241,68.148724 388.088074,66.726562 C387.487260,62.541496 383.507563,60.500000 375.950000,60.500000M378.616631,70.500000 C377.529158,70.500000 376.500000,69.527551 376.500000,68.500000 C376.500000,65.681188 379.473115,65.681188 380.210251,68.500000 C380.511270,69.651099 379.834858,70.500000 378.616631,70.500000M378.031385,79.500000 C377.510462,79.500000 376.500000,78.510247 376.500000,78.000000 C376.500000,77.355958 377.702330,76.500000 378.606989,76.500000 C379.703516,76.500000 380.437932,77.219364 380.138374,78.000000 C380.026422,78.291740 378.329229,79.500000 378.031385,79.500000" stroke="#000000" stroke-width="0.000000" fill="currentColor" fill-rule="evenodd" />
<path d="M419.513051,60.852610 C417.863576,60.522715 416.153434,61.093625 415.693833,62.127610 C415.480719,62.607062 414.913058,71.735698 414.930782,74.398341 C414.930782,74.398341 415.000000,84.796682 415.000000,84.796682 C415.000000,84.796682 411.250614,83.447675 411.250614,83.447675 C408.587322,82.489437 407.148856,82.845339 406.284775,84.676312 C405.464302,86.414881 406.522042,88.281311 409.534161,90.410000 C414.000000,93.566044 414.000000,93.566044 416.575784,94.420270 C417.622509,94.767404 420.145430,94.718303 420.825784,94.337558 C421.819779,93.781290 422.500000,86.909977 422.500000,77.425310 C422.500000,77.425310 422.500000,61.450000 422.500000,61.450000 C422.500000,61.450000 419.513051,60.852610 419.513051,60.852610" stroke="#000000" stroke-width="0.000000" fill="currentColor" fill-rule="evenodd" />
<path d="M440.350000,60.500000 C436.000000,60.500000 436.000000,60.500000 433.750000,61.467776 C432.817720,61.868771 431.500000,63.772144 431.500000,64.717776 C431.500000,66.241871 433.374087,67.116519 437.141637,67.350761 C440.243746,67.543631 443.262991,68.718036 443.848980,69.959737 C444.620897,71.595416 443.355676,72.347236 439.259453,72.686927 C431.654684,73.317573 429.500000,75.770088 429.500000,83.795377 C429.500000,94.807802 443.739790,99.157750 449.723826,89.973319 C451.550987,87.168953 452.564103,81.758887 452.260205,76.428984 C451.960504,71.172674 450.316099,66.116099 448.227094,64.027094 C446.407799,62.207799 442.593754,60.500000 440.350000,60.500000M437.674550,83.412119 C437.882017,81.236974 439.218759,79.883375 441.361873,79.678298 C441.361873,79.678298 444.723747,79.356595 444.723747,79.356595 C444.723747,79.356595 444.321687,83.572591 444.321687,83.572591 C444.025852,86.674718 443.051658,87.661196 440.634364,87.306413 C438.372033,86.974373 437.450436,85.761806 437.674550,83.412119" stroke="#000000" stroke-width="0.000000" fill="currentColor" fill-rule="evenodd" />
<path d="M468.349690,60.500000 C467.958403,60.500000 465.784352,61.858782 465.549690,62.250000 C465.176503,62.872162 464.500000,70.647625 464.500000,74.314728 C464.500000,74.314728 464.500000,84.629456 464.500000,84.629456 C464.500000,84.629456 461.000614,83.364062 461.000614,83.364062 C458.550620,82.478132 457.132299,82.880423 456.270965,84.705575 C454.623040,88.197500 462.799224,94.500000 468.977196,94.500000 C468.977196,94.500000 472.000000,94.500000 472.000000,94.500000 C472.000000,94.500000 472.295443,78.745443 472.295443,78.745443 C472.441045,70.981187 471.959230,62.359230 471.345443,61.745443 C470.100000,60.500000 470.100000,60.500000 468.349690,60.500000" stroke="#000000" stroke-width="0.000000" fill="currentColor" fill-rule="evenodd" />
<path d="M489.850000,60.500000 C488.712266,60.500000 483.660523,61.303449 483.250000,61.549690 C482.656996,61.905388 481.500000,64.219379 481.500000,65.049690 C481.500000,66.778109 483.126682,67.500000 487.021439,67.500000 C490.336042,67.500000 492.998149,68.499212 493.681954,70.000000 C494.524708,71.849643 493.643714,72.500000 490.295374,72.500000 C488.328526,72.500000 484.165197,73.762116 482.931869,74.732252 C481.432556,75.911612 479.898615,79.665961 479.679738,82.691903 C479.435947,86.062283 480.516662,89.670508 482.305805,91.459651 C486.048645,95.202491 493.723770,95.685023 497.852852,92.437087 C503.858794,87.712812 504.083664,69.883664 498.211370,64.011370 C496.329355,62.129355 492.449491,60.500000 489.850000,60.500000M487.532881,81.500000 C487.805708,81.089188 490.799691,79.764795 491.656112,79.676082 C491.656112,79.676082 494.783167,79.352164 494.783167,79.352164 C494.783167,79.352164 494.219974,83.551086 494.219974,83.551086 C493.819064,86.540088 492.806721,87.625247 490.706725,87.317033 C487.237917,86.807920 485.781070,84.137807 487.532881,81.500000" stroke="#000000" stroke-width="0.000000" fill="currentColor" fill-rule="evenodd" />
<path d="M523.500000,60.500000 C521.900000,60.500000 521.900000,60.500000 520.700000,61.700000 C520.180144,62.219856 519.500000,68.709739 519.500000,73.150310 C519.500000,78.983690 520.254087,83.870034 521.250000,84.489983 C524.406054,86.454604 536.116643,85.283211 536.864118,82.928125 C537.818752,79.920342 536.034034,78.500000 531.300000,78.500000 C531.300000,78.500000 527.500000,78.500000 527.500000,78.500000 C527.500000,78.500000 527.500000,70.700000 527.500000,70.700000 C527.500000,67.539327 526.786257,62.186257 526.300000,61.700000 C525.100000,60.500000 525.100000,60.500000 523.500000,60.500000" stroke="#000000" stroke-width="0.000000" fill="currentColor" fill-rule="evenodd" />
<path d="M549.143986,60.500000 C541.346598,60.500000 538.046145,64.912709 538.726933,74.427612 C539.311199,82.593498 542.096928,85.500000 549.339234,85.500000 C557.620787,85.500000 560.815253,81.364176 560.200421,71.438199 C559.671616,62.901068 557.244593,60.500000 549.143986,60.500000M547.750000,67.500000 C549.000000,67.500000 549.000000,67.500000 550.750000,67.488210 C551.845500,67.480830 552.500000,69.580278 552.500000,73.101710 C552.500000,73.101710 552.500000,78.726999 552.500000,78.726999 C552.500000,78.726999 549.500000,78.286692 549.500000,78.286692 C547.416234,77.980860 546.500000,76.266434 546.500000,72.673193 C546.500000,70.069277 547.120815,67.500000 547.750000,67.500000" stroke="#000000" stroke-width="0.000000" fill="currentColor" fill-rule="evenodd" />
<path d="M292.250000,105.500000 C292.250000,105.500000 182.500000,105.500000 182.500000,105.500000 C182.500000,108.516693 182.500000,111.533386 182.500000,111.533386 C296.015156,111.266693 409.530312,111.000000 409.530312,111.000000 C409.530312,111.000000 408.913103,108.805747 408.913103,108.805747 C408.639454,107.832893 406.543636,106.302146 405.147947,106.055747 C402.000000,105.500000 402.000000,105.500000 292.250000,105.500000" stroke="#000000" stroke-width="0.000000" fill="currentColor" fill-rule="evenodd" />
<path d="M346.000000,147.998763 C268.636460,147.643281 233.033049,148.642854 226.000000,151.367788 C213.376266,156.258816 205.928839,162.349804 200.306375,172.381696 C195.656543,180.678169 195.656543,180.678169 194.551113,184.339084 C194.229283,185.404905 193.332961,195.797516 193.286665,199.000000 C193.189472,205.723301 194.894057,213.499118 197.670987,219.000000 C199.436815,222.497967 205.664001,231.341470 207.857163,233.465840 C213.500000,238.931680 213.500000,238.931680 213.500000,239.465840 C213.500000,240.000000 213.500000,240.000000 222.000000,249.000000 C230.500000,258.000000 230.500000,258.000000 230.500000,258.500000 C230.500000,259.000000 230.500000,259.000000 239.000000,268.000000 C247.500000,277.000000 247.500000,277.000000 247.500000,277.541792 C247.500000,278.083584 247.500000,278.083584 252.000000,282.500000 C256.500000,286.916416 256.500000,286.916416 256.500000,287.458208 C256.500000,288.000000 256.500000,288.000000 262.250000,294.333630 C262.250000,294.333630 268.000000,300.667261 268.000000,300.667261 C268.000000,300.667261 379.000000,301.489378 379.000000,301.489378 C422.888393,301.814436 492.723637,301.774717 494.504790,301.423685 C496.086614,301.111937 500.870327,298.739879 501.877310,297.767937 C503.300148,296.394612 504.997205,292.083309 505.245522,289.211136 C505.570893,285.447703 501.854242,279.149788 494.623002,271.211136 C483.500000,259.000000 483.500000,259.000000 483.500000,258.500000 C483.500000,258.000000 483.500000,258.000000 468.006705,241.500000 C468.006705,241.500000 452.513410,225.000000 452.513410,225.000000 C452.513410,225.000000 344.256705,223.815441 344.256705,223.815441 C281.343096,223.127032 234.678005,221.917803 232.843735,220.928406 C228.112779,218.376550 224.541520,214.785836 222.129958,210.156265 C219.487872,205.084147 219.345280,196.085814 221.810554,190.000000 C224.984909,182.163735 228.733064,178.310583 236.000000,175.413067 C239.111582,174.172398 283.489400,173.785004 353.500000,174.387357 C428.357477,175.031410 467.978673,176.288833 471.913543,178.145344 C473.950665,179.106479 483.291764,186.108186 486.163543,188.826564 C494.500000,196.717716 494.500000,196.717716 494.500000,197.405910 C494.500000,198.094104 494.500000,198.094104 498.250000,201.577782 C502.000000,205.061460 502.000000,205.061460 505.993854,210.530730 C509.987709,216.000000 509.987709,216.000000 522.513655,229.000000 C535.039600,242.000000 535.039600,242.000000 539.511066,248.000000 C543.982531,254.000000 543.982531,254.000000 552.241265,262.500000 C560.500000,271.000000 560.500000,271.000000 560.500000,271.531303 C560.500000,272.062607 560.500000,272.062607 566.500000,278.000000 C572.500000,283.937393 572.500000,283.937393 572.500000,284.506288 C572.500000,285.075184 572.500000,285.075184 577.459037,289.959653 C582.418075,294.844123 582.418075,294.844123 582.839090,295.922061 C584.226181,299.473479 592.420282,301.686162 597.702808,299.935764 C602.911166,298.209943 605.850769,293.177972 605.215127,287.076283 C604.976627,284.786868 603.262671,280.669057 602.093153,279.575686 C599.500000,277.151372 599.500000,277.151372 599.500000,276.533894 C599.500000,275.916416 599.500000,275.916416 595.000000,271.500000 C590.500000,267.083584 590.500000,267.083584 590.500000,266.541792 C590.500000,266.000000 590.500000,266.000000 564.000000,237.000000 C537.500000,208.000000 537.500000,208.000000 537.500000,207.500000 C537.500000,207.000000 537.500000,207.000000 529.245580,198.500000 C520.991160,190.000000 520.991160,190.000000 516.495580,184.022841 C512.000000,178.045683 512.000000,178.045683 506.750000,173.057001 C501.500000,168.068320 501.500000,168.068320 501.500000,167.378437 C501.500000,166.688554 501.500000,166.688554 492.750000,160.207808 C488.628670,157.155318 479.768073,152.616015 476.000000,151.626748 C468.000000,149.526434 468.000000,149.526434 462.000000,149.015321 C456.000000,148.504208 456.000000,148.504208 346.000000,147.998763" stroke="#000000" stroke-width="0.000000" fill="currentColor" fill-rule="evenodd" />
<path d="M343.528363,186.500000 C343.528363,186.500000 233.500000,186.500000 233.500000,186.500000 C233.500000,189.000000 233.500000,191.500000 233.500000,191.500000 C233.500000,191.500000 345.133997,191.500000 345.133997,191.500000 C423.784658,191.500000 459.165945,192.619647 464.883997,195.289510 C468.825425,197.129835 478.128069,204.459513 482.969739,209.539510 C482.736053,209.294321 491.280477,217.441401 491.318473,217.500000 C489.697469,215.000000 489.697469,215.000000 490.036108,214.446823 C490.374747,213.893646 490.374747,213.893646 484.937374,207.446823 C479.500000,201.000000 479.500000,201.000000 479.500000,200.250000 C479.500000,199.500000 479.500000,199.500000 478.750000,199.500000 C478.000000,199.500000 478.000000,199.500000 474.000000,195.860298 C472.494005,194.489955 464.873800,190.437197 461.778363,189.360298 C456.306270,187.456563 416.760185,186.500000 343.528363,186.500000" stroke="#000000" stroke-width="0.000000" fill="currentColor" fill-rule="evenodd" />
<path d="M67.162208,202.088617 C56.320679,199.098346 49.393789,197.974758 48.353987,199.037798 C47.991700,199.408182 44.712239,207.458699 44.149011,209.360298 C43.494908,211.568714 41.962805,219.252006 42.090806,219.681927 C42.860944,222.268637 47.263441,223.336559 49.194833,221.405167 C50.289667,220.310333 50.289667,220.310333 51.981350,214.281220 C51.981350,214.281220 53.673033,208.252106 53.673033,208.252106 C53.673033,208.252106 68.336517,212.338657 68.336517,212.338657 C75.339927,214.290431 84.175380,215.933552 85.250000,215.484043 C86.339140,215.028460 87.500000,213.009640 87.500000,211.571129 C87.500000,210.456911 86.507530,208.043966 85.912208,207.710807 C84.324416,206.822234 84.324416,206.822234 67.162208,202.088617" stroke="#000000" stroke-width="0.000000" fill="currentColor" fill-rule="evenodd" />
<path d="M743.193296,201.500000 C741.000000,201.500000 741.000000,201.500000 723.750000,206.322402 C711.453964,209.759877 706.500000,212.043097 706.500000,214.272712 C706.500000,215.532802 707.545006,218.026509 708.250000,218.448755 C709.094183,218.954365 713.752672,218.626638 717.250000,217.815601 C720.356664,217.095160 724.500000,216.683937 724.500000,217.096045 C724.500000,218.057777 724.500000,218.057777 718.000000,224.500000 C715.187636,227.287366 711.500000,232.405300 711.500000,233.521112 C711.500000,237.110543 712.758402,238.500000 716.009275,238.500000 C716.815650,238.500000 721.060264,235.092624 722.880915,232.983772 C722.880915,232.983772 727.643280,227.467544 727.643280,227.467544 C727.643280,227.467544 730.173087,229.457490 730.173087,229.457490 C734.830018,233.120633 742.926238,232.570017 747.377555,228.287432 C751.761159,224.069994 751.440304,210.142885 746.807148,203.528127 C746.363222,202.894335 743.878704,201.500000 743.193296,201.500000M735.720285,212.986497 C739.363673,212.302993 739.363673,212.302993 739.827670,211.838997 C740.730104,210.936562 742.184841,219.311774 741.376537,220.756133 C741.024175,221.385769 738.755830,222.500000 737.826382,222.500000 C736.376797,222.500000 734.558532,220.571142 733.664520,218.085000 C733.664520,218.085000 732.076896,213.670001 732.076896,213.670001 C732.076896,213.670001 735.720285,212.986497 735.720285,212.986497" stroke="#000000" stroke-width="0.000000" fill="currentColor" fill-rule="evenodd" />
<path d="M340.250000,203.500000 C340.250000,203.500000 231.500000,203.500000 231.500000,203.500000 C231.500000,206.000000 231.500000,208.500000 231.500000,208.500000 C231.500000,208.500000 342.250000,208.500000 342.250000,208.500000 C409.991052,208.500000 455.398827,209.282079 459.177088,210.513888 C461.655164,211.321804 469.140511,215.837833 471.677088,218.055337 C473.450073,219.605300 479.439187,223.618392 480.000000,223.632224 C481.369418,223.665999 481.291912,223.359995 479.754176,222.661680 C478.673606,222.170973 477.821124,220.826740 478.111165,220.070905 C478.354316,219.437264 478.053504,218.500000 477.606989,218.500000 C476.500000,218.500000 476.500000,218.500000 476.500000,217.750000 C476.500000,217.000000 476.500000,217.000000 472.750000,213.700357 C472.140858,213.164370 463.555847,207.946284 462.500000,207.470268 C456.000000,204.539821 456.000000,204.539821 452.500000,204.019911 C449.000000,203.500000 449.000000,203.500000 340.250000,203.500000" stroke="#000000" stroke-width="0.000000" fill="currentColor" fill-rule="evenodd" />
<path d="M482.078180,225.831717 C481.962514,225.043630 481.470127,224.739319 481.149653,225.257856 C480.930726,225.612088 481.097960,226.751525 481.395903,226.935665 C481.739020,227.147723 482.169177,226.451715 482.078180,225.831717" stroke="#000000" stroke-width="0.000000" fill="currentColor" fill-rule="evenodd" />
<path d="M57.799590,229.311862 C50.488681,228.441053 45.550083,229.042784 42.819606,231.137062 C37.575678,235.159158 36.500000,237.518807 36.500000,245.000000 C36.500000,253.081716 40.006098,257.512572 48.000000,259.533211 C52.000000,260.544300 52.000000,260.544300 62.000000,260.674888 C68.230936,260.756257 73.032210,259.724265 74.738636,257.936829 C78.441919,254.057741 79.500000,251.294001 79.500000,245.500000 C79.500000,239.140417 78.227188,236.806016 72.853091,233.309237 C70.842279,232.000857 63.088132,229.941785 57.799590,229.311862M47.314728,238.500000 C48.000000,238.500000 48.000000,238.500000 51.000000,238.005327 C55.600250,237.246787 64.681646,239.051231 68.750000,241.532195 C71.074349,242.949630 71.074349,248.476241 68.750000,250.884923 C67.668299,252.005871 63.601565,252.239063 58.100894,251.495557 C53.685433,250.898736 47.936919,249.027828 46.691285,247.782194 C45.119923,246.210832 44.638787,244.005096 45.405118,241.885845 C46.629456,238.500000 46.629456,238.500000 47.314728,238.500000" stroke="#000000" stroke-width="0.000000" fill="currentColor" fill-rule="evenodd" />
<path d="M750.700310,238.500000 C746.000000,238.500000 746.000000,238.500000 731.688931,240.698624 C727.406067,241.356605 716.019193,243.848896 715.438931,244.255328 C712.757004,246.133822 712.820576,248.910705 715.589914,250.850425 C716.808669,251.704074 721.914957,251.694724 727.839914,250.827995 C727.839914,250.827995 738.000000,249.341732 738.000000,249.341732 C738.000000,249.341732 727.783664,257.362648 727.783664,257.362648 C724.182001,260.190338 717.217789,266.878044 717.027466,267.691782 C716.857726,268.417519 717.272855,271.309398 717.632975,271.909896 C718.383486,273.161368 722.436356,273.424180 729.389172,272.672237 C740.000000,271.524681 740.000000,271.524681 749.633597,269.666773 C754.732489,268.683415 759.538453,266.912414 759.843460,265.904432 C759.998469,265.392160 759.684463,262.200739 759.413909,261.538666 C758.684326,259.753302 755.468381,259.424272 747.704047,260.340606 C747.704047,260.340606 737.000000,261.603881 737.000000,261.603881 C737.000000,261.603881 741.405274,257.750427 741.405274,257.750427 C745.810548,253.896973 745.810548,253.896973 751.076406,250.080789 C752.566436,249.000960 756.724417,244.735660 756.875224,244.132303 C757.821430,240.346657 755.796868,238.500000 750.700310,238.500000" stroke="#000000" stroke-width="0.000000" fill="currentColor" fill-rule="evenodd" />
<path d="M53.500000,264.982508 C49.041892,264.760532 41.353135,265.116151 40.137970,265.600526 C34.163473,267.982007 30.727407,275.881604 32.090342,284.102214 C32.604672,287.204428 32.604672,287.204428 34.175842,289.447587 C36.282542,292.455322 41.142021,291.821030 41.951009,288.432720 C42.138240,287.648533 41.843403,284.983525 41.515921,284.500000 C39.521356,281.555039 40.367509,276.450131 43.083793,275.040906 C47.211435,272.899459 62.727780,273.995034 65.250000,276.606012 C67.052918,278.472375 66.917918,283.576919 65.000000,286.058870 C61.355182,290.775580 67.158218,296.441782 71.345375,292.254625 C78.381069,285.218931 75.808308,270.088117 66.994690,266.667556 C66.197664,266.358230 56.294540,265.121652 53.500000,264.982508" stroke="#000000" stroke-width="0.000000" fill="currentColor" fill-rule="evenodd" />
<path d="M753.977273,277.806372 C747.000000,277.521683 747.000000,277.521683 734.500000,278.031840 C730.618825,278.190241 720.793364,279.251286 720.250000,279.570689 C718.139186,280.811475 717.842576,285.434937 719.750000,287.364524 C720.313591,287.934664 724.963071,288.456334 728.217040,288.314524 C728.217040,288.314524 735.434079,288.000000 735.434079,288.000000 C735.434079,288.000000 735.920569,292.000000 735.920569,292.000000 C736.767582,298.964286 736.212063,299.500000 728.143310,299.500000 C724.054433,299.500000 720.107080,300.301484 719.524467,301.250000 C719.013564,302.081770 718.979343,304.542096 719.459248,305.938990 C719.459248,305.938990 720.468943,308.877980 720.468943,308.877980 C720.468943,308.877980 740.905318,307.938990 740.905318,307.938990 C755.498711,307.268467 761.509050,306.285223 761.927043,304.500000 C762.119147,303.679536 761.803034,300.824325 761.456507,300.250000 C760.877047,299.289618 756.813360,298.500000 752.450310,298.500000 C752.450310,298.500000 744.500000,298.500000 744.500000,298.500000 C744.500000,293.105885 744.500000,287.711770 744.500000,287.711770 C752.727273,287.338150 760.954545,286.964530 760.954545,286.964530 C760.954545,282.527796 760.954545,278.091062 760.954545,278.091062 C760.954545,278.091062 753.977273,277.806372 753.977273,277.806372" stroke="#000000" stroke-width="0.000000" fill="currentColor" fill-rule="evenodd" />
<path d="M48.000000,301.529976 C41.404252,299.031587 34.089980,297.123615 33.152749,297.656982 C32.235347,298.179063 31.493488,300.318505 31.678962,301.907223 C31.914273,303.922829 35.613170,306.382929 41.678012,308.557492 C41.678012,308.557492 51.303598,312.008767 51.303598,312.008767 C51.303598,312.008767 42.534582,315.321601 42.534582,315.321601 C33.765565,318.634435 33.765565,318.634435 32.632783,319.767217 C29.496712,322.903288 32.468846,327.887635 37.000000,327.091156 C40.000000,326.563821 40.000000,326.563821 53.500000,320.604957 C67.000000,314.646093 67.000000,314.646093 69.295781,312.823047 C71.591562,311.000000 71.591562,311.000000 73.045781,308.000000 C74.500000,305.000000 74.500000,305.000000 74.500000,302.821429 C74.500000,299.399901 71.911819,297.179824 68.825911,297.954338 C67.721782,298.231456 66.101618,300.241908 65.810861,301.695695 C65.569394,302.903032 63.894658,305.335663 63.091194,305.646138 C62.144523,306.011951 53.885020,303.759150 48.000000,301.529976" stroke="#000000" stroke-width="0.000000" fill="currentColor" fill-rule="evenodd" />
<path d="M412.337325,305.157694 C363.095582,304.864108 298.256302,305.047865 296.895466,305.484860 C290.480051,307.544995 288.141806,311.041599 288.191999,318.500000 C288.220374,322.716462 297.382331,334.997716 314.271144,353.458101 C314.271144,353.458101 340.306546,381.916202 340.306546,381.916202 C340.306546,381.916202 447.891971,382.619339 447.891971,382.619339 C524.428559,383.119554 557.321896,384.430332 561.868663,387.161239 C569.777972,391.911775 573.500000,398.364254 573.500000,407.325236 C573.500000,409.027344 571.975067,415.497419 571.101909,417.500000 C567.951681,424.725018 564.357076,428.151932 557.000000,430.944048 C553.188394,432.390607 518.903555,433.089644 463.000000,432.860624 C375.000000,432.500114 375.000000,432.500114 350.000000,431.595436 C334.861512,431.047617 322.902757,429.582329 319.683263,427.880770 C318.963519,427.500373 309.236468,420.428347 308.433263,419.701488 C302.500000,414.332193 302.500000,414.332193 302.500000,413.624305 C302.500000,412.916416 302.500000,412.916416 298.000000,408.500000 C293.500000,404.083584 293.500000,404.083584 293.500000,403.541792 C293.500000,403.000000 293.500000,403.000000 282.242017,391.000000 C270.984033,379.000000 270.984033,379.000000 266.992017,373.750000 C263.000000,368.500000 263.000000,368.500000 262.250000,368.500000 C261.500000,368.500000 261.500000,368.500000 261.500000,367.750000 C261.500000,367.000000 261.500000,367.000000 234.451880,337.244226 C220.461307,321.853125 205.480407,307.056303 203.419621,306.593275 C193.775132,304.426302 186.512240,311.372402 188.355844,321.000000 C188.855559,323.609592 195.572991,332.693142 202.406651,340.000000 C215.500000,354.000000 215.500000,354.000000 215.500000,354.500000 C215.500000,355.000000 215.500000,355.000000 224.000000,364.000000 C232.500000,373.000000 232.500000,373.000000 232.500000,373.500000 C232.500000,374.000000 232.500000,374.000000 241.000000,383.000000 C249.500000,392.000000 249.500000,392.000000 249.500000,392.537592 C249.500000,393.075184 249.500000,393.075184 254.500000,398.000000 C259.500000,402.924816 259.500000,402.924816 259.500000,403.462408 C259.500000,404.000000 259.500000,404.000000 267.758735,412.500000 C276.017469,421.000000 276.017469,421.000000 280.508735,426.978657 C285.000000,432.957314 285.000000,432.957314 291.425711,439.163627 C292.336772,440.043581 303.490131,448.886780 304.421689,449.467788 C312.489652,454.499743 324.730507,457.391069 340.500000,457.989592 C354.000000,458.501978 354.000000,458.501978 454.385111,458.841216 C513.099509,459.039633 557.723673,458.442733 561.885111,457.403278 C581.486446,452.507206 594.433434,439.285133 598.999811,419.500000 C600.500000,413.000000 600.500000,413.000000 600.500000,407.500000 C600.500000,405.293255 598.553077,396.311650 597.248482,392.500000 C595.344876,386.938211 579.628233,367.004120 559.335807,344.413732 C559.335807,344.413732 524.674649,305.827464 524.674649,305.827464 C524.674649,305.827464 412.337325,305.157694 412.337325,305.157694" stroke="#000000" stroke-width="0.000000" fill="currentColor" fill-rule="evenodd" />
<path d="M725.218172,312.417452 C723.758465,311.752365 721.908523,312.091477 720.766518,313.233482 C717.680976,316.319024 716.256815,331.527167 718.652528,335.808069 C719.166487,336.726463 725.097636,337.994588 731.309848,338.514302 C743.000000,339.492301 743.000000,339.492301 751.434475,339.242113 C751.434475,339.242113 759.868949,338.991925 759.868949,338.991925 C759.868949,338.991925 760.665442,330.995963 760.665442,330.995963 C761.461935,323.000000 761.461935,323.000000 761.053058,319.078031 C760.768876,316.352141 759.512626,315.132265 756.933786,315.078031 C756.933786,315.078031 753.223391,315.000000 753.223391,315.000000 C753.223391,315.000000 752.818788,321.500000 752.818788,321.500000 C752.414186,328.000000 752.414186,328.000000 751.873760,329.250000 C751.444465,330.242954 747.490511,330.664701 745.349735,329.945883 C744.392091,329.624330 743.873837,327.001188 744.114924,323.695883 C744.530378,318.000000 744.530378,318.000000 743.931178,316.747967 C742.818507,314.423032 739.127103,314.015755 737.143756,315.999101 C736.398316,316.744541 735.500000,320.882834 735.500000,323.571429 C735.500000,327.306122 734.852410,329.500000 733.750000,329.500000 C732.000000,329.500000 732.000000,329.500000 729.482787,328.956041 C727.707951,328.572506 727.076202,326.221319 727.340687,320.983764 C727.587718,316.091842 726.862986,313.166879 725.218172,312.417452" stroke="#000000" stroke-width="0.000000" fill="currentColor" fill-rule="evenodd" />
<path d="M83.037983,315.227242 C83.161711,315.690271 84.704793,338.181017 84.315481,333.847056 C84.977197,341.213513 85.610193,353.661387 85.294377,353.097056 C84.931800,352.449166 82.391359,351.500000 81.019861,351.500000 C79.154942,351.500000 77.375815,350.491161 77.051897,349.250000 C76.464691,347.000000 76.464691,347.000000 75.924874,340.000000 C75.526118,334.829198 76.314673,332.712348 78.942528,331.899208 C81.056746,331.245004 82.500000,329.540952 82.500000,327.698898 C82.500000,326.449194 81.455588,323.986829 80.750000,323.572999 C79.962136,323.110914 75.793302,323.060356 73.167434,323.481040 C70.053285,323.979951 67.082224,325.381572 66.792803,326.488322 C66.737707,326.699007 64.341391,329.923871 64.125369,330.078045 C63.524496,330.506884 52.090653,333.551838 48.184928,334.323153 C37.922939,336.349725 34.261741,338.073545 33.949482,341.025700 C33.529107,345.000000 33.529107,345.000000 34.595824,352.131270 C34.816469,353.606343 36.545322,360.145322 36.775542,360.375542 C37.888544,361.488544 37.888544,361.488544 39.444272,361.935512 C41.000000,362.382481 41.000000,362.382481 52.500000,360.441240 C64.000000,358.500000 64.000000,358.500000 66.500000,358.500000 C67.077896,358.500000 70.636231,359.845473 71.128177,360.250000 C72.709508,361.550328 70.653867,363.758785 63.128177,368.844714 C53.000000,375.689429 53.000000,375.689429 48.734810,377.832126 C44.469621,379.974824 44.469621,379.974824 42.484810,381.959634 C39.170779,385.273666 40.617874,389.959941 45.263233,390.957283 C48.000000,391.544857 48.000000,391.544857 65.795709,393.023825 C78.884516,394.111611 83.991423,393.775058 85.103747,391.751396 C87.159562,388.011231 84.857298,384.839510 79.731798,384.350715 C77.181787,384.107532 75.525307,382.176491 74.707770,378.493956 C73.843924,374.602824 74.510929,372.340896 76.994045,370.740807 C78.454204,369.799899 80.500000,367.174057 80.500000,366.240807 C80.500000,364.000000 80.500000,364.000000 79.255115,362.250000 C78.423441,361.080872 79.046809,360.500000 81.133143,360.500000 C82.446593,360.500000 85.050997,359.316941 85.628028,358.458184 C86.564979,357.063783 87.609202,359.432766 88.921304,365.929492 C90.842607,375.442614 90.842607,375.442614 95.281089,390.721307 C97.112175,397.024497 105.753154,419.217676 109.990334,428.500000 C114.649793,438.707403 126.982175,461.316225 132.563157,469.882508 C137.957239,478.161919 154.503428,499.640447 162.029409,508.132508 C179.193602,527.500000 179.193602,527.500000 180.134393,527.500000 C181.075184,527.500000 181.075184,527.500000 186.000000,532.500000 C190.924816,537.500000 190.924816,537.500000 191.462408,537.500000 C192.000000,537.500000 192.000000,537.500000 199.000000,543.417387 C206.000000,549.334775 206.000000,549.334775 216.000000,556.466959 C216.744234,556.997760 236.531019,569.338115 237.377793,569.799572 C248.755586,576.000000 248.755586,576.000000 249.159820,576.706330 C249.564055,577.412660 249.564055,577.412660 266.282027,584.990332 C269.619404,586.503049 293.805021,596.124816 296.500000,597.011953 C310.000000,601.455900 310.000000,601.455900 325.000000,605.016280 C331.834209,606.638438 353.609651,609.921559 365.000000,611.047148 C377.719179,612.304053 398.105342,613.238504 406.500000,612.949407 C428.114268,612.205050 449.183608,609.446302 468.203066,604.870219 C483.406131,601.212360 483.406131,601.212360 496.703066,596.912773 C510.000000,592.613186 510.000000,592.613186 520.000000,588.408940 C530.000000,584.204694 530.000000,584.204694 547.000000,574.957043 C549.414261,573.643735 573.794390,558.970184 575.415578,557.854697 C577.162397,556.652766 596.642922,541.318462 598.415578,539.750000 C610.000000,529.500000 610.000000,529.500000 610.667045,529.500000 C611.334090,529.500000 611.334090,529.500000 623.917045,516.250000 C636.500000,503.000000 636.500000,503.000000 636.500000,502.500000 C636.500000,502.000000 636.500000,502.000000 644.058998,493.000000 C644.789860,492.129811 659.945517,471.353627 660.836868,470.000000 C661.671130,468.733071 676.263559,444.176434 676.881231,443.000000 C679.652366,437.722028 689.245709,414.258943 693.031581,403.500000 C696.770681,392.873980 703.908834,369.212765 704.948003,364.000000 C707.539567,351.000000 707.539567,351.000000 709.019783,336.000000 C710.500000,321.000000 710.500000,321.000000 710.500000,317.250000 C710.500000,313.668687 709.507407,312.752266 707.994885,314.937126 C707.779800,315.247819 704.862208,332.687581 704.272562,337.187126 C703.413296,343.744118 699.404367,366.561938 698.419726,370.500000 C692.666190,393.511223 685.161949,413.936754 674.906440,434.500000 C673.001859,438.318860 658.727994,462.342429 655.002050,468.000000 C650.285580,475.161612 635.947160,494.419194 632.665259,498.000000 C623.500000,508.000000 623.500000,508.000000 623.500000,508.654865 C623.500000,509.309730 623.500000,509.309730 611.250000,520.904865 C599.000000,532.500000 599.000000,532.500000 598.500000,532.500000 C598.000000,532.500000 598.000000,532.500000 585.844864,542.250000 C569.175307,555.621152 551.567537,566.478139 529.500000,576.992358 C521.756847,580.681633 498.722126,590.224936 493.500000,591.907187 C489.997800,593.035382 464.968324,599.580855 460.500000,600.537036 C453.367749,602.063274 431.861197,605.418848 425.500000,605.997935 C409.000000,607.500000 409.000000,607.500000 396.650962,607.500000 C391.801769,607.500000 369.330848,605.704483 359.650962,604.543550 C349.231510,603.293920 326.917510,599.526246 321.000000,598.017412 C307.000000,594.447724 307.000000,594.447724 292.500000,589.361370 C266.026253,580.074830 241.235096,567.381866 220.282282,552.386215 C208.564564,544.000000 208.564564,544.000000 200.782282,537.250000 C193.000000,530.500000 193.000000,530.500000 192.458208,530.500000 C191.916416,530.500000 191.916416,530.500000 187.500000,526.000000 C183.083584,521.500000 183.083584,521.500000 182.300266,521.500000 C181.516948,521.500000 181.516948,521.500000 180.267927,519.500000 C179.018906,517.500000 179.018906,517.500000 178.382015,517.500000 C177.745124,517.500000 177.745124,517.500000 167.122562,505.750000 C156.500000,494.000000 156.500000,494.000000 156.500000,493.500000 C156.500000,493.000000 156.500000,493.000000 147.366409,481.500000 C143.748855,476.945179 130.742588,456.595936 125.830310,447.805218 C119.563468,436.590457 109.269950,414.081070 105.023210,402.305218 C100.935860,390.971344 94.584990,368.821170 92.659651,359.184358 C91.915814,355.461266 87.669500,329.511374 87.430930,327.230829 C86.669736,319.954378 85.654915,315.565861 84.897157,316.273713 C84.155135,316.966866 83.387359,316.534709 83.037983,315.227242M62.125000,340.895323 C66.250000,339.416667 66.250000,339.416667 66.734270,338.932396 C67.218540,338.448126 67.218540,338.448126 67.848722,343.809992 C67.848722,343.809992 68.478904,349.171858 68.478904,349.171858 C56.054850,350.702753 43.630796,352.233649 43.630796,352.233649 C42.988221,348.430281 42.345646,344.626913 42.345646,344.626913 C42.345646,344.626913 50.172823,343.500446 50.172823,343.500446 C58.000000,342.373980 58.000000,342.373980 62.125000,340.895323M63.604560,378.940706 C66.468135,378.078436 66.468135,378.078436 66.984295,380.428494 C66.984295,380.428494 67.658911,383.500000 67.658911,383.500000 C62.329455,383.500000 57.000000,383.500000 57.000000,383.500000 C57.000000,383.500000 59.500000,381.461933 59.500000,381.461933 C62.000000,379.423866 62.000000,379.423866 63.604560,378.940706" stroke="#000000" stroke-width="0.000000" fill="currentColor" fill-rule="evenodd" />
<path d="M19.854555,325.500000 C18.747032,325.500000 18.418506,329.831633 18.849629,338.750000 C19.035076,342.586220 21.274258,363.012346 22.001302,367.500000 C22.578984,371.065719 28.083809,396.695191 29.150856,400.787034 C30.006205,404.067071 38.654739,432.205061 39.754826,435.287034 C42.152555,442.004441 53.645062,467.549874 58.970748,478.000000 C65.005258,489.840987 79.306931,514.074682 85.232714,522.500000 C88.505022,527.152590 105.076592,548.485086 107.372164,551.000000 C116.500000,561.000000 116.500000,561.000000 116.500000,561.665996 C116.500000,562.331993 116.500000,562.331993 132.208852,577.415996 C147.917705,592.500000 147.917705,592.500000 148.534538,592.500000 C149.151372,592.500000 149.151372,592.500000 151.500000,595.000000 C153.848628,597.500000 153.848628,597.500000 154.424314,597.500000 C155.000000,597.500000 155.000000,597.500000 165.355848,605.802251 C180.664819,618.075405 198.546203,629.684477 219.000000,640.629465 C226.354094,644.564698 251.603672,655.571740 263.500000,660.028338 C276.874611,665.038730 301.529835,672.684320 311.500000,674.913148 C319.932397,676.798208 344.950599,680.968779 354.000000,681.997959 C364.439560,683.185241 386.772228,684.500000 396.500000,684.500000 C403.985894,684.500000 426.522517,683.536560 432.000000,682.982376 C469.368751,679.201595 501.134531,671.871064 532.379867,659.817897 C533.701722,659.307979 563.178160,645.964018 565.379867,644.878822 C572.349411,641.443612 597.254050,627.435131 603.000000,623.718068 C607.152638,621.031720 628.690862,605.457925 631.500000,603.110372 C643.000000,593.500000 643.000000,593.500000 643.598819,593.500000 C644.197639,593.500000 644.197639,593.500000 660.848819,577.407750 C677.500000,561.315501 677.500000,561.315501 677.500000,560.657750 C677.500000,560.000000 677.500000,560.000000 684.000000,553.000000 C690.500000,546.000000 690.500000,546.000000 690.500000,545.500000 C690.500000,545.000000 690.500000,545.000000 700.112718,533.000000 C702.684063,529.790070 717.343228,508.547401 720.125069,504.000000 C722.190362,500.623921 736.957851,473.776782 738.552019,470.500000 C741.118416,465.224818 751.662351,439.713869 754.051150,433.000000 C756.922747,424.929197 764.294894,399.994317 766.025217,392.500000 C767.321866,386.884002 771.941691,361.963998 772.513735,357.500000 C774.500000,342.000000 774.500000,342.000000 774.500000,334.250000 C774.500000,329.247759 773.888778,326.500000 772.776061,326.500000 C771.688863,326.500000 769.991162,334.533413 768.179635,348.250000 C766.963477,357.458549 762.180923,382.744098 759.885495,392.101440 C757.663061,401.161221 750.018360,426.019544 746.930173,434.228344 C737.393949,459.576856 725.805232,483.067043 712.845712,503.317129 C703.043154,518.634259 703.043154,518.634259 702.021577,519.392587 C701.000000,520.150915 701.000000,520.150915 694.500000,529.470996 C688.000000,538.791076 688.000000,538.791076 685.750000,540.819852 C683.500000,542.848628 683.500000,542.848628 683.500000,543.439207 C683.500000,544.029787 683.500000,544.029787 674.500000,553.514893 C665.500000,563.000000 665.500000,563.000000 665.500000,563.685713 C665.500000,564.371426 665.500000,564.371426 650.750000,577.935713 C636.000000,591.500000 636.000000,591.500000 635.500000,591.500000 C635.000000,591.500000 635.000000,591.500000 624.500000,600.134194 C621.540966,602.567419 599.983422,617.469805 594.483395,620.884194 C589.716929,623.843191 562.886958,638.908232 558.983395,640.817460 C538.215128,650.975196 515.444811,659.338851 490.672443,665.908425 C471.622979,670.960298 450.820998,674.589613 430.000000,676.493927 C419.000000,677.500000 419.000000,677.500000 396.500000,677.500000 C386.388827,677.500000 364.088938,676.408402 356.000000,675.517492 C338.000000,673.534983 338.000000,673.534983 322.000000,670.441912 C315.484714,669.182397 290.883737,662.403940 280.500000,659.007165 C276.758053,657.783082 249.880458,648.131203 249.000000,647.695357 C249.000000,647.695357 243.000000,644.725226 243.000000,644.725226 C243.000000,644.725226 247.232720,644.027635 247.232720,644.027635 C249.963822,643.577524 251.880173,644.240282 252.634477,645.895800 C254.626326,650.267433 259.500000,650.104776 259.500000,645.666667 C259.500000,638.857240 251.140866,634.290778 244.772002,637.620995 C242.121133,639.007109 241.126876,641.726876 242.697032,643.297032 C243.133718,643.733718 243.294857,644.500000 242.950000,644.500000 C242.000000,644.500000 242.000000,644.500000 230.483182,638.958943 C208.187799,628.232024 187.860072,615.447391 169.500000,600.605044 C157.000000,590.500000 157.000000,590.500000 156.446167,590.500000 C155.892334,590.500000 155.892334,590.500000 152.500000,587.000000 C149.107666,583.500000 149.107666,583.500000 148.549865,583.500000 C147.992063,583.500000 147.992063,583.500000 132.246032,567.753968 C116.500000,552.007937 116.500000,552.007937 116.500000,551.503968 C116.500000,551.000000 116.500000,551.000000 109.250000,542.843139 C102.000000,534.686278 102.000000,534.686278 92.704351,521.843139 C83.408701,509.000000 83.408701,509.000000 83.020120,507.500000 C82.631538,506.000000 82.631538,506.000000 75.479336,495.000000 C73.404505,491.808935 61.410358,469.446986 58.583867,463.500000 C55.592156,457.205387 44.878912,431.566396 43.123431,426.500000 C35.001981,403.061144 29.169811,378.567189 25.238112,351.385203 C22.723454,334.000000 22.723454,334.000000 23.105716,333.000000 C23.487978,332.000000 23.487978,332.000000 22.493989,330.500000 C21.500000,329.000000 21.500000,329.000000 21.500000,327.250000 C21.500000,326.531771 20.529873,325.500000 19.854555,325.500000" stroke="#000000" stroke-width="0.000000" fill="currentColor" fill-rule="evenodd" />
<path d="M737.635728,345.847920 C727.072650,344.094615 718.597540,343.443807 717.385317,344.292881 C716.289206,345.060627 715.581509,347.157545 715.892955,348.714775 C716.303358,350.766788 721.401999,352.483892 732.492649,354.305166 C741.590831,355.799242 748.500000,357.595559 748.500000,358.466923 C748.500000,360.000000 748.500000,360.000000 747.919845,362.330921 C747.495581,364.035511 744.741348,364.373410 737.669845,363.588430 C728.000000,362.515017 728.000000,362.515017 721.924156,362.878376 C714.243199,363.337727 711.500000,365.921768 711.500000,372.697729 C711.500000,375.363203 712.634881,376.809907 715.030845,377.198718 C717.422436,377.586820 718.855053,376.748798 719.470899,374.601468 C719.470899,374.601468 720.380109,371.431241 720.380109,371.431241 C720.380109,371.431241 734.690054,372.922782 734.690054,372.922782 C740.837868,373.563575 750.626135,373.896185 751.850959,373.505918 C755.795579,372.249038 759.598174,356.297503 757.113136,351.431571 C756.314532,349.867831 748.695580,347.683681 737.635728,345.847920" stroke="#000000" stroke-width="0.000000" fill="currentColor" fill-rule="evenodd" />
<path d="M294.448777,365.417119 C294.010902,364.708622 293.718752,365.495180 293.857953,367.007803 C293.991773,368.461969 294.437003,369.182367 294.724136,368.409316 C294.874451,368.004620 294.669148,365.773687 294.448777,365.417119" stroke="#000000" stroke-width="0.000000" fill="currentColor" fill-rule="evenodd" />
<path d="M307.868740,380.081006 C305.632437,377.738222 296.942611,369.542868 297.088349,369.914045 C297.483284,370.919892 297.284751,371.485003 296.669939,371.105028 C296.276185,370.861675 295.500000,370.918701 295.500000,371.190983 C295.500000,372.000000 295.500000,372.000000 306.122139,383.906732 C311.727985,390.190522 321.054902,397.864567 325.872139,400.156732 C332.419828,403.272289 367.295038,404.500000 449.250000,404.500000 C449.250000,404.500000 563.500000,404.500000 563.500000,404.500000 C563.500000,401.979625 563.500000,399.459251 563.500000,399.459251 C563.500000,399.459251 452.250000,399.876891 452.250000,399.876891 C407.478583,400.044967 338.310979,399.741451 336.500000,399.368967 C336.048167,399.276033 326.332862,395.618056 325.700330,395.302707 C322.987337,393.950147 312.835033,385.283767 307.868740,380.081006" stroke="#000000" stroke-width="0.000000" fill="currentColor" fill-rule="evenodd" />
<path d="M722.187753,380.338973 C719.530207,379.628188 715.997156,380.340786 713.225547,382.146604 C710.838248,383.702028 707.421861,388.683673 706.081497,392.563784 C705.105573,395.388907 703.826088,401.819176 704.018097,402.933748 C704.341806,404.812809 710.181431,407.598949 720.261750,410.683748 C724.156755,411.875706 738.633797,415.500000 739.500000,415.500000 C741.888239,415.500000 743.876956,412.879421 745.760797,407.250000 C747.277766,402.716892 748.041028,397.011044 747.454932,394.585321 C745.943321,388.329094 739.678603,384.585576 734.244548,386.691381 C731.529581,387.743485 729.946836,387.227632 728.531903,384.829500 C727.654564,383.342520 724.154270,380.864936 722.187753,380.338973M714.825591,394.361181 C715.841881,391.531579 717.694087,390.044846 720.099760,390.127700 C720.099760,390.127700 723.807551,390.255400 723.807551,390.255400 C723.180220,395.552228 722.552889,400.849057 722.552889,400.849057 C717.906051,399.785710 713.259213,398.722362 713.259213,398.722362 C713.259213,398.722362 714.825591,394.361181 714.825591,394.361181M732.879162,396.796954 C734.000000,396.135527 734.000000,396.135527 736.970457,396.090610 C736.970457,396.090610 739.940914,396.045693 739.940914,396.045693 C738.814210,400.969401 737.687506,405.893109 737.687506,405.893109 C737.687506,405.893109 734.099670,404.791971 734.099670,404.791971 C731.666957,404.045350 730.712491,402.687547 731.135079,400.574607 C731.194781,400.276094 732.771793,396.860314 732.879162,396.796954" stroke="#000000" stroke-width="0.000000" fill="currentColor" fill-rule="evenodd" />
<path d="M300.303808,393.000000 C297.921523,390.376295 288.500000,380.997721 288.500000,381.250000 C288.500000,381.398707 289.415771,382.500000 289.539427,382.500000 C290.005258,382.500000 289.897974,383.228884 289.345014,383.820829 C288.680190,384.532526 288.622618,385.457748 289.220177,385.827060 C289.634833,386.083331 290.588094,385.735718 290.742715,385.271856 C290.867668,384.896996 291.573673,386.118363 291.754412,387.022061 C291.903271,387.766357 294.285791,391.829036 294.926287,392.430751 C297.500000,394.848628 297.500000,394.848628 297.500000,395.674314 C297.500000,396.500000 297.500000,396.500000 298.500000,396.500000 C299.500000,396.500000 299.500000,396.500000 299.500000,397.250000 C299.500000,398.000000 299.500000,398.000000 304.446864,403.564637 C305.681026,404.952924 314.291233,412.204898 315.919244,413.227286 C317.572650,414.265621 326.758473,418.510453 328.222380,418.912648 C331.460521,419.802300 383.387951,420.500000 446.363499,420.500000 C446.363499,420.500000 558.726999,420.500000 558.726999,420.500000 C558.298330,417.579296 557.869662,414.658592 557.869662,414.658592 C557.869662,414.658592 445.434831,415.106226 445.434831,415.106226 C380.849848,415.363357 330.796694,414.858146 327.822797,413.919109 C322.645595,412.284357 322.645595,412.284357 317.376606,409.142179 C315.565054,408.061854 304.362123,397.469582 300.303808,393.000000" stroke="#000000" stroke-width="0.000000" fill="currentColor" fill-rule="evenodd" />
<path d="M84.550000,396.500000 C84.129870,396.500000 68.415168,401.467697 65.735479,402.447605 C55.867287,406.056202 49.271599,409.497304 48.964029,411.197605 C47.919891,416.969790 53.600895,428.944993 58.500000,431.298839 C59.009180,431.543482 64.303456,432.500000 65.148360,432.500000 C74.020283,432.500000 79.500000,427.154545 79.500000,418.500000 C79.500000,414.000000 79.500000,414.000000 78.428978,411.286933 C77.645392,409.301988 78.987273,407.911815 83.428978,406.106989 C86.801467,404.736624 89.500000,402.586636 89.500000,401.270056 C89.500000,397.800924 88.150000,396.500000 84.550000,396.500000M62.718271,413.694400 C67.000000,412.611111 67.000000,412.611111 68.257371,411.969765 C68.921338,411.631096 69.814994,413.518992 70.150949,415.970047 C71.249937,423.988043 62.091981,425.853779 59.543277,418.131130 C59.543277,418.131130 58.436542,414.777689 58.436542,414.777689 C58.436542,414.777689 62.718271,413.694400 62.718271,413.694400" stroke="#000000" stroke-width="0.000000" fill="currentColor" fill-rule="evenodd" />
<path d="M704.500000,408.872359 C700.970588,408.162060 699.500000,409.544260 699.500000,413.571841 C699.500000,414.664228 701.231861,417.649525 702.429657,418.621841 C702.429657,418.621841 705.359313,421.000000 705.359313,421.000000 C705.359313,421.000000 702.929320,426.295250 702.929320,426.295250 C701.306169,429.832294 699.420327,431.403562 697.249664,431.027493 C692.790064,430.254863 690.500000,431.721323 690.500000,435.349690 C690.500000,435.794058 691.398702,438.998702 691.571887,439.171887 C691.978713,439.578713 704.862863,440.956246 712.337416,441.392073 C724.472993,442.099675 732.696716,441.874712 733.765529,440.805900 C734.171876,440.399552 735.500000,437.317404 735.500000,436.780749 C735.500000,435.748421 727.671967,427.591902 721.250000,421.932779 C717.084793,418.262343 705.230738,409.019422 704.500000,408.872359M710.275683,428.813661 C711.039345,427.627322 711.039345,427.627322 711.526677,427.139990 C712.014009,426.652658 712.014009,426.652658 715.935144,429.576329 C715.935144,429.576329 719.856279,432.500000 719.856279,432.500000 C719.856279,432.500000 715.146755,432.500000 715.146755,432.500000 C710.773010,432.500000 708.842963,431.039375 710.275683,428.813661" stroke="#000000" stroke-width="0.000000" fill="currentColor" fill-rule="evenodd" />
<path d="M92.094491,428.500000 C91.034039,428.500000 82.383623,431.354579 79.386595,432.693520 C75.722232,434.330597 67.933486,439.207829 66.610147,440.694000 C64.596946,442.954917 63.448028,446.707501 63.781066,449.934320 C64.039615,452.439427 66.300605,457.884041 67.976322,460.036778 C70.090502,462.752793 73.051680,464.537662 75.055403,464.303739 C77.272995,464.044847 78.500000,462.850492 78.500000,460.950801 C78.500000,459.661976 77.046717,456.953952 75.919728,456.142765 C74.955096,455.448441 72.992851,452.149660 72.785908,450.874421 C72.442132,448.755973 73.893638,446.404295 76.616181,444.668750 C81.000000,441.874190 81.000000,441.874190 85.000000,440.187095 C85.679885,439.900337 91.656349,438.500000 92.200310,438.500000 C95.792307,438.500000 97.153366,440.540714 97.757967,446.832914 C98.070419,450.084665 99.284499,451.961526 101.263372,452.251963 C104.723287,452.759770 106.500000,450.468926 106.500000,445.500000 C106.500000,436.214286 99.963046,428.500000 92.094491,428.500000" stroke="#000000" stroke-width="0.000000" fill="currentColor" fill-rule="evenodd" />
<path d="M707.643807,447.500000 C707.088941,447.500000 702.112896,449.602396 701.134983,450.250000 C699.972687,451.019708 695.594118,455.645894 695.054533,456.674312 C695.054533,456.674312 693.126714,460.348624 693.126714,460.348624 C693.126714,460.348624 688.563357,457.924312 688.563357,457.924312 C687.788870,457.512861 682.007982,455.500000 681.600792,455.500000 C680.319629,455.500000 678.691915,457.128360 678.107889,458.994290 C678.107889,458.994290 677.014193,462.488580 677.014193,462.488580 C677.014193,462.488580 693.007097,470.994290 693.007097,470.994290 C699.316890,474.350108 710.991399,479.500000 712.289051,479.500000 C714.327179,479.500000 716.894403,476.753341 719.039051,472.278212 C720.402036,469.434139 722.500000,462.509560 722.500000,460.854937 C722.500000,453.258551 716.094119,447.500000 707.643807,447.500000M704.181652,459.384688 C705.892809,458.000000 705.892809,458.000000 707.946404,457.734744 C712.965733,457.086413 715.266409,462.533086 711.964485,467.247242 C711.964485,467.247242 710.428970,469.439497 710.428970,469.439497 C710.428970,469.439497 705.912436,467.245196 705.912436,467.245196 C703.287960,465.970127 701.620986,464.154091 701.933199,462.910135 C702.470495,460.769377 702.470495,460.769377 704.181652,459.384688" stroke="#000000" stroke-width="0.000000" fill="currentColor" fill-rule="evenodd" />
<path d="M115.658144,461.251606 C114.822741,461.033144 105.852527,465.338862 100.322721,468.612637 C87.000000,476.500000 87.000000,476.500000 86.500000,476.500000 C86.000000,476.500000 86.000000,476.500000 83.796040,473.000000 C83.017018,471.762872 80.398551,469.500000 79.746040,469.500000 C76.561510,469.500000 75.500000,470.612500 75.500000,473.950000 C75.500000,474.391252 80.075408,483.556229 81.330363,485.628772 C83.332295,488.934936 88.516199,495.687754 89.224991,495.912716 C92.940413,497.091945 95.107432,493.612886 93.212306,489.511248 C91.589964,486.000000 91.589964,486.000000 91.924747,485.000000 C92.259531,484.000000 92.259531,484.000000 105.509754,476.244738 C114.501908,470.981693 118.584976,467.411072 118.215411,465.133708 C117.971971,463.633564 116.557890,461.486895 115.658144,461.251606" stroke="#000000" stroke-width="0.000000" fill="currentColor" fill-rule="evenodd" />
<path d="M676.000000,468.864871 C672.225490,468.218722 670.500000,469.577571 670.500000,473.196201 C670.500000,474.362148 676.708473,479.555150 683.113011,483.746201 C695.726022,492.000000 695.726022,492.000000 696.082986,493.000000 C696.578739,494.388806 692.800592,500.413081 690.982487,501.132771 C690.800771,501.204703 680.122425,494.935183 677.982487,493.500152 C671.981329,489.475804 664.327772,485.628730 662.650000,485.793250 C660.389153,486.014946 659.308485,487.239877 659.326097,489.560874 C659.342020,491.659187 665.131593,496.801235 674.176097,502.750000 C679.810520,506.455881 690.687682,512.500000 691.722465,512.500000 C693.163621,512.500000 697.311050,508.381878 700.534733,503.750000 C702.098531,501.503092 707.020535,492.748314 707.157357,491.970326 C707.499417,490.025333 702.554360,485.438827 693.345088,479.159542 C689.276345,476.385295 676.850900,469.010535 676.000000,468.864871" stroke="#000000" stroke-width="0.000000" fill="currentColor" fill-rule="evenodd" />
<path d="M126.000000,480.867640 C124.440619,480.629580 116.157062,485.455643 108.750000,490.917620 C100.875718,496.724127 94.500000,502.717091 94.500000,504.312150 C94.500000,505.526235 97.789656,511.187295 100.177685,514.082689 C103.803700,518.479094 107.868965,520.928621 111.427685,520.861382 C117.693676,520.742991 120.910509,518.517602 121.971747,513.567051 C122.330238,511.894733 124.398610,510.982257 127.906047,510.949095 C136.372771,510.869044 140.760835,502.270935 136.913127,493.300346 C135.326253,489.600693 135.326253,489.600693 134.163127,488.680849 C133.000000,487.761006 133.000000,487.761006 131.000000,484.543317 C130.173936,483.214308 127.239097,481.056804 126.000000,480.867640M120.765765,494.084503 C124.000000,492.086442 124.000000,492.086442 124.634045,491.748539 C127.510088,490.215804 130.340754,499.230675 127.785714,501.785714 C125.583654,503.987774 123.592955,503.436123 120.588569,499.791282 C120.588569,499.791282 117.531531,496.082564 117.531531,496.082564 C117.531531,496.082564 120.765765,494.084503 120.765765,494.084503M107.096149,504.000000 C109.725178,502.000000 109.725178,502.000000 110.377880,501.744903 C112.882278,500.766103 115.447109,509.152891 113.300000,511.300000 C111.588999,513.011001 109.507678,512.327668 107.056038,509.250000 C107.056038,509.250000 104.467120,506.000000 104.467120,506.000000 C104.467120,506.000000 107.096149,504.000000 107.096149,504.000000" stroke="#000000" stroke-width="0.000000" fill="currentColor" fill-rule="evenodd" />
<path d="M145.011905,506.500000 C144.320852,506.500000 133.936113,514.609826 129.194000,518.852786 C121.435571,525.794565 115.632871,532.255646 115.947018,533.602786 C116.067964,534.121434 121.369325,541.289608 122.712016,542.750000 C125.061323,545.305249 130.217438,549.500000 131.008998,549.500000 C134.479314,549.500000 135.861713,547.437500 134.695395,544.000000 C134.510068,543.453787 130.742528,538.181630 130.089198,537.554260 C130.089198,537.554260 126.500880,534.108519 126.500880,534.108519 C126.500880,534.108519 129.187531,531.304260 129.187531,531.304260 C131.874182,528.500000 131.874182,528.500000 132.475329,528.500000 C133.076475,528.500000 133.076475,528.500000 136.838009,533.000000 C138.325853,534.779938 141.959712,537.500000 142.849772,537.500000 C145.872420,537.500000 147.500000,536.075013 147.500000,533.428609 C147.500000,533.104554 144.335634,528.227548 143.574556,527.378609 C143.574556,527.378609 139.649112,523.000000 139.649112,523.000000 C139.649112,523.000000 142.261647,520.250000 142.261647,520.250000 C144.874182,517.500000 144.874182,517.500000 145.437091,517.500000 C146.000000,517.500000 146.000000,517.500000 150.332000,522.500000 C152.126166,524.570828 156.051438,527.500000 157.032310,527.500000 C157.803746,527.500000 160.124060,526.320032 160.473548,525.750000 C161.035969,524.832663 160.518429,522.263635 159.385839,520.350697 C157.225203,516.701393 157.225203,516.701393 152.124506,511.600697 C150.458681,509.934871 145.668968,506.500000 145.011905,506.500000" stroke="#000000" stroke-width="0.000000" fill="currentColor" fill-rule="evenodd" />
<path d="M650.826725,507.500000 C648.286216,507.500000 644.087654,508.817531 642.576725,510.088894 C641.429624,511.054116 639.500000,514.167890 639.500000,515.053710 C639.500000,518.975098 642.479781,520.063848 646.160688,517.487385 C649.000000,515.500000 649.000000,515.500000 650.386365,515.500000 C650.877461,515.500000 656.561377,524.291888 659.188169,529.114639 C664.289473,538.480562 667.578153,542.534369 669.726454,542.104709 C671.399027,541.770195 673.015880,540.207631 673.207993,538.740070 C673.357984,537.594279 670.870702,531.288795 668.933128,527.902904 C668.933128,527.902904 664.299571,519.805808 664.299571,519.805808 C664.299571,519.805808 672.649786,522.652904 672.649786,522.652904 C681.000000,525.500000 681.000000,525.500000 683.050000,525.500000 C686.579688,525.500000 688.961458,520.374312 686.558283,517.950000 C685.616565,517.000000 685.616565,517.000000 677.186569,514.544503 C668.756574,512.089006 668.756574,512.089006 662.378287,509.794503 C660.141317,508.989783 652.641077,507.500000 650.826725,507.500000" stroke="#000000" stroke-width="0.000000" fill="currentColor" fill-rule="evenodd" />
<path d="M165.352146,527.500000 C164.502166,527.500000 155.582125,535.642056 150.375199,541.170694 C145.484575,546.363484 137.500000,556.161880 137.500000,556.970694 C137.500000,560.063878 138.922895,561.500000 141.987592,561.500000 C142.703679,561.500000 147.310685,558.215104 149.000000,556.500000 C153.924816,551.500000 153.924816,551.500000 154.481639,551.500000 C155.790147,551.500000 161.500000,557.179270 161.500000,558.480769 C161.500000,559.000000 161.500000,559.000000 157.000000,563.972618 C155.495006,565.635676 152.500000,570.427892 152.500000,571.172928 C152.500000,573.789297 154.519782,575.500000 157.608859,575.500000 C158.079950,575.500000 168.157403,565.907905 171.858859,561.936321 C176.856999,556.573421 184.500000,547.020532 184.500000,546.136321 C184.500000,542.935052 183.070619,541.500000 179.882000,541.500000 C179.010474,541.500000 175.034188,544.544131 173.332000,546.514493 C173.332000,546.514493 169.000000,551.528986 169.000000,551.528986 C169.000000,551.528986 165.597337,549.264493 165.597337,549.264493 C162.194675,547.000000 162.194675,547.000000 161.285149,545.500000 C160.807860,544.712851 162.524260,541.900416 164.896840,539.582002 C169.418059,535.164003 169.418059,535.164003 169.856247,533.582002 C170.712830,530.489458 168.498949,527.500000 165.352146,527.500000" stroke="#000000" stroke-width="0.000000" fill="currentColor" fill-rule="evenodd" />
<path d="M617.062516,537.500000 C613.912207,537.500000 612.500000,538.902101 612.500000,542.029866 C612.500000,542.807161 618.850497,551.094560 622.500000,555.079866 C632.500000,566.000000 632.500000,566.000000 632.500000,566.595012 C632.500000,567.190025 632.500000,567.190025 630.474320,569.023240 C630.385274,569.103826 628.012915,572.837156 627.992881,572.928228 C627.388526,575.675485 628.404182,577.437847 630.961720,578.079748 C632.138755,578.375165 637.696514,574.632932 642.377709,570.392965 C646.037167,567.078431 651.500000,560.863794 651.500000,560.015250 C651.500000,557.236634 649.980769,555.500000 647.550000,555.500000 C647.421244,555.500000 643.249206,557.812130 643.000000,558.021595 C643.000000,558.021595 640.000000,560.543190 640.000000,560.543190 C640.000000,560.543190 629.612516,549.021595 629.612516,549.021595 C625.258165,544.191834 617.969026,537.500000 617.062516,537.500000" stroke="#000000" stroke-width="0.000000" fill="currentColor" fill-rule="evenodd" />
<path d="M192.620279,550.874056 C190.789633,550.507927 185.368075,555.967986 178.099446,565.498011 C173.869942,571.043385 166.500000,582.197577 166.500000,583.053431 C166.500000,585.939442 169.078148,587.727179 172.193410,587.001349 C172.905468,586.835445 176.957656,582.742823 178.193410,580.941479 C178.193410,580.941479 182.000000,575.392655 182.000000,575.392655 C186.598172,578.649763 191.196344,581.906871 191.196344,581.906871 C191.196344,581.906871 186.848172,587.813444 186.848172,587.813444 C182.500000,593.720018 182.500000,593.720018 182.500000,595.038580 C182.500000,597.269290 184.924603,599.500000 187.349206,599.500000 C187.523552,599.500000 190.826266,597.864560 191.027778,597.678443 C193.000000,595.856885 193.000000,595.856885 202.750000,582.549806 C206.114072,577.958425 212.500000,567.722108 212.500000,566.921054 C212.500000,564.197887 209.830217,562.295192 206.946851,562.963448 C206.347044,563.102461 202.099884,567.386995 200.946851,569.016247 C200.946851,569.016247 197.000000,574.593204 197.000000,574.593204 C197.000000,574.593204 192.750000,571.796602 192.750000,571.796602 C192.557595,571.669995 188.500000,568.045272 188.500000,568.000000 C188.500000,567.000000 188.500000,567.000000 192.535489,562.000000 C194.524463,559.535646 196.309981,555.594829 196.056322,554.229167 C195.796435,552.829969 194.095503,551.169101 192.620279,550.874056" stroke="#000000" stroke-width="0.000000" fill="currentColor" fill-rule="evenodd" />
<path d="M603.750000,551.293294 C602.128539,550.684227 597.614384,552.817321 592.750000,556.491174 C588.596208,559.628348 584.500000,564.032314 584.500000,565.361016 C584.500000,566.421315 589.054487,573.683061 592.113437,577.500000 C599.726873,587.000000 599.726873,587.000000 602.363437,591.319757 C603.398465,593.015552 606.518582,595.916720 607.500000,596.095871 C608.667698,596.309027 614.117603,593.474017 617.726482,590.776115 C619.337909,589.571454 625.779814,583.666179 625.865945,583.314692 C626.457404,580.901047 624.221755,577.500000 622.043707,577.500000 C620.700821,577.500000 620.700821,577.500000 615.416974,581.470206 C612.928105,583.340307 609.535158,584.944142 609.002678,584.502223 C607.872229,583.564033 607.872229,583.564033 606.636497,581.255048 C605.814758,579.719614 606.924969,577.804025 609.950383,575.537176 C612.217765,573.838298 614.500000,570.629745 614.500000,569.140952 C614.500000,567.344100 613.399326,565.992070 611.738030,565.748243 C610.480731,565.563711 606.531064,567.238903 604.488030,568.823221 C602.262777,570.548846 599.393379,571.806763 598.796817,571.318195 C597.593634,570.332820 597.593634,570.332820 596.521554,567.666410 C595.817535,565.915417 597.346376,563.582314 600.974737,560.870590 C603.334665,559.106853 606.500000,555.476565 606.500000,554.533726 C606.500000,553.525948 605.005468,551.764883 603.750000,551.293294" stroke="#000000" stroke-width="0.000000" fill="currentColor" fill-rule="evenodd" />
<path d="M222.891122,572.730230 C220.077186,571.608581 218.028664,571.885599 216.391122,573.609212 C214.000000,576.126014 214.000000,576.126014 207.500000,587.936335 C201.000000,599.746655 201.000000,599.746655 200.000000,600.336853 C196.758402,602.250038 198.571302,609.500000 202.291305,609.500000 C204.127646,609.500000 206.970211,607.267817 208.721533,604.450529 C208.721533,604.450529 211.860457,599.401059 211.860457,599.401059 C211.860457,599.401059 216.430228,601.450529 216.430228,601.450529 C217.447079,601.906571 223.494086,603.500000 224.207896,603.500000 C231.661412,603.500000 237.500000,597.130841 237.500000,589.000000 C237.500000,584.024222 235.703963,580.775878 231.064199,577.360100 C227.000000,574.368051 227.000000,574.368051 222.891122,572.730230M218.578048,587.786778 C221.156096,583.114635 221.156096,583.114635 222.158919,582.780360 C226.473093,581.342302 229.769406,588.242656 226.796105,592.487638 C225.663971,594.103986 223.566715,594.507319 220.546105,593.689605 C220.546105,593.689605 216.000000,592.458921 216.000000,592.458921 C216.000000,592.458921 218.578048,587.786778 218.578048,587.786778" stroke="#000000" stroke-width="0.000000" fill="currentColor" fill-rule="evenodd" />
<path d="M571.500000,573.340229 C568.086207,572.123997 565.500000,573.651116 565.500000,576.883145 C565.500000,577.538039 571.144903,588.310128 573.414462,591.986201 C573.414462,591.986201 581.328925,604.805493 581.328925,604.805493 C581.328925,604.805493 577.914462,607.122610 577.914462,607.122610 C576.384046,608.161178 574.500000,610.870506 574.500000,612.032734 C574.500000,613.593568 575.793696,614.806310 577.750000,615.079363 C579.353333,615.303150 585.192617,612.870107 589.274903,610.277304 C597.549805,605.021624 597.549805,605.021624 599.024903,603.546526 C601.881889,600.689539 600.894034,597.144400 597.118112,596.703582 C595.912977,596.562889 593.324468,596.975000 593.096504,597.343853 C592.456785,598.378941 592.456785,598.378941 590.728392,598.915632 C589.778959,599.210445 585.619867,593.768874 581.500000,586.841614 C578.390132,581.612595 572.536623,573.709547 571.500000,573.340229" stroke="#000000" stroke-width="0.000000" fill="currentColor" fill-rule="evenodd" />
<path d="M693.166667,572.833333 C692.854195,572.520862 692.854195,572.520862 689.927098,575.760431 C689.927098,575.760431 687.000000,579.000000 687.000000,579.000000 C687.000000,579.000000 690.239569,576.072902 690.239569,576.072902 C693.479138,573.145805 693.479138,573.145805 693.166667,572.833333" stroke="#000000" stroke-width="0.000000" fill="currentColor" fill-rule="evenodd" />
<path d="M550.239204,583.500000 C549.606458,583.500000 547.436704,585.300307 546.924867,586.250000 C546.015105,587.938028 546.682237,591.627077 548.652422,595.802875 C551.862089,602.605749 551.862089,602.605749 552.681044,603.111892 C553.500000,603.618034 553.500000,603.618034 553.500000,605.245802 C553.500000,606.113112 548.962874,603.749649 543.788239,600.186785 C540.332463,597.807399 532.409222,593.500000 531.488239,593.500000 C527.892067,593.500000 526.500000,594.741860 526.500000,597.950000 C526.500000,598.313728 532.268138,611.104717 533.512323,613.500000 C540.524646,627.000000 540.524646,627.000000 541.019979,629.204594 C542.207731,634.490963 550.500000,634.560391 550.500000,629.283967 C550.500000,628.806779 547.219144,620.133820 546.400570,618.447103 C546.400570,618.447103 542.301140,610.000000 542.301140,610.000000 C542.301140,610.000000 552.650570,616.750000 552.650570,616.750000 C555.474456,618.591766 564.584139,623.500000 565.178571,623.500000 C567.777409,623.500000 570.500000,621.289037 570.500000,619.178571 C570.500000,618.000000 570.500000,618.000000 562.821763,602.286049 C555.143526,586.572098 555.143526,586.572098 553.607477,585.036049 C553.429933,584.858504 550.450982,583.500000 550.239204,583.500000" stroke="#000000" stroke-width="0.000000" fill="currentColor" fill-rule="evenodd" />
<path d="M247.318763,586.030113 C246.695291,585.884243 243.903322,586.142988 243.500000,586.384016 C243.346353,586.475836 234.146273,601.066893 233.250000,602.640213 C231.354073,605.968331 224.500000,619.605811 224.500000,620.050000 C224.500000,623.561609 229.625688,625.948881 232.050000,623.566387 C233.000000,622.632774 233.000000,622.632774 238.000000,613.367211 C243.000000,604.101648 243.000000,604.101648 246.765550,598.550824 C248.577599,595.879670 250.299315,591.332795 250.084313,589.786310 C249.863996,588.201597 248.462176,586.297631 247.318763,586.030113" stroke="#000000" stroke-width="0.000000" fill="currentColor" fill-rule="evenodd" />
<path d="M675.166667,590.833333 C674.841219,590.507886 674.841219,590.507886 672.420610,593.253943 C672.420610,593.253943 670.000000,596.000000 670.000000,596.000000 C670.000000,596.000000 672.746057,593.579390 672.746057,593.579390 C675.492114,591.158781 675.492114,591.158781 675.166667,590.833333" stroke="#000000" stroke-width="0.000000" fill="currentColor" fill-rule="evenodd" />
<path d="M259.107405,592.500000 C257.160194,592.500000 253.562162,598.351168 248.807405,609.250000 C247.950975,611.213105 241.500000,627.809739 241.500000,628.050000 C241.500000,631.122619 242.959311,632.500000 246.214698,632.500000 C247.141235,632.500000 249.570085,630.839570 250.264698,629.731305 C252.000000,626.962611 252.000000,626.962611 254.418401,620.686245 C256.836802,614.409879 256.836802,614.409879 257.521988,613.986411 C257.677424,613.890346 259.198144,622.712875 259.488908,625.397585 C260.770642,637.232227 260.770642,637.232227 261.680727,638.858457 C261.828748,639.122957 264.726237,641.020646 265.141017,641.124749 C266.598367,641.490521 268.639846,640.315327 269.904857,638.382405 C272.118492,635.000000 272.118492,635.000000 278.271459,619.918558 C282.104536,610.523362 283.825412,603.981903 282.835681,602.568864 C282.010015,601.390060 279.918362,600.566328 278.480819,600.853836 C276.983696,601.153261 273.832174,605.671939 271.611217,610.703530 C271.611217,610.703530 267.507731,620.000000 267.507731,620.000000 C267.507731,620.000000 265.940285,607.386419 265.940285,607.386419 C265.461302,603.531943 263.583687,593.983687 263.236419,593.636419 C263.001421,593.401421 259.726239,592.500000 259.107405,592.500000" stroke="#000000" stroke-width="0.000000" fill="currentColor" fill-rule="evenodd" />
<path d="M519.257567,600.053160 C514.721165,599.300745 507.759612,601.670272 504.123756,605.204305 C502.644331,606.642300 501.057660,610.913838 500.856579,614.000000 C500.653993,617.109262 502.192630,624.200132 504.050165,628.717771 C505.368655,631.924419 509.537549,639.036697 510.644730,639.968329 C515.969176,644.448555 526.229322,643.403296 531.756953,637.817508 C534.513905,635.031549 534.513905,635.031549 534.980823,633.515775 C535.812775,630.814973 534.067923,628.500000 531.200310,628.500000 C530.557178,628.500000 526.688782,630.623125 525.734223,631.500000 C524.733352,632.419418 520.884276,634.500000 520.184223,634.500000 C519.845732,634.500000 516.828568,633.435233 516.642175,633.250000 C515.384350,632.000000 515.384350,632.000000 512.192175,622.314991 C512.192175,622.314991 509.000000,612.629982 509.000000,612.629982 C509.000000,612.629982 511.885606,610.456154 511.885606,610.456154 C513.267055,609.415461 516.553139,608.571494 518.189698,608.837071 C525.990883,610.103029 527.055420,601.346524 519.257567,600.053160" stroke="#000000" stroke-width="0.000000" fill="currentColor" fill-rule="evenodd" />
<path d="M310.034065,610.528862 C308.636138,610.075622 306.056302,610.099027 305.250000,610.572265 C302.420276,612.233095 302.881192,616.260930 306.067078,617.712517 C306.116678,617.735116 309.503604,620.506734 309.520734,620.538742 C309.970418,621.378984 306.241462,627.814248 301.953656,633.597664 C298.475652,638.288814 293.500000,646.655599 293.500000,647.812871 C293.500000,649.533534 294.771748,650.832117 296.775259,651.157242 C298.836945,651.491808 302.316487,648.552264 306.166046,643.223832 C306.166046,643.223832 312.281574,634.758920 312.281574,634.758920 C312.281574,634.758920 312.966024,643.888209 312.966024,643.888209 C313.650475,653.017499 313.650475,653.017499 314.589802,654.695984 C315.973815,657.169078 319.314102,657.685898 321.270376,655.729624 C322.496735,654.503265 322.505741,648.359517 321.296471,637.928472 C319.449885,622.000000 319.449885,622.000000 318.361472,618.858751 C316.727354,614.142556 314.592121,612.006687 310.034065,610.528862" stroke="#000000" stroke-width="0.000000" fill="currentColor" fill-rule="evenodd" />
<path d="M472.695423,613.818012 C469.966039,613.494404 467.725490,614.529722 467.254091,616.332357 C467.145194,616.748779 470.291693,631.293227 471.394328,635.470279 C473.915209,645.019997 477.119062,653.461573 478.494133,654.176990 C482.504135,656.263299 494.941545,652.140830 498.927020,647.404362 C500.188444,645.905245 501.500000,641.709514 501.500000,639.173275 C501.500000,627.696803 492.620322,621.608690 481.380223,625.378689 C479.476356,626.017258 478.300040,624.601385 477.075647,620.197486 C476.080875,616.619489 474.286907,614.006706 472.695423,613.818012M482.250000,634.500000 C483.000000,634.500000 483.000000,634.500000 486.669223,633.944450 C491.250548,633.250801 492.500000,634.432116 492.500000,639.457255 C492.500000,640.763891 490.444945,642.777525 488.111237,643.757561 C488.111237,643.757561 483.722473,645.600613 483.722473,645.600613 C483.722473,645.600613 482.611237,641.800306 482.611237,641.800306 C482.215929,640.448398 481.921588,634.500000 482.250000,634.500000" stroke="#000000" stroke-width="0.000000" fill="currentColor" fill-rule="evenodd" />
<path d="M341.404039,618.226766 C338.196532,616.197156 335.705592,616.770012 334.586730,619.794584 C333.801261,621.917907 333.801261,621.917907 331.261452,639.031288 C330.145120,646.553191 329.247847,657.084944 329.660511,657.822334 C331.086807,660.370983 335.937588,660.325542 337.382163,657.750000 C338.363707,656.000000 338.363707,656.000000 339.043618,650.000000 C339.043618,650.000000 339.723529,644.000000 339.723529,644.000000 C345.197177,644.302305 350.670824,644.604610 350.670824,644.604610 C349.951709,653.237496 349.232593,661.870383 349.232593,661.870383 C349.232593,661.870383 352.966457,662.306291 352.966457,662.306291 C355.324908,662.581627 357.137618,661.651310 357.887462,659.780740 C359.074603,656.819282 359.074603,656.819282 361.507697,638.909641 C361.507697,638.909641 363.940791,621.000000 363.940791,621.000000 C359.348750,621.000000 354.756708,621.000000 354.756708,621.000000 C353.633048,628.759287 352.509388,636.518575 352.509388,636.518575 C346.974669,635.868077 341.439950,635.217579 341.439950,635.217579 C341.439950,635.217579 342.624014,627.482773 342.624014,627.482773 C343.431977,622.204817 343.044470,619.264779 341.404039,618.226766" stroke="#000000" stroke-width="0.000000" fill="currentColor" fill-rule="evenodd" />
<path d="M460.213690,616.945253 C459.422530,616.842540 450.890456,617.689517 448.895177,618.068839 C447.324244,618.367489 439.764340,620.573165 439.517656,620.804823 C438.821636,621.458447 439.511198,630.156067 441.039482,640.000000 C442.541096,649.672148 444.821382,658.745874 445.968140,659.612148 C447.262258,660.589739 451.743606,660.626908 457.353396,659.706581 C461.849625,658.968942 467.369107,657.112370 468.092102,656.094433 C469.053386,654.741000 468.900753,653.221905 467.660686,651.800718 C466.441382,650.403326 463.340226,649.999371 459.155384,650.692822 C459.155384,650.692822 452.569082,651.784207 452.569082,651.784207 C451.914781,647.692433 451.260480,643.600659 451.260480,643.600659 C451.260480,643.600659 456.332652,642.927812 456.332652,642.927812 C457.313741,642.797666 463.056357,641.098186 463.452413,640.820778 C465.865439,639.130629 465.987995,637.130853 463.811911,634.954769 C462.826178,633.969035 459.499417,633.701558 455.816144,634.311896 C455.816144,634.311896 449.508464,635.357113 449.508464,635.357113 C449.254232,631.037084 449.000000,626.717056 449.000000,626.717056 C449.000000,626.717056 455.118657,626.025585 455.118657,626.025585 C457.368752,625.771301 462.295499,624.280106 462.910977,623.667057 C465.570140,621.018390 464.140253,617.455024 460.213690,616.945253" stroke="#000000" stroke-width="0.000000" fill="currentColor" fill-rule="evenodd" />
<path d="M374.035714,621.500000 C371.048201,621.500000 369.628273,622.589493 369.065966,625.313226 C368.511289,628.000000 368.511289,628.000000 368.064657,645.109013 C367.851899,653.259112 368.215489,662.815489 368.759013,663.359013 C370.346702,664.946702 373.682508,664.892196 375.430624,663.250000 C375.987984,662.726411 377.121185,655.966700 377.380624,651.617965 C377.380624,651.617965 378.000000,641.235930 378.000000,641.235930 C378.000000,641.235930 384.000000,653.003849 384.000000,653.003849 C387.993049,660.835495 391.337967,664.791677 394.000000,664.831290 C394.000000,664.831290 398.000000,664.890812 398.000000,664.890812 C398.955175,644.018558 399.910349,623.146304 399.910349,623.146304 C399.910349,623.146304 396.455175,622.753618 396.455175,622.753618 C391.823372,622.227206 390.500000,624.270846 390.500000,631.950000 C390.500000,639.000000 390.500000,639.000000 389.750000,641.854292 C389.223566,643.857753 387.522651,641.699059 384.043928,634.612506 C379.087856,624.516427 379.087856,624.516427 377.579642,623.008214 C377.343951,622.772523 374.353839,621.500000 374.035714,621.500000" stroke="#000000" stroke-width="0.000000" fill="currentColor" fill-rule="evenodd" />
<path d="M421.500000,621.861194 C415.000000,621.517645 415.000000,621.517645 411.398487,622.060336 C407.796974,622.603026 407.796974,622.603026 406.542706,623.801513 C405.865925,624.448196 405.802195,633.612540 406.404288,643.705945 C407.037644,654.323421 408.272486,662.875131 409.260069,663.483213 C412.574004,665.523694 425.265789,664.395776 429.921115,661.647068 C433.773202,659.372627 435.500000,656.326509 435.500000,651.805764 C435.500000,650.614413 433.997770,646.865081 433.104217,645.826264 C433.104217,645.826264 430.708435,643.041001 430.708435,643.041001 C430.708435,643.041001 433.104217,640.193775 433.104217,640.193775 C433.984628,639.147467 435.500000,635.339400 435.500000,634.173275 C435.500000,626.217436 431.125000,622.369911 421.500000,621.861194M415.072752,636.375952 C414.169905,631.054335 414.589593,630.500000 419.521439,630.500000 C427.807364,630.500000 428.229984,638.027010 420.007339,639.154048 C416.789617,639.595086 415.495271,638.866390 415.072752,636.375952M416.764318,651.887782 C417.057730,649.046467 418.332307,648.026546 421.499564,648.098623 C427.790836,648.241794 427.437566,654.527283 421.098087,655.241834 C421.098087,655.241834 416.362841,655.775565 416.362841,655.775565 C416.362841,655.775565 416.764318,651.887782 416.764318,651.887782" stroke="#000000" stroke-width="0.000000" fill="currentColor" fill-rule="evenodd" />
</g>
</svg>