<?xml version="1.0" encoding="UTF-8"?>
<svg xmlns="http://www.w3.org/2000/svg" viewBox="0 0 29700 21000" width="24" height="24">
  <!-- Убраны все ненужные атрибуты, DOCTYPE, Corel-метаданные, стили, пустая линия -->
  <!-- Заменён fill:#2B2A29 → fill="currentColor" для адаптации под тему -->
  <path fill="currentColor" d="M1320 1686c10 0 12-13 16-20 55-91 142-167 220-239l65-54c58-46 216-165 273-199 -39-67 -185-389 -205-356l-212 365c-35 61 -70 121 -106 183 -17 31 -97 164 -104 184 12-6 15-13 27-25l103-89c9-7 17-13 27-21 48-36 283-203 292-182 6 13 -241 183 -305 242 -36 31 -204 196 -212 211l119 0z"/>
  <path fill="currentColor" d="M1808 1506c41-46 96-63 124-38 28 25 18 82 -22 128 -41 46 -96 63 -124 38 -28-25 -18-82 22-128zm280 10c-24-38 -112-179 -130-212 -13-25 0-34 12-46 66-68 94-85 157-157 11-12 14-28 -1-18l-130 92c-34 27 -90 69 -122 100 -67 62 -122 115 -175 192 -45 66 -76 143 -42 220l487 0c40-4 41-14 25-38l-80-133z"/>
</svg>