<svg 
  xmlns="http://www.w3.org/2000/svg" 
  width="512" 
  height="512" 
  viewBox="0 0 512 512"
>
  <path 
    fill="currentColor" 
    d="M66 472c5 0 6-7 8-10 28-46 72-84 111-120l33-27c29-23 109-83 138-100 -20-34 -94-196 -103-180l-107 184c-18 31-36 61-53 93-9 16-49 83-53 93 6-3 8-7 14-13l52-45c5-3 9-7 13-10 24-18 143-102 148-92 3 7-121 92-154 122-18 16-103 99-107 106l60 0z"
  />
  <path 
    fill="currentColor" 
    d="M312 381c20-23 49-32 63-19 14 13 9 42-11 65-20 23-49 32-63 19-14-13-9-42 11-65zm142 5c-12-19-57-90-65-107-7-13 0-17 6-23 33-34 48-43 79-79 5-6 7-14-1-9l-66 47c-17 14-46 35-62 50-34 32-62 58-88 97-23 33-39 72-21 111l246 0c20-2 21-7 12-19l-40-67z"
  />
</svg>