<svg width="512" height="512" viewBox="0 0 512 512" style="color:currentColor" xmlns="http://www.w3.org/2000/svg" class="h-full w-full"><rect width="512" height="512" x="0" y="0" rx="30" fill="transparent" stroke="transparent" stroke-width="0" stroke-opacity="100%" paint-order="stroke"></rect><svg width="256px" height="256px" viewBox="0 0 16 16" fill="currentColor" x="128" y="128" role="img" style="display:inline-block;vertical-align:middle" xmlns="http://www.w3.org/2000/svg"><g fill="currentColor"><g fill="currentColor"><path d="M6.646 6.24v.07H5.375v-.064c0-1.213.879-2.402 2.637-2.402c1.582 0 2.613.949 2.613 2.215c0 1.002-.6 1.667-1.287 2.43l-.096.107l-1.974 2.22v.077h3.498V12H5.422v-.832l2.97-3.293c.434-.475.903-1.008.903-1.705c0-.744-.557-1.236-1.313-1.236c-.843 0-1.336.615-1.336 1.306Z"/><path d="M0 2a2 2 0 0 1 2-2h12a2 2 0 0 1 2 2v12a2 2 0 0 1-2 2H2a2 2 0 0 1-2-2V2Zm15 0a1 1 0 0 0-1-1H2a1 1 0 0 0-1 1v12a1 1 0 0 0 1 1h12a1 1 0 0 0 1-1V2Z"/></g></g></svg></svg>